<svg xmlns="http://www.w3.org/2000/svg" width="24" height="24" viewBox="0 0 24 24">
  <path fill="#5E6C84" fill-rule="evenodd" d="M12,7 L9.33333333,7 C8.59666667,7 8,7.61653701 8,8.37773634 L8,15.6222637 C8,16.3827741 8.59666667,17 9.33333333,17 L14.6666667,17 C15.4033333,17 16,16.3827741 16,15.6222637 L16,12 L14.6666667,12 L14.6666667,15.6222637 L9.33333333,15.6222637 L9.33333333,8.37773634 L12,8.37773634 L12,9.7916151 C12,10.5279948 12.5969537,11.1249484 13.3333333,11.1249484 L15.6666667,11.1249484 C15.8507616,11.1249484 16,10.97571 16,10.7916151 L16,9.88895591 C16,9.80276977 15.9666177,9.71993357 15.9068581,9.65783005 L13.7427427,7.40882988 C13.4913819,7.14760981 13.1444932,7 12.7819767,7 L12.0000001,7 Z M4,5.99406028 C4,4.8927712 4.89451376,4 5.99406028,4 L18.0059397,4 C19.1072288,4 20,4.89451376 20,5.99406028 L20,18.0059397 C20,19.1072288 19.1054862,20 18.0059397,20 L5.99406028,20 C4.8927712,20 4,19.1054862 4,18.0059397 L4,5.99406028 Z"/>
</svg>
