<svg xmlns="http://www.w3.org/2000/svg" width="24" height="24" viewBox="0 0 24 24">
  <path fill="#0A9D58" fill-rule="evenodd" d="M6,4 L18,4 C19.1045695,4 20,4.8954305 20,6 L20,18 C20,19.1045695 19.1045695,20 18,20 L6,20 C4.8954305,20 4,19.1045695 4,18 L4,6 C4,4.8954305 4.8954305,4 6,4 Z M14.2865339,6.49987043 L10.2203161,6.54090174 L13.7280889,12.6541358 L17.7943068,12.6126726 L14.2865339,6.49987043 Z M6,13.3313685 L8.06809223,16.8540149 L11.5758651,10.7407808 L9.50777287,7.2181344 L6,13.3313685 Z M10.9843684,13.4367542 L8.98667201,17 L16.0022178,17 L17.9999142,13.4367542 L10.9843684,13.4367542 Z"/>
</svg>
