<svg xmlns="http://www.w3.org/2000/svg" width="24" height="24" viewBox="0 0 24 24">
  <path fill="#FFAB00" fill-rule="evenodd" d="M6,4 L18,4 C19.1045695,4 20,4.8954305 20,6 L20,18 C20,19.1045695 19.1045695,20 18,20 L6,20 C4.8954305,20 4,19.1045695 4,18 L4,6 C4,4.8954305 4.8954305,4 6,4 Z M13.0423784,15.0907387 L11.7554595,15.0907387 C11.6652973,15.0907387 11.5932973,15.0180901 11.5932973,14.9285766 L11.5932973,9.58954955 C11.5932973,9.49938739 11.6652973,9.42738739 11.7554595,9.42738739 L13.0423784,9.42738739 C13.1318919,9.42738739 13.2045405,9.49938739 13.2045405,9.58954955 L13.2045405,14.9285766 C13.2045405,15.0180901 13.1318919,15.0907387 13.0423784,15.0907387 M15.5695135,15.0907387 L14.2819459,15.0907387 C14.1924324,15.0907387 14.1197838,15.0180901 14.1197838,14.9285766 L14.1197838,9.58954955 C14.1197838,9.49938739 14.1924324,9.42738739 14.2819459,9.42738739 L17.8378378,9.42738739 C17.9267027,9.42738739 18,9.49938739 18,9.58954955 L18,10.6377658 C18,10.7272793 17.9267027,10.7999279 17.8378378,10.7999279 L15.7316757,10.7999279 L15.7316757,11.746955 L17.6302703,11.746955 C17.7197838,11.746955 17.7924324,11.8196036 17.7924324,11.9091171 L17.7924324,12.9216577 C17.7924324,13.0111712 17.7197838,13.0838198 17.6302703,13.0838198 L15.7316757,13.0838198 L15.7316757,14.9285766 C15.7316757,15.0180901 15.6583784,15.0907387 15.5695135,15.0907387 M8.52454054,15.188036 C6.94378378,15.188036 6,14.2066306 6,12.5623063 L6,11.9207928 C6,10.3244685 6.96843243,9.33333333 8.52843243,9.33333333 C10.0715676,9.33333333 10.8194595,10.3114955 10.8765405,11.2812252 C10.8791351,11.325982 10.8635676,11.3700901 10.8330811,11.4018739 C10.8019459,11.434955 10.7591351,11.4531171 10.715027,11.4531171 L9.46313514,11.4531171 C9.38464865,11.4531171 9.31783784,11.3973333 9.30356757,11.3201441 C9.23675676,10.953009 8.93513514,10.7253333 8.51675676,10.7253333 C7.77794595,10.7253333 7.62291892,11.3817658 7.62291892,11.9324685 L7.62291892,12.5584144 C7.62291892,13.3796036 7.93491892,13.796036 8.55178378,13.796036 C9.14205405,13.796036 9.35221622,13.4373333 9.35221622,13.1292252 L9.35221622,13.0682523 L8.58291892,13.0682523 C8.49340541,13.0682523 8.42075676,12.9962523 8.42075676,12.9060901 L8.42075676,11.9908468 C8.42075676,11.9013333 8.49340541,11.8286847 8.58291892,11.8286847 L10.7267027,11.8286847 C10.8162162,11.8286847 10.8888649,11.9013333 10.8888649,11.9908468 L10.8888649,13.0273874 C10.8888649,14.0243604 10.2694054,15.188036 8.52454054,15.188036"/>
</svg>
