<svg xmlns="http://www.w3.org/2000/svg" width="24" height="24" viewBox="0 0 24 24">
  <path fill="#FF5630" fill-rule="evenodd" d="M6,4 L18,4 C19.1045695,4 20,4.8954305 20,6 L20,18 C20,19.1045695 19.1045695,20 18,20 L6,20 C4.8954305,20 4,19.1045695 4,18 L4,6 C4,4.8954305 4.8954305,4 6,4 Z M7.2306383,12.112766 L7.55297872,12.112766 C8.29659574,12.112766 8.35468085,11.8989362 8.35468085,11.5957447 C8.35468085,11.2504255 8.17595745,11.0819149 7.81021277,11.0819149 L7.2306383,11.0819149 L7.2306383,12.112766 Z M11.423617,13.5687234 L11.8665957,13.5687234 C12.3612766,13.5687234 12.8674468,13.4219149 12.8674468,12.3317021 C12.8674468,11.2325532 12.3325532,11.0914894 11.8665957,11.0914894 L11.423617,11.0914894 L11.423617,13.5687234 Z M6.97531915,14.6602128 L6.25531915,14.6602128 C6.11425532,14.6602128 6,14.5453191 6,14.4042553 L6,10.2553191 C6,10.1148936 6.11425532,10 6.25531915,10 L7.91808511,10 C8.90680851,10 9.59808511,10.6561702 9.59808511,11.5957447 C9.59808511,12.5487234 8.92148936,13.1889362 7.91489362,13.1889362 L7.2306383,13.1889362 L7.2306383,14.4042553 C7.2306383,14.5453191 7.11638298,14.6602128 6.97531915,14.6602128 Z M11.9425532,14.6602128 L10.4482979,14.6602128 C10.307234,14.6602128 10.1929787,14.5453191 10.1929787,14.4042553 L10.1929787,10.2553191 C10.1929787,10.1148936 10.307234,10 10.4482979,10 L11.9425532,10 C13.3474468,10 14.1210638,10.8246809 14.1210638,12.322766 C14.1210638,13.8297872 13.3474468,14.6602128 11.9425532,14.6602128 Z M15.792766,14.6602128 L15.0721277,14.6602128 C14.9310638,14.6602128 14.8168085,14.5453191 14.8168085,14.4042553 L14.8168085,10.2553191 C14.8168085,10.1148936 14.9310638,10 15.0721277,10 L17.7446809,10 C17.8851064,10 18,10.1148936 18,10.2553191 L18,10.8419149 C18,10.9829787 17.8851064,11.097234 17.7446809,11.097234 L16.0480851,11.097234 L16.0480851,11.8574468 L17.5761702,11.8574468 C17.717234,11.8574468 17.8314894,11.9717021 17.8314894,12.112766 L17.8314894,12.6904255 C17.8314894,12.8308511 17.717234,12.9457447 17.5761702,12.9457447 L16.0480851,12.9457447 L16.0480851,14.4042553 C16.0480851,14.5453191 15.9338298,14.6602128 15.792766,14.6602128 Z"/>
</svg>
