<svg xmlns="http://www.w3.org/2000/svg" width="24" height="24" viewBox="0 0 24 24">
  <g fill="none" fill-rule="evenodd">
    <path fill="#B3D4FF" d="M10.6666667,6 L19,6 C19.5522847,6 20,6.44771525 20,7 L20,17.05 C20,17.6022847 19.5522847,18.05 19,18.05 L5,18.05 C4.44771525,18.05 4,17.6022847 4,17.05 L4,7 L4,6 C4,5.44771525 4.44771525,5 5,5 L9.66666667,5 C10.2189514,5 10.6666667,5.44771525 10.6666667,6 Z"/>
    <path fill="#B3D4FF" d="M4,7.05 L20,7.05 L20,17.05 C20,17.6022847 19.5522847,18.05 19,18.05 L5,18.05 C4.44771525,18.05 4,17.6022847 4,17.05 L4,7.05 Z" style="mix-blend-mode:multiply"/>
  </g>
</svg>
