<svg xmlns="http://www.w3.org/2000/svg" width="24" height="24" viewBox="0 0 24 24">
  <path fill="#004E8C" fill-rule="evenodd" d="M6,4 L18,4 C19.1045695,4 20,4.8954305 20,6 L20,18 C20,19.1045695 19.1045695,20 18,20 L6,20 C4.8954305,20 4,19.1045695 4,18 L4,6 C4,4.8954305 4.8954305,4 6,4 Z M7.23501729,8.25823992 C7.10019612,8.27737321 7,8.39279273 7,8.52896479 L7,15.4976936 C7,15.634241 7.10073437,15.749858 7.23599559,15.7685555 L14.1891206,16.7297031 C14.2015275,16.7314181 14.2140376,16.7322787 14.2265625,16.7322787 C14.3775779,16.7322787 14.5,16.6098565 14.5,16.4588412 L14.5,7.54220465 C14.5,7.52935007 14.4990935,7.51651149 14.4972874,7.50378444 C14.4760685,7.35426722 14.3376595,7.25026089 14.1881423,7.27147978 L7.23501729,8.25823992 Z M15.125,8.875 L15.125,15.125 L16.6875,15.125 C16.860089,15.125 17,14.985089 17,14.8125 L17,9.1875 C17,9.01491102 16.860089,8.875 16.6875,8.875 L15.125,8.875 Z M10.8029296,11.6021485 L10.011914,14.4000001 L9.17695308,14.4000001 L8.05781245,10.172461 L8.97773433,10.172461 L9.63691401,13.1519532 L9.68378901,13.1519532 L10.4542968,10.172461 L11.2013671,10.172461 L11.9865234,13.1519532 L12.0333984,13.1519532 L12.6867187,10.172461 L13.6007812,10.172461 L12.4787109,14.4000001 L11.6496093,14.4000001 L10.8498046,11.6021485 L10.8029296,11.6021485 Z"/>
</svg>
