<svg xmlns="http://www.w3.org/2000/svg" width="24" height="24" viewBox="0 0 24 24">
  <path fill="#FF8B00" fill-rule="evenodd" d="M6,4 L18,4 C19.1045695,4 20,4.8954305 20,6 L20,18 C20,19.1045695 19.1045695,20 18,20 L6,20 C4.8954305,20 4,19.1045695 4,18 L4,6 C4,4.8954305 4.8954305,4 6,4 Z M12.0195304,17.3333333 L12.0208637,17.3333333 C12.2135304,17.3326667 12.3955304,17.2493333 12.522197,17.1046667 L17.1695304,11.7713333 C17.3615304,11.5506667 17.3875304,11.23 17.2328637,10.9813333 L15.576197,8.31466667 C15.454197,8.11933333 15.240197,8 15.0095304,8 L9.11619704,8 C8.89353038,8 8.68553038,8.11133333 8.56153038,8.296 L6.77886371,10.9626667 C6.61153038,11.214 6.63286371,11.5466667 6.83286371,11.7733333 L11.5188637,17.1066667 C11.6448637,17.2506667 11.8275304,17.3333333 12.0195304,17.3333333 Z"/>
</svg>
