<svg xmlns="http://www.w3.org/2000/svg" width="24" height="24" viewBox="0 0 24 24">
  <path fill="#00B8D9" fill-rule="evenodd" d="M4,5.99406028 C4,4.8927712 4.89451376,4 5.99406028,4 L18.0059397,4 C19.1072288,4 20,4.89451376 20,5.99406028 L20,18.0059397 C20,19.1072288 19.1054862,20 18.0059397,20 L5.99406028,20 C4.8927712,20 4,19.1054862 4,18.0059397 L4,5.99406028 Z M10.6390377,14.4113575 L8.25328654,12.0986584 L10.8415492,9.58899608 C11.208659,9.23298281 11.2179061,8.64764153 10.8618928,8.28145646 C10.5068042,7.91434668 9.92146296,7.90509958 9.55435318,8.26111284 L6.28088059,11.4347168 C5.90637314,11.7981277 5.90637314,12.3991891 6.28088059,12.7626 L9.35184174,15.7392408 C9.71802681,16.0943293 10.3033681,16.0860069 10.6593814,15.7188972 C11.0144699,15.3527121 11.0052228,14.7664461 10.6390377,14.4113575 Z M17.8418023,11.2377536 L14.7708411,8.26111284 C14.4046561,7.90509958 13.8193148,7.91434668 13.4633015,8.28145646 C13.108213,8.64764153 13.1174601,9.23298281 13.4836451,9.58899608 L15.8693964,11.9016952 L13.2811337,14.4113575 C12.9140239,14.7664461 12.9047768,15.3517874 13.2607901,15.7188972 C13.6158786,16.0860069 14.2012199,16.0943293 14.5683297,15.7392408 L17.8418023,12.5656368 C18.2163098,12.2022259 18.2163098,11.6011645 17.8418023,11.2377536 Z"/>
</svg>
