<svg xmlns="http://www.w3.org/2000/svg" width="24" height="24" viewBox="0 0 24 24">
  <path fill="#CA5010" fill-rule="evenodd" d="M6,4 L18,4 C19.1045695,4 20,4.8954305 20,6 L20,18 C20,19.1045695 19.1045695,20 18,20 L6,20 C4.8954305,20 4,19.1045695 4,18 L4,6 C4,4.8954305 4.8954305,4 6,4 Z M7.23501729,8.25823992 C7.10019612,8.27737321 7,8.39279273 7,8.52896479 L7,15.4976936 C7,15.634241 7.10073437,15.749858 7.23599559,15.7685555 L14.1891206,16.7297031 C14.2015275,16.7314181 14.2140376,16.7322787 14.2265625,16.7322787 C14.3775779,16.7322787 14.5,16.6098565 14.5,16.4588412 L14.5,7.54220465 C14.5,7.52935007 14.4990935,7.51651149 14.4972874,7.50378444 C14.4760685,7.35426722 14.3376595,7.25026089 14.1881423,7.27147978 L7.23501729,8.25823992 Z M15.125,8.875 L15.125,15.125 L16.6875,15.125 C16.860089,15.125 17,14.985089 17,14.8125 L17,9.1875 C17,9.01491102 16.860089,8.875 16.6875,8.875 L15.125,8.875 Z M9.3126955,10.0724611 L11.0763674,10.0724611 C11.9464846,10.0724611 12.5412111,10.6554689 12.5412111,11.5343752 C12.5412111,12.4044924 11.9230471,12.9875002 11.0324221,12.9875002 L10.1974611,12.9875002 L10.1974611,14.3000002 L9.3126955,14.3000002 L9.3126955,10.0724611 Z M10.1974611,10.7990236 L10.1974611,12.2697268 L10.8390627,12.2697268 C11.3458986,12.2697268 11.6417971,12.0119143 11.6417971,11.5373049 C11.6417971,11.0568361 11.351758,10.7990236 10.8419924,10.7990236 L10.1974611,10.7990236 Z"/>
</svg>
