<svg xmlns="http://www.w3.org/2000/svg" width="24" height="24" viewBox="0 0 24 24">
  <path fill="#FF5630" fill-rule="evenodd" d="M6,4 L18,4 C19.1045695,4 20,4.8954305 20,6 L20,18 C20,19.1045695 19.1045695,20 18,20 L6,20 C4.8954305,20 4,19.1045695 4,18 L4,6 C4,4.8954305 4.8954305,4 6,4 Z M17,8.19498737 L17,7.44202967 C17,7.17052941 16.7700101,6.97353151 16.4863034,7.00290067 L10.3708395,7.63596971 C10.078747,7.66620695 9.85714286,7.90956042 9.85714286,8.18145383 L9.85714286,9.27898517 L9.85714286,12.7971082 C9.67608302,12.7432221 9.48427789,12.7142857 9.28571429,12.7142857 L9,12.7142857 C7.8954305,12.7142857 7,13.6097162 7,14.7142857 L7,15 C7,16.1045695 7.8954305,17 9,17 L9.28571429,17 C10.3902838,17 11.2857143,16.1045695 11.2857143,15 L11.2857143,14.7857143 L11.2857143,9.75953492 L15.5714286,9.31588042 L15.5714286,12.0828225 C15.3903687,12.0289364 15.1985636,12 15,12 L14.7142857,12 C13.6097162,12 12.7142857,12.8954305 12.7142857,14 L12.7142857,14.2857143 C12.7142857,15.3902838 13.6097162,16.2857143 14.7142857,16.2857143 L15,16.2857143 C16.1045695,16.2857143 17,15.3902838 17,14.2857143 L17,14.0714286 L17,8.19498737 Z"/>
</svg>
