<svg xmlns="http://www.w3.org/2000/svg" width="24" height="24" viewBox="0 0 24 24">
  <path fill="#5E6C84" fill-rule="evenodd" d="M6,4 L18,4 C19.1045695,4 20,4.8954305 20,6 L20,18 C20,19.1045695 19.1045695,20 18,20 L6,20 C4.8954305,20 4,19.1045695 4,18 L4,6 C4,4.8954305 4.8954305,4 6,4 Z M10,7 L10,9 L12,9 L12,7 L10,7 Z M12,9 L12,11 L14,11 L14,9 L12,9 Z M10,11 L10,13 L12,13 L12,11 L10,11 Z M12,13 L12,15 L14,15 L14,13 L12,13 Z M9.69303742,15 L9.69303742,17 L11.6930374,17 L11.6930374,15 L9.69303742,15 Z"/>
</svg>
