<svg xmlns="http://www.w3.org/2000/svg" width="24" height="24" viewBox="0 0 24 24">
  <path fill="#6554C0" fill-rule="evenodd" d="M6,4 L18,4 C19.1045695,4 20,4.8954305 20,6 L20,18 C20,19.1045695 19.1045695,20 18,20 L6,20 C4.8954305,20 4,19.1045695 4,18 L4,6 C4,4.8954305 4.8954305,4 6,4 Z M16,7 C15.4477153,7 15,7.44771525 15,8 L15,16 C15,16.5522847 15.4477153,17 16,17 C16.5522847,17 17,16.5522847 17,16 L17,8 C17,7.44771525 16.5522847,7 16,7 Z M12,10 C11.4477153,10 11,10.4477153 11,11 L11,16 C11,16.5522847 11.4477153,17 12,17 C12.5522847,17 13,16.5522847 13,16 L13,11 C13,10.4477153 12.5522847,10 12,10 Z M8,13 C7.44771525,13 7,13.4477153 7,14 L7,16 C7,16.5522847 7.44771525,17 8,17 C8.55228475,17 9,16.5522847 9,16 L9,14 C9,13.4477153 8.55228475,13 8,13 Z"/>
</svg>
