<svg xmlns="http://www.w3.org/2000/svg" width="50" height="64" viewBox="0 0 50 64">
  <g fill="none" fill-rule="evenodd">
    <path fill="#FFF" stroke="#091E42" stroke-opacity=".08" d="M3,-0.5 L32.4482107,-0.5 C33.3733699,-0.5 34.2608971,-0.133701872 34.9167529,0.518810892 L47.4685422,13.0066223 C48.1287916,13.6635063 48.5,14.5564545 48.5,15.4878114 L48.5,59 C48.5,60.9329966 46.9329966,62.5 45,62.5 L3,62.5 C1.06700338,62.5 -0.5,60.9329966 -0.5,59 L-0.5,3 C-0.5,1.06700338 1.06700338,-0.5 3,-0.5 Z" transform="translate(1 1)"/>
    <path fill="#2196F3" d="M28.5568306,23.8331318 L34.0133661,33.3419352 L27.6881383,33.4064335 L22.2316028,23.8969583 L28.5568306,23.8331318 Z M15.6666667,34.4599065 L18.883699,39.9395787 L24.3402346,30.4301035 L21.1232022,24.9504313 L15.6666667,34.4599065 Z M23.4201286,34.6238398 L20.3126009,40.1666667 L31.2256721,40.1666667 L34.3331998,34.6238398 L23.4201286,34.6238398 Z"/>
  </g>
</svg>
