<?xml version="1.0" encoding="UTF-8"?>
<svg width="18px" height="16px" viewBox="0 0 18 16" version="1.1" xmlns="http://www.w3.org/2000/svg" xmlns:xlink="http://www.w3.org/1999/xlink">
    <!-- Generator: Sketch 44.1 (41455) - http://www.bohemiancoding.com/sketch -->
    <title>Combined Shape</title>
    <desc>Created with Sketch.</desc>
    <defs></defs>
    <g id="Symbols" stroke="none" stroke-width="1" fill="none" fill-rule="evenodd">
        <g id="size-tool-lines" transform="translate(-11.000000, -8.000000)" fill="currentcolor">
            <path d="M11,8.49538898 C11,8.2217932 11.2275865,8 11.5002097,8 L28.4997903,8 C28.7760485,8 29,8.2157526 29,8.49538898 L29,10.504611 C29,10.7782068 28.7724135,11 28.4997903,11 L11.5002097,11 C11.2239515,11 11,10.7842474 11,10.504611 L11,8.49538898 Z M11,16.5046844 C11,16.2259549 11.2275865,16 11.5002097,16 L28.4997903,16 C28.7760485,16 29,16.214035 29,16.5046844 L29,17.4953156 C29,17.7740451 28.7724135,18 28.4997903,18 L11.5002097,18 C11.2239515,18 11,17.785965 11,17.4953156 L11,16.5046844 Z M11,23.2523422 C11,23.1129775 11.1149445,23 11.2544537,23 L28.7455463,23 C28.8860772,23 29,23.1070175 29,23.2523422 L29,23.7476578 C29,23.8870225 28.8850555,24 28.7455463,24 L11.2544537,24 C11.1139228,24 11,23.8929825 11,23.7476578 L11,23.2523422 Z" id="Combined-Shape"></path>
        </g>
    </g>
</svg>