<?xml version="1.0" encoding="UTF-8" standalone="no"?>
<svg width="24px" height="24px" viewBox="0 0 24 24" version="1.1" xmlns="http://www.w3.org/2000/svg" xmlns:xlink="http://www.w3.org/1999/xlink">
    <!-- Generator: Sketch 46.2 (44496) - http://www.bohemiancoding.com/sketch -->
    <title>icons/global-atlassian</title>
    <desc>Created with Sketch.</desc>
    <defs>
        <linearGradient x1="99.3448074%" y1="16.2727563%" x2="45.7955414%" y2="89.3214068%" id="linearGradient-1">
            <stop stop-color="inherit" stop-opacity="0.4" offset="0%"></stop>
            <stop stop-color="inherit" offset="100%"></stop>
        </linearGradient>
    </defs>
    <g id="Global" stroke="none" stroke-width="1" fill="none" fill-rule="evenodd">
        <g id="icons/global-atlassian" fill-rule="nonzero">
            <path d="M8.7026087,11.4753467 C8.46608696,11.2223032 8.09391304,11.2362162 7.93565217,11.5623032 L4.04956522,19.3301293 C3.97749017,19.4741375 3.9851743,19.6452073 4.0698702,19.7821737 C4.15456609,19.91914 4.30417962,20.0024449 4.46521739,20.0023032 L9.87652174,20.0023032 C10.0546254,20.0057557 10.2178394,19.9033201 10.2921739,19.7414336 C11.4591304,17.3336075 10.7521739,13.6649119 8.7026087,11.4753467 Z" id="Shape" fill="url(#linearGradient-1)"></path>
            <path d="M11.553913,4.40945905 C9.38,7.85293731 9.52347826,11.6668504 10.9556522,14.529459 L13.5643478,19.7468504 C13.6418811,19.9058962 13.8030635,20.0070566 13.98,20.0077199 L19.3913043,20.0077199 C19.5523421,20.0078617 19.7019556,19.9245568 19.7866515,19.7875904 C19.8713474,19.650624 19.8790316,19.4795542 19.8069565,19.335546 C19.8069565,19.335546 12.5269565,4.76945905 12.3478261,4.40685035 C12.18,4.08076339 11.7643478,4.07380687 11.553913,4.40945905 Z" id="Shape" fill="currentColor"></path>
        </g>
    </g>
</svg>
