<svg xmlns="http://www.w3.org/2000/svg" width="32" height="32" viewBox="0 0 32 32">
  <defs>
    <linearGradient id="bamboo-large-a" x1="50%" x2="62.422%" y1="-12.568%" y2="75.371%">
      <stop offset="0%" stop-color="#42526E" stop-opacity=".4"/>
      <stop offset="100%" stop-color="#42526E"/>
    </linearGradient>
  </defs>
  <g fill="none" fill-rule="evenodd">
    <path fill="#42526E" fill-rule="nonzero" d="M21.4183784 16.84C21.0533146 16.8452059 20.7488244 17.1205427 20.707027 17.4832432 20.3786078 19.8329488 18.3687624 21.5812721 15.9962162 21.5810811L17.5627027 28.7362162C23.2446372 27.9932362 27.6149521 23.3475013 28.0097297 17.6308108 28.018953 17.4268754 27.9453917 17.2278639 27.8057456 17.0789555 27.6660995 16.9300472 27.4722152 16.8438744 27.2681081 16.84L21.4183784 16.84zM17.2032432 16.6473237L25.5767568 9.45813456C25.739649 9.31447712 25.832966 9.10775662 25.832966 8.89056699 25.832966 8.67337736 25.739649 8.46665686 25.5767568 8.32299943L17.2032432 1.14894537C16.977777.981715141 16.6782658.953030716 16.4251575 1.07442748 16.1720492 1.19582425 16.0069354 1.4473539 15.9962162 1.72786429L15.9962162 16.1062427C16.0198344 16.3799467 16.1899297 16.6193544 16.4406153 16.7317307 16.691301 16.844107 16.9831994 16.8118 17.2032432 16.6473237zM4.07351351 18.4064865C4.87141743 24.3822798 9.96739031 28.8459057 15.9962162 28.8497297L15.9962162 21.5810811C13.3759469 21.5810886 11.2500424 19.4602619 11.2437838 16.84L4.07351351 18.4064865z"/>
    <path fill="url(#bamboo-large-a)" fill-rule="nonzero" d="M3.96,16.896171 L11.2460736,16.896171 C11.2544163,14.2765644 13.3803801,12.1573712 16,12.1573845 L14.436806,5 C8.49929965,5.77366655 4.03411925,10.7953814 3.96,16.7826218 L3.96,16.896171 Z"/>
  </g>
</svg>
