<?xml version="1.0" encoding="UTF-8" standalone="no"?>
<svg width="24px" height="24px" viewBox="0 0 24 24" version="1.1" xmlns="http://www.w3.org/2000/svg" xmlns:xlink="http://www.w3.org/1999/xlink">
    <!-- Generator: Sketch 46.2 (44496) - http://www.bohemiancoding.com/sketch -->
    <title>icons/bitbucket</title>
    <desc>Created with Sketch.</desc>
    <defs>
        <linearGradient x1="97.5261587%" y1="25.4884818%" x2="46.9265964%" y2="78.7761408%" id="linearGradient-1">
            <stop stop-color="#42526E" stop-opacity="0.4" offset="0%"></stop>
            <stop stop-color="#42526E" offset="100%"></stop>
        </linearGradient>
    </defs>
    <g id="Global" stroke="none" stroke-width="1" fill="none" fill-rule="evenodd">
        <g id="icons/bitbucket">
            <path d="M20.0634375,9.29684211 L14.784375,9.29684211 L13.8984375,14.4561404 L10.2421875,14.4561404 L5.925,19.5733333 C6.06183577,19.6914253 6.23629527,19.7570932 6.4171875,19.7585965 L17.8753125,19.7585965 C18.1539709,19.762176 18.3932465,19.5615763 18.4378125,19.2870175 L20.0634375,9.29684211 Z" id="Shape" fill="url(#linearGradient-1)" fill-rule="nonzero"></path>
            <path d="M3.84375,4 C3.67757753,3.99786096 3.51896225,4.06916843 3.41045263,4.19479423 C3.30194302,4.32042002 3.25464637,4.48750476 3.28125,4.65122807 L5.6690625,19.1185965 C5.69841052,19.2946126 5.78904307,19.4546499 5.925,19.5705263 L5.925,19.5705263 C6.06183577,19.6886183 6.23629527,19.7542862 6.4171875,19.7557895 L10.8496875,14.4561404 L10.228125,14.4561404 L9.2521875,9.29684211 L20.0634375,9.29684211 L20.8228125,4.65684211 C20.8510092,4.49371188 20.8056321,4.3264772 20.6988105,4.19983991 C20.5919888,4.07320262 20.4346131,4.00007351 20.26875,4 L3.84375,4 Z" id="Shape" fill="#42526E" fill-rule="nonzero"></path>
        </g>
    </g>
</svg>
