<?xml version="1.0" encoding="UTF-8" standalone="no"?>
<svg width="24px" height="24px" viewBox="0 0 24 24" version="1.1" xmlns="http://www.w3.org/2000/svg" xmlns:xlink="http://www.w3.org/1999/xlink">
    <!-- Generator: Sketch 46.2 (44496) - http://www.bohemiancoding.com/sketch -->
    <title>icons/confluence</title>
    <desc>Created with Sketch.</desc>
    <defs>
        <linearGradient x1="99.140087%" y1="112.745465%" x2="35.1847434%" y2="39.2902291%" id="linearGradient-1">
            <stop stop-color="#42526E" stop-opacity="0.4" offset="0%"></stop>
            <stop stop-color="#42526E" offset="100%"></stop>
        </linearGradient>
        <linearGradient x1="14.1838118%" y1="5.80047897%" x2="60.1984309%" y2="69.6572503%" id="linearGradient-2">
            <stop stop-color="#42526E" stop-opacity="0.4" offset="0%"></stop>
            <stop stop-color="#42526E" offset="100%"></stop>
        </linearGradient>
    </defs>
    <g id="Global" stroke="none" stroke-width="1" fill="none" fill-rule="evenodd">
        <g id="icons/confluence" fill-rule="nonzero">
            <path d="M4.8075,16.0175 C4.645,16.2825 4.4625,16.59 4.3075,16.835 C4.16876297,17.0694483 4.24324256,17.3718132 4.475,17.515 L7.725,19.515 C7.83908168,19.585436 7.97667193,19.6071041 8.10687997,19.5751397 C8.237088,19.5431753 8.3490035,19.4602566 8.4175,19.345 C8.5475,19.1275 8.715,18.845 8.8975,18.5425 C10.185,16.4175 11.48,16.6775 13.815,17.7925 L17.0375,19.325 C17.1595475,19.3830911 17.2999147,19.3892941 17.4266107,19.3421952 C17.5533066,19.2950964 17.6555361,19.1987087 17.71,19.075 L19.2575,15.575 C19.3668334,15.3250261 19.2555848,15.0335547 19.0075,14.92 C18.3275,14.6 16.975,13.9625 15.7575,13.375 C11.3775,11.25 7.655,11.39 4.8075,16.0175 Z" id="Shape" fill="url(#linearGradient-1)"></path>
            <path d="M19.38,8.0775 C19.5425,7.8125 19.725,7.505 19.88,7.26 C20.018737,7.0255517 19.9442574,6.72318679 19.7125,6.58 L16.4625,4.58 C16.3468608,4.50294613 16.2043712,4.47749168 16.0692059,4.50974164 C15.9340406,4.54199161 15.818393,4.62903671 15.75,4.75 C15.62,4.9675 15.4525,5.25 15.27,5.5525 C13.9825,7.6775 12.6875,7.4175 10.3525,6.3025 L7.14,4.7725 C7.01795251,4.71440887 6.87758527,4.70820588 6.75088931,4.75530475 C6.62419336,4.80240362 6.5219639,4.89879126 6.4675,5.0225 L4.92,8.5225 C4.81066661,8.7724739 4.92191522,9.06394526 5.17,9.1775 C5.85,9.4975 7.2025,10.135 8.42,10.7225 C12.81,12.845 16.5325,12.705 19.38,8.0775 Z" id="Shape" fill="url(#linearGradient-2)"></path>
        </g>
    </g>
</svg>
