<svg xmlns="http://www.w3.org/2000/svg" width="32" height="32" viewBox="0 0 32 32">
  <defs>
    <linearGradient id="crowd-large-a" x1="81.886%" x2="61.253%" y1="104.388%" y2="47.359%">
      <stop offset="0%" stop-color="#42526E" stop-opacity=".4"/>
      <stop offset="100%" stop-color="#42526E"/>
    </linearGradient>
  </defs>
  <g fill="none" fill-rule="evenodd">
    <path fill="#42526E" fill-rule="nonzero" d="M17.2105953,4.4430623 L16.0047274,4 L4.3263437,8.29807349 C4.01250568,8.41322669 3.80836464,8.71720314 3.82051424,9.0512794 L4.06493694,15.6743223 C4.24437717,21.1505723 6.99579403,25.2234224 11.3112208,27.8832731 C11.5035733,28.0027564 11.7385461,28.0321814 11.954422,27.9638195 C12.170298,27.8954577 12.3455016,27.7361412 12.4340145,27.5277156 L14.9502391,21.5925269 C14.9928554,21.4922749 14.9907958,21.3786243 14.9445749,21.2799823 C14.8983541,21.1813402 14.8123399,21.1070283 14.7080317,21.0756209 C12.5677028,20.4359646 11.2214475,18.3220853 11.5469101,16.1120531 C11.8723727,13.902021 13.7708635,12.2659825 16.0047274,12.2704962 C16.1115546,12.2704962 16.2175204,12.2741884 16.3226246,12.2815728 L17.2105953,4.4430623 Z"/>
    <path fill="url(#crowd-large-a)" fill-rule="nonzero" d="M16,12.2711324 C18.2325016,12.2695108 20.128454,13.9048022 20.453875,16.1126758 C20.779296,18.3205494 19.4357245,20.4329791 17.2976251,21.0750882 C17.1932719,21.106498 17.1072205,21.1808157 17.0609797,21.2794653 C17.0147389,21.3781149 17.0126784,21.4917743 17.0553131,21.592034 L19.5726245,27.5276793 C19.6611757,27.7361209 19.836455,27.8954496 20.0524241,27.9638168 C20.2683933,28.0321839 20.5034675,28.0027566 20.6959032,27.8832641 C25.0131938,25.2246858 27.7657991,21.1500454 27.9449474,15.6737434 L28.1894757,9.05166797 C28.2017396,8.71775743 27.9978483,8.41381687 27.6841665,8.29840413 L16,4 L16,12.2711324 Z"/>
  </g>
</svg>
