<svg xmlns="http://www.w3.org/2000/svg" width="32" height="32" viewBox="0 0 32 32">
  <defs>
    <linearGradient id="fisheye-large-a" x1="-18.44%" x2="55.632%" y1="30.195%" y2="82.533%">
      <stop offset="0%" stop-color="#42526E" stop-opacity=".4"/>
      <stop offset="100%" stop-color="#42526E"/>
    </linearGradient>
  </defs>
  <g fill="none" fill-rule="evenodd">
    <path fill="#42526E" fill-rule="nonzero" d="M28.9482912,16.3969732 C29.0494202,16.1874975 29.0494202,15.9418512 28.9482912,15.7323755 C28.0445795,13.87 23.0153875,5.05 15.271387,5.05 C11.1606012,5.05 7.92413793,7.67835249 7.92413793,11.4331418 C7.92413793,14.3018008 9.84911719,16.3894636 12.1267644,16.3894636 C13.1953341,16.4219592 14.2312169,16.0106906 14.9981377,15.2494643 C15.7650585,14.4882379 16.1976133,13.4419721 16.1971404,12.3493103 C16.1982439,12.087584 16.1623618,11.8270665 16.0906053,11.5758238 C17.9274176,12.5708429 19.7642298,14.4707663 20.9214216,16.1641762 C20.8406018,16.3118646 20.7561085,16.459553 20.6679415,16.6072414 L28.8454297,16.6072414 L28.9482912,16.3969732 Z"/>
    <path fill="url(#fisheye-large-a)" fill-rule="nonzero" d="M20.8745661,16.2436867 C19.6026629,18.5073057 17.6118579,20.9257652 14.6588304,20.9257652 C12.3586913,20.8948672 10.4228798,19.1951684 10.0947256,16.9183484 C10.0429281,16.5518808 9.72748253,16.2805976 9.35739038,16.2842401 L3.73889619,16.2842401 C3.53474847,16.2838084 3.33955851,16.3680355 3.19981701,16.5168602 C3.06007551,16.6656849 2.98829091,16.8657857 3.001561,17.0695021 C3.34508885,23.2232438 8.45134634,28.027989 14.6145903,27.9968097 C21.6192747,27.9968097 25.7704718,22.9608103 28.9373265,16.4538272 C28.968929,16.3861379 28.9900614,16.3140391 29,16.24 L20.8745661,16.2436867 Z"/>
  </g>
</svg>
