<?xml version="1.0" encoding="UTF-8" standalone="no"?>
<svg width="24px" height="24px" viewBox="0 0 24 24" version="1.1" xmlns="http://www.w3.org/2000/svg" xmlns:xlink="http://www.w3.org/1999/xlink">
    <!-- Generator: Sketch 46.2 (44496) - http://www.bohemiancoding.com/sketch -->
    <title>icons/hipchat</title>
    <desc>Created with Sketch.</desc>
    <defs>
        <linearGradient x1="49.9923722%" y1="94.9735467%" x2="49.9923722%" y2="39.843954%" id="linearGradient-1">
            <stop stop-color="#42526E" stop-opacity="0.4" offset="0%"></stop>
            <stop stop-color="#42526E" offset="100%"></stop>
        </linearGradient>
    </defs>
    <g id="Global" stroke="none" stroke-width="1" fill="none" fill-rule="evenodd">
        <g id="icons/hipchat" fill-rule="nonzero" fill="url(#linearGradient-1)">
            <path d="M17.225,16.7225 C17.225,16.7225 17.295,16.675 17.41,16.585 C19.085,15.29 20.1375,13.41 20.1375,11.3175 C20.1375,7.415 16.4675,4.25 11.9425,4.25 C7.4175,4.25 3.75,7.415 3.75,11.3175 C3.75,15.22 7.4175,18.39 11.9425,18.39 C12.5202659,18.3900853 13.0968305,18.3373661 13.665,18.2325 L13.8425,18.2 C14.995,18.95 16.67,19.56 18.135,19.56 C18.5925,19.56 18.805,19.1875 18.515,18.81 C18.0725,18.25 17.4625,17.3925 17.225,16.7225 Z M16.225,13.6325 C15.7375,14.3625 14.225,15.605 11.955,15.605 L11.925,15.605 C9.6525,15.605 8.14,14.355 7.655,13.6325 C7.55743089,13.5254021 7.49239249,13.3927237 7.4675,13.25 C7.45991855,13.1592905 7.48985685,13.069439 7.55033111,13.0014054 C7.61080536,12.9333719 7.69652719,12.8931057 7.7875,12.89 C7.86741877,12.8926284 7.94479816,12.9187114 8.01,12.965 C9.1206481,13.8689134 10.5080131,14.3640226 11.94,14.3675 L11.94,14.3675 C13.3789093,14.3829635 14.7754531,13.8807756 15.875,12.9525 C15.9339455,12.8992722 16.0105786,12.8698665 16.09,12.87 C16.2699014,12.8699948 16.4161267,13.0151038 16.4175,13.195 C16.3964857,13.3548673 16.3325547,13.5060555 16.2325,13.6325 L16.225,13.6325 Z" id="Shape"></path>
        </g>
    </g>
</svg>