<svg xmlns="http://www.w3.org/2000/svg" width="32" height="32" viewBox="0 0 32 32">
  <defs>
    <linearGradient id="jira-software-large-a" x1="76.93%" x2="0%" y1="13.688%" y2="57.886%">
      <stop offset="0%" stop-color="#42526E" stop-opacity=".4"/>
      <stop offset="100%" stop-color="#42526E"/>
    </linearGradient>
    <linearGradient id="jira-software-large-b" x1="87.955%" x2="7.007%" y1="45.217%" y2="100%">
      <stop offset="0%" stop-color="#42526E"/>
      <stop offset="100%" stop-color="#091E42" stop-opacity="0"/>
    </linearGradient>
  </defs>
  <g fill="none" fill-rule="evenodd">
    <path fill="#42526E" fill-rule="nonzero" d="M15.9669691 29.3616152C17.2195568 28.1097726 17.9233158 26.4114623 17.9233158 24.6405626 17.9233158 22.8696629 17.2195568 21.1713527 15.9669691 19.91951L7.26805808 11.2489111 3.31143376 15.2055354C2.89743442 15.6200502 2.89743442 16.291565 3.31143376 16.7060799L15.9669691 29.3616152zM28.6225045 15.2055354L15.9669691 2.55 15.9280399 2.58892922C13.3485687 5.19994003 13.3612164 9.40374108 15.9563521 11.9991833L24.6623412 20.6662432 28.6225045 16.7060799C29.0365039 16.291565 29.0365039 15.6200502 28.6225045 15.2055354z"/>
    <path fill="url(#jira-software-large-a)" fill-rule="nonzero" d="M15.9669691,11.9921053 C13.3718335,9.39666304 13.3591857,5.19286199 15.938657,2.58185118 L6.91061706,11.6063521 L11.6316697,16.3274047 L15.9669691,11.9921053 Z"/>
    <path fill="url(#jira-software-large-b)" fill-rule="nonzero" d="M20.2951906,15.5912886 L15.9669691,19.91951 C17.2195568,21.1713527 17.9233158,22.8696629 17.9233158,24.6405626 C17.9233158,26.4114623 17.2195568,28.1097726 15.9669691,29.3616152 L25.0162432,20.3123412 L20.2951906,15.5912886 Z"/>
  </g>
</svg>
