<?xml version="1.0" encoding="UTF-8"?>
<svg width="18px" height="20px" viewBox="0 0 18 20" version="1.1" xmlns="http://www.w3.org/2000/svg" xmlns:xlink="http://www.w3.org/1999/xlink">
    <!-- Generator: Sketch 51.2 (57519) - http://www.bohemiancoding.com/sketch -->
    <title>icons/roadmap</title>
    <desc>Created with Sketch.</desc>
    <defs></defs>
    <g id="Page-1" stroke="none" stroke-width="1" fill="none" fill-rule="evenodd">
        <path d="M3,0 L13,0 C14.6568542,0 16,1.34314575 16,3 C16,4.65685425 14.6568542,6 13,6 L3,6 C1.34314575,6 0,4.65685425 0,3 C0,1.34314575 1.34314575,0 3,0 Z M3,2 C2.44771525,2 2,2.44771525 2,3 C2,3.55228475 2.44771525,4 3,4 L13,4 C13.5522847,4 14,3.55228475 14,3 C14,2.44771525 13.5522847,2 13,2 L3,2 Z M7,7 L15,7 C16.6568542,7 18,8.3431458 18,10 C18,11.6568542 16.6568542,13 15,13 L7,13 C5.34314575,13 4,11.6568542 4,10 C4,8.3431458 5.34314575,7 7,7 Z M7,9 C6.44771525,9 6,9.4477153 6,10 C6,10.5522847 6.44771525,11 7,11 L15,11 C15.5522847,11 16,10.5522847 16,10 C16,9.4477153 15.5522847,9 15,9 L7,9 Z M3,14 L9,14 C10.6568542,14 12,15.3431458 12,17 C12,18.6568542 10.6568542,20 9,20 L3,20 C1.34314575,20 0,18.6568542 0,17 C0,15.3431458 1.34314575,14 3,14 Z M3,16 C2.44771525,16 2,16.4477153 2,17 C2,17.5522847 2.44771525,18 3,18 L9,18 C9.5522847,18 10,17.5522847 10,17 C10,16.4477153 9.5522847,16 9,16 L3,16 Z" id="path-1" fill="#42526E" fill-rule="nonzero"></path>
    </g>
</svg>