<svg xmlns="http://www.w3.org/2000/svg" width="32" height="32" viewBox="0 0 32 32">
  <defs>
    <linearGradient id="sourcetree-large-a" x1="46.359%" x2="46.359%" y1="100%" y2="50%">
      <stop offset="0%" stop-color="#42526E" stop-opacity=".4"/>
      <stop offset="100%" stop-color="#42526E"/>
    </linearGradient>
  </defs>
  <g fill="none" fill-rule="evenodd">
    <path fill="#42526E" fill-rule="nonzero" d="M18.94,20.6933429 C18.94,19.0751486 17.6281943,17.7633429 16.01,17.7633429 C14.8649638,17.7633429 13.8069067,17.1524734 13.2343885,16.1608429 C12.6618704,15.1692124 12.6618704,13.9474733 13.2343885,12.9558429 C13.8069067,11.9642124 14.8649638,11.3533429 16.01,11.3533429 C16.2226858,11.3534641 16.4348352,11.3746791 16.6433333,11.4166762 L16.6433333,5.10334289 C16.4366667,5.08000956 16.2266667,5.08000956 16.0133333,5.08000956 C11.3469524,5.07342884 7.37026258,8.46482526 6.6400496,13.0737236 C5.90983662,17.6826219 8.64345073,22.1371684 13.0833333,23.5733429 L13.0833333,28.3333429 C13.0833333,28.7015327 13.3818102,29.0000096 13.75,29.0000096 L18.2733333,29.0000096 C18.6415232,29.0000096 18.94,28.7015327 18.94,28.3333429 L18.94,20.6933429 Z"/>
    <path fill="url(#sourcetree-large-a)" fill-rule="nonzero" d="M16.01,5.08 L16.01,11.3542376 C17.7793851,11.3542376 19.2137552,12.7886077 19.2137552,14.5579928 C19.2137552,16.327378 17.7793851,17.761748 16.01,17.761748 C16.7867825,17.761748 17.53175,18.0703237 18.0810182,18.6195918 C18.6302864,19.16886 18.938862,19.9138275 18.938862,20.69061 L18.938862,23.5728235 C23.3786589,22.1369475 26.1124182,17.6827184 25.382489,13.0739507 C24.6525599,8.46518308 20.6762079,5.07369051 16.01,5.08 Z"/>
  </g>
</svg>
