<svg xmlns="http://www.w3.org/2000/svg" width="24" height="24" viewBox="0 0 24 24">
  <path fill="#42526E" d="M15.5646416,21.6136601 L12.0000836,19.6625688 L8.43552564,21.6136601 C6.45027322,22.700305 4.71015043,21.3803714 5.0887651,19.0820669 L5.76953509,14.9495891 L2.88574713,12.0229521 C1.27964418,10.3929847 1.947647,8.26206635 4.1640959,7.92674825 L8.14939285,7.32382786 L9.93167183,3.56397538 C10.926952,1.46435649 13.0838998,1.48689654 14.0773088,3.58256799 L15.8507743,7.32382786 L19.8360713,7.92674825 C22.055651,8.26253999 22.7182576,10.3952838 21.1144201,12.0229521 L18.2306321,14.9495891 L18.9114021,19.0820669 C19.2905516,21.3836178 17.5470937,22.6987723 15.5646416,21.6136601 Z M15.9312709,14.2242178 L19.7926374,10.2246217 C19.9071606,10.1059988 19.8612966,9.98841909 19.69832,9.96325426 L14.3888463,9.14343085 L12.1284348,4.27653318 C12.0575022,4.12380812 11.9409495,4.12714169 11.8715652,4.27653318 L9.61115365,9.14343085 L4.30167999,9.96325426 C4.13506673,9.98898063 4.09262575,10.1057775 4.20736258,10.2246217 L8.06872911,14.2242178 L7.18399377,19.7056375 C7.15775366,19.8682094 7.2567043,19.9328375 7.3979657,19.8539215 L12,17.282985 L16.6020343,19.8539215 C16.7464479,19.9345984 16.8422953,19.8685127 16.8160062,19.7056375 L15.9312709,14.2242178 Z"/>
</svg>
