<svg xmlns="http://www.w3.org/2000/svg" xmlns:xlink="http://www.w3.org/1999/xlink" viewBox="0 0 188.6 203.35"><defs><style>.cls-1{fill:url(#linear-gradient);}.cls-2{fill:url(#linear-gradient-2);}.cls-3,.cls-4,.cls-5,.cls-6{fill:none;stroke-linecap:round;stroke-miterlimit:10;}.cls-3{stroke:#344563;}.cls-3,.cls-4{stroke-width:4.05px;}.cls-4,.cls-6{stroke:#0065ff;}.cls-5{stroke:#253858;}.cls-5,.cls-6{stroke-width:4px;}.cls-7{fill:#253858;}.cls-8{fill:url(#linear-gradient-3);}.cls-9{fill:url(#B300-B100);}.cls-10{clip-path:url(#clip-path);}.cls-11{fill:#f15538;}.cls-12{clip-path:url(#clip-path-2);}.cls-13{fill:#e64418;}</style><linearGradient id="linear-gradient" x1="72.32" y1="181.37" x2="171.16" y2="82.53" gradientUnits="userSpaceOnUse"><stop offset="0" stop-color="#0065ff"/><stop offset="0.72" stop-color="#66a3ff"/></linearGradient><linearGradient id="linear-gradient-2" x1="30.8" y1="168.01" x2="102.91" y2="95.9" gradientUnits="userSpaceOnUse"><stop offset="0" stop-color="#0049b0"/><stop offset="1" stop-color="#0065ff"/></linearGradient><linearGradient id="linear-gradient-3" x1="65.29" y1="63.4" x2="99.75" y2="28.95" xlink:href="#linear-gradient-2"/><linearGradient id="B300-B100" x1="92.85" y1="59.37" x2="119.24" y2="32.98" gradientUnits="userSpaceOnUse"><stop offset="0" stop-color="#0065ff"/><stop offset="1" stop-color="#66a3ff"/></linearGradient><clipPath id="clip-path"><path id="_Clipping_Path_" data-name="&lt;Clipping Path&gt;" class="cls-1" d="M128.29,67.37a34,34,0,0,0-34,34v102h0a68,68,0,0,0,68-68V78.1a10.73,10.73,0,0,0-10.73-10.73Z"/></clipPath><clipPath id="clip-path-2"><path id="_Clipping_Path_2" data-name="&lt;Clipping Path&gt;" class="cls-2" d="M26.31,78.1v57.26a68,68,0,0,0,68,68h0v-102a34,34,0,0,0-34-34H37A10.73,10.73,0,0,0,26.31,78.1Z"/></clipPath></defs><title>Bug</title><g id="Layer_2" data-name="Layer 2"><g id="Software"><path class="cls-3" d="M94.3,45.31A25.36,25.36,0,0,1,76.37,2"/><path class="cls-4" d="M112.23,2A25.36,25.36,0,0,1,94.3,45.31"/><path class="cls-5" d="M93.16,102.25h-68A23.2,23.2,0,0,1,2,79.06H2"/><path class="cls-6" d="M186.6,79.06h0a23.2,23.2,0,0,1-23.2,23.2H93.16"/><line class="cls-6" x1="93.16" y1="128.51" x2="186.6" y2="128.51"/><line class="cls-5" x1="2" y1="128.51" x2="93.16" y2="128.51"/><path class="cls-5" d="M93.16,154.76h-68A23.2,23.2,0,0,0,2,178H2"/><path class="cls-6" d="M186.6,178h0a23.2,23.2,0,0,0-23.2-23.2H93.16"/><path class="cls-7" d="M89,55.13H99.64A40.91,40.91,0,0,1,140.56,96v21.38a0,0,0,0,1,0,0H48a0,0,0,0,1,0,0V96A40.91,40.91,0,0,1,89,55.13Z"/><path class="cls-8" d="M94.3,60.82H66a8,8,0,0,1-7.65-10.26A37.36,37.36,0,0,1,94.27,23.47h0Z"/><path class="cls-9" d="M94.27,23.47a37.36,37.36,0,0,1,36,27.43,7.94,7.94,0,0,1-7.74,9.92H94.3Z"/><path id="_Clipping_Path_3" data-name="&lt;Clipping Path&gt;" class="cls-1" d="M128.29,67.37a34,34,0,0,0-34,34v102h0a68,68,0,0,0,68-68V78.1a10.73,10.73,0,0,0-10.73-10.73Z"/><g class="cls-10"><polygon id="_Clipping_Path_4" data-name="&lt;Clipping Path&gt;" class="cls-11" points="138.12 104.77 119.79 86.43 94.3 111.93 68.8 86.43 50.47 104.77 75.97 130.26 50.47 155.75 68.8 174.09 94.3 148.59 119.79 174.09 138.12 155.75 112.63 130.26 138.12 104.77"/></g><path id="_Clipping_Path_5" data-name="&lt;Clipping Path&gt;" class="cls-2" d="M26.31,78.1v57.26a68,68,0,0,0,68,68h0v-102a34,34,0,0,0-34-34H37A10.73,10.73,0,0,0,26.31,78.1Z"/><g class="cls-12"><polygon id="_Clipping_Path_6" data-name="&lt;Clipping Path&gt;" class="cls-13" points="138.12 104.77 119.79 86.43 94.3 111.93 68.8 86.43 50.47 104.77 75.97 130.26 50.47 155.75 68.8 174.09 94.3 148.59 119.79 174.09 138.12 155.75 112.63 130.26 138.12 104.77"/></g></g></g></svg>