<svg xmlns="http://www.w3.org/2000/svg" xmlns:xlink="http://www.w3.org/1999/xlink" viewBox="0 0 221.19 220.42"><defs><style>.cls-1{fill:url(#linear-gradient);}.cls-2{fill:url(#linear-gradient-2);}.cls-3{fill:url(#linear-gradient-3);}.cls-4{clip-path:url(#clip-path);}.cls-5{fill:url(#linear-gradient-5);}.cls-6{opacity:0.1;fill:url(#linear-gradient-6);}.cls-10,.cls-11,.cls-7,.cls-8{fill:none;stroke-miterlimit:10;}.cls-10,.cls-7{stroke:#0065ff;}.cls-7{stroke-width:18.04px;}.cls-8{stroke:#00c7e5;stroke-width:16.74px;}.cls-9{fill:#ffbdad;}.cls-10,.cls-11{stroke-width:2px;}.cls-11{stroke:#fff;}.cls-12{fill:#ff7452;}</style><linearGradient id="linear-gradient" x1="56.3" y1="177.79" x2="178.7" y2="55.38" gradientTransform="translate(116.85 -48.94) rotate(45)" gradientUnits="userSpaceOnUse"><stop offset="0.13" stop-color="#b2d4ff"/><stop offset="0.25" stop-color="#b2d4ff"/><stop offset="0.67" stop-color="#2684ff"/></linearGradient><linearGradient id="linear-gradient-2" x1="119.23" y1="228.96" x2="229.73" y2="118.45" gradientUnits="userSpaceOnUse"><stop offset="0.44" stop-color="#b3bac5"/><stop offset="1" stop-color="#dfe1e5"/></linearGradient><linearGradient id="linear-gradient-3" x1="86.32" y1="257.43" x2="258.2" y2="85.54" gradientUnits="userSpaceOnUse"><stop offset="0.44" stop-color="#0052cc"/><stop offset="0.78" stop-color="#2684ff"/></linearGradient><clipPath id="clip-path"><ellipse class="cls-1" cx="117.5" cy="116.58" rx="86.55" ry="46.23" transform="translate(-48.02 117.23) rotate(-45)"/></clipPath><linearGradient id="linear-gradient-5" x1="58.85" y1="175.24" x2="176.16" y2="57.93" gradientUnits="userSpaceOnUse"><stop offset="0" stop-color="#4c9aff"/><stop offset="0.27" stop-color="#4c9aff"/><stop offset="0.67" stop-color="#0065ff"/></linearGradient><linearGradient id="linear-gradient-6" x1="144.15" y1="146.53" x2="144.15" y2="14.33" gradientUnits="userSpaceOnUse"><stop offset="0" stop-color="#091e42"/><stop offset="1" stop-color="#b3bac5" stop-opacity="0"/></linearGradient></defs><title>Celebration</title><g id="Layer_2" data-name="Layer 2"><g id="Objects"><path class="cls-2" d="M215.63,186.09v0L186.82,75.54,76.32,186l110.51,28.81h0l21.34,5.56a13,13,0,0,0,13-13Z"/><path class="cls-3" d="M218.85,198.45l-3.22-12.36v0L186.82,75.54,76.32,186l110.51,28.81h0l12.36,3.22A20.17,20.17,0,0,0,218.85,198.45Z"/><ellipse class="cls-1" cx="117.5" cy="116.58" rx="86.55" ry="46.23" transform="translate(-48.02 117.23) rotate(-45)"/><g class="cls-4"><g id="_Group_" data-name="&lt;Group&gt;"><path class="cls-5" d="M78.86,182.38c-8.54,0-15.27-2.4-20-7.14-7.75-7.75-9.27-21-4.29-37.44,5.22-17.18,16.87-35.41,32.8-51.35,22-22,48.35-35.66,68.78-35.66,8.54,0,15.27,2.4,20,7.14,7.75,7.75,9.27,21,4.29,37.44-5.22,17.18-16.87,35.41-32.8,51.35C125.65,168.72,99.29,182.38,78.86,182.38Z"/></g><path class="cls-6" d="M180.45,95.37c5-16.4,3.46-29.7-4.29-37.45-4.74-4.74-11.47-7.14-20-7.14-15.19,0-33.66,7.56-51.18,20.47a31.86,31.86,0,0,1,10.29,7.15c7.86,8.27,8.7,18.23,9.52,27.86.74,8.75,1.44,17,7,25.2,3.91,5.79,9.63,10.5,17,14.11C164.12,129.91,175.35,112.14,180.45,95.37Z"/></g><path class="cls-7" d="M29.49,160.1A33.43,33.43,0,0,1,44.36,147c14.59-6.39,28.34.76,30.17,1.75"/><path class="cls-7" d="M75.89,5.29A33.43,33.43,0,0,0,69.46,24C69.13,40,81,49.94,82.61,51.26"/><line class="cls-8" x1="55.16" y1="76.52" x2="91.8" y2="104.77"/><line class="cls-8" x1="152.4" y1="25.71" x2="163.97" y2="70.68"/><circle class="cls-9" cx="7.97" cy="123.8" r="7.97"/><circle class="cls-9" cx="111.7" cy="124.55" r="7.97"/><path class="cls-10" d="M52,112c-3.67-.87-2.28-6.72-6-7.59s-5.06,5-8.73,4.11-2.28-6.72-6-7.59-5.06,5-8.73,4.11-2.29-6.72-6-7.59"/><path class="cls-11" d="M135.14,115.11c-1.74-3.34,3.59-6.12,1.85-9.47s-7.07-.57-8.81-3.91,3.59-6.12,1.85-9.47-7.08-.57-8.82-3.92,3.59-6.13,1.85-9.47"/><rect class="cls-12" x="21.46" y="46.31" width="16.06" height="16.06" transform="translate(-7.54 4.83) rotate(-8.3)"/><rect class="cls-12" x="86.59" y="152.07" width="16.06" height="16.06" transform="translate(-22.13 15.34) rotate(-8.3)"/><rect class="cls-12" x="111.23" y="38.15" width="12.96" height="12.96" transform="translate(50.46 -61.79) rotate(36.94)"/></g></g></svg>