<svg xmlns="http://www.w3.org/2000/svg" xmlns:xlink="http://www.w3.org/1999/xlink" viewBox="0 0 173.85 253.74"><defs><style>.cls-1{fill:url(#linear-gradient);}.cls-2{fill:#e5e8ec;}.cls-3{fill:url(#linear-gradient-2);}.cls-4{fill:url(#linear-gradient-3);}.cls-5{fill:url(#linear-gradient-4);}.cls-6{fill:#5243aa;}.cls-6,.cls-8{opacity:0.37;}.cls-7{fill:#c0b6f2;}.cls-11,.cls-7{opacity:0.5;}.cls-8{fill:url(#linear-gradient-5);}.cls-9{fill:#8777d9;}.cls-10{fill:#2684ff;}.cls-11{fill:#b2d4ff;}.cls-12{opacity:0.8;}.cls-13{fill:#0052cc;}.cls-14{clip-path:url(#clip-path);}.cls-15{fill:url(#linear-gradient-7);}.cls-16{fill:url(#linear-gradient-8);}.cls-17{fill:url(#linear-gradient-9);}.cls-18{fill:url(#linear-gradient-10);}</style><linearGradient id="linear-gradient" x1="86.87" y1="74.84" x2="86.87" y2="44.68" gradientUnits="userSpaceOnUse"><stop offset="0" stop-color="#4c9aff"/><stop offset="0.42" stop-color="#196add"/><stop offset="0.67" stop-color="#0052cc"/></linearGradient><linearGradient id="linear-gradient-2" x1="18.09" y1="261.65" x2="155.76" y2="123.99" gradientUnits="userSpaceOnUse"><stop offset="0" stop-color="#dfe1e5"/><stop offset="0.58" stop-color="#f4f5f7"/><stop offset="1" stop-color="#f4f5f7"/></linearGradient><linearGradient id="linear-gradient-3" x1="86.93" y1="243.42" x2="86.93" y2="85.16" gradientUnits="userSpaceOnUse"><stop offset="0" stop-color="#fafbfc"/><stop offset="0.06" stop-color="#f9fafb"/><stop offset="0.41" stop-color="#f4f5f7"/><stop offset="1" stop-color="#dfe1e5"/></linearGradient><linearGradient id="linear-gradient-4" x1="41.77" y1="270.52" x2="133.72" y2="178.57" gradientUnits="userSpaceOnUse"><stop offset="0.59" stop-color="#8777d9"/><stop offset="1" stop-color="#8777d9"/></linearGradient><linearGradient id="linear-gradient-5" x1="102.81" y1="306.5" x2="236.47" y2="172.85" gradientTransform="matrix(1.09, 0.04, -0.04, 1, -68.97, -39.39)" gradientUnits="userSpaceOnUse"><stop offset="0" stop-color="#c0b6f2" stop-opacity="0"/><stop offset="1" stop-color="#c0b6f2"/></linearGradient><clipPath id="clip-path"><path id="_Clipping_Path_" data-name="&lt;Clipping Path&gt;" class="cls-1" d="M95.18,74.84H78.55L62.81,53.58A36.52,36.52,0,0,1,79,45.43c16.65-3.52,29.8,6.49,31.9,8.15Z"/></clipPath><linearGradient id="linear-gradient-7" x1="86.87" y1="74.84" x2="86.87" y2="35.81" xlink:href="#linear-gradient"/><linearGradient id="linear-gradient-8" x1="58.43" y1="53.58" x2="58.43" y2="18.04" gradientUnits="userSpaceOnUse"><stop offset="0" stop-color="#0052cc"/><stop offset="0.16" stop-color="#1061d7"/><stop offset="0.47" stop-color="#3a89f3"/><stop offset="0.6" stop-color="#4c9aff"/><stop offset="0.65" stop-color="#4c9aff" stop-opacity="0.98"/><stop offset="0.7" stop-color="#4c9aff" stop-opacity="0.94"/><stop offset="0.75" stop-color="#4c9aff" stop-opacity="0.86"/><stop offset="0.8" stop-color="#4c9aff" stop-opacity="0.75"/><stop offset="0.85" stop-color="#4c9aff" stop-opacity="0.61"/><stop offset="0.9" stop-color="#4c9aff" stop-opacity="0.44"/><stop offset="0.95" stop-color="#4c9aff" stop-opacity="0.24"/><stop offset="1" stop-color="#4c9aff" stop-opacity="0.01"/><stop offset="1" stop-color="#4c9aff" stop-opacity="0"/></linearGradient><linearGradient id="linear-gradient-9" x1="113.96" y1="53.58" x2="113.96" y2="18.04" gradientUnits="userSpaceOnUse"><stop offset="0" stop-color="#0052cc"/><stop offset="0.6" stop-color="#4c9aff"/></linearGradient><linearGradient id="linear-gradient-10" x1="87.17" y1="53.58" x2="87.17" gradientUnits="userSpaceOnUse"><stop offset="0" stop-color="#2684ff"/><stop offset="0.32" stop-color="#4c9aff"/><stop offset="0.6" stop-color="#4c9aff"/><stop offset="0.67" stop-color="#4c9aff" stop-opacity="0.99"/><stop offset="0.72" stop-color="#4c9aff" stop-opacity="0.95"/><stop offset="0.77" stop-color="#4c9aff" stop-opacity="0.89"/><stop offset="0.81" stop-color="#4c9aff" stop-opacity="0.79"/><stop offset="0.85" stop-color="#4c9aff" stop-opacity="0.68"/><stop offset="0.89" stop-color="#4c9aff" stop-opacity="0.53"/><stop offset="0.93" stop-color="#4c9aff" stop-opacity="0.36"/><stop offset="0.97" stop-color="#4c9aff" stop-opacity="0.17"/><stop offset="1" stop-color="#4c9aff" stop-opacity="0"/></linearGradient></defs><title>Experiment</title><g id="Layer_2" data-name="Layer 2"><g id="Objects"><path class="cls-2" d="M171,226.91l-67.13-103.5V87.3H104a6.23,6.23,0,1,0,0-12.46H69.82a6.23,6.23,0,1,0,0,12.46H70v36.11L2.83,226.91a17.38,17.38,0,0,0,14.58,26.84h139A17.38,17.38,0,0,0,171,226.91Z"/><path class="cls-3" d="M171,226.91l-67.13-103.5V87.3H104a6.23,6.23,0,0,0,0-12.46H69.82a6.23,6.23,0,1,0,0,12.46H70v36.11L2.83,226.91a17.38,17.38,0,0,0,14.58,26.84h139A17.38,17.38,0,0,0,171,226.91Z"/><path class="cls-4" d="M17.41,243.42a7.06,7.06,0,0,1-5.92-10.91L78.61,129a10.29,10.29,0,0,0,1.66-5.61V87.3a10.42,10.42,0,0,0-.07-1.17l-.11-1H93.75l-.11,1a10.34,10.34,0,0,0-.07,1.17v36.11A10.29,10.29,0,0,0,95.24,129l67.13,103.5a7.06,7.06,0,0,1-5.93,10.91Z"/><path id="_Path_" data-name="&lt;Path&gt;" class="cls-5" d="M162.24,232.6,115.17,160a23.8,23.8,0,0,1-11.52,6.46C90.9,169.16,83,157.9,70.2,159.24c-4.48.47-10.71,2.61-17.72,10.34l-40.87,63a6.92,6.92,0,0,0,5.8,10.68h139a6.91,6.91,0,0,0,5.8-10.68Z"/><circle class="cls-6" cx="110.95" cy="209.82" r="17.34"/><circle class="cls-7" cx="71.32" cy="179.22" r="10.18" transform="translate(-42.42 23.43) rotate(-14.43)"/><circle class="cls-7" cx="49.97" cy="219.09" r="5.61"/><path class="cls-8" d="M115.24,160.12a31.3,31.3,0,0,1-11.69,16c-16.15,11.2-36.77,2-56.84,2.33L11.61,232.6a6.92,6.92,0,0,0,5.8,10.68h139a6.91,6.91,0,0,0,5.8-10.68Z"/><circle class="cls-9" cx="99.54" cy="156.84" r="5.27" transform="translate(-32.45 26.13) rotate(-12.88)"/><circle class="cls-10" cx="128.73" cy="61.46" r="5.27" transform="translate(-10.46 30.24) rotate(-12.88)"/><circle class="cls-11" cx="114.48" cy="68.67" r="2.51" transform="translate(-12.43 27.24) rotate(-12.88)"/><circle class="cls-7" cx="86.87" cy="141.14" r="2.51" transform="translate(-29.27 22.91) rotate(-12.88)"/><circle class="cls-11" cx="45.94" cy="63.46" r="5.27" transform="translate(-27.06 35.02) rotate(-32.81)"/><circle class="cls-10" cx="58.43" cy="71.19" r="2.51" transform="translate(-29.25 43.03) rotate(-32.81)"/><circle class="cls-11" cx="117.2" cy="11.04" r="2.51" transform="translate(12.72 65.27) rotate(-32.81)"/><g class="cls-12"><circle class="cls-13" cx="85.5" cy="45.69" r="17.77"/><circle class="cls-13" cx="69.4" cy="45.69" r="17.77"/><circle class="cls-13" cx="102.22" cy="45.69" r="17.77"/><path id="_Clipping_Path_2" data-name="&lt;Clipping Path&gt;" class="cls-1" d="M95.18,74.84H78.55L62.81,53.58A36.52,36.52,0,0,1,79,45.43c16.65-3.52,29.8,6.49,31.9,8.15Z"/><g class="cls-14"><path id="_Clipping_Path_3" data-name="&lt;Clipping Path&gt;" class="cls-15" d="M91.38,74.84h-9L73.82,47.32c1.6-3.3,4.57-8.41,8.79-10.55,9-4.56,16.16,8.4,17.3,10.55Z"/></g><circle class="cls-16" cx="58.43" cy="35.81" r="17.77"/><circle class="cls-17" cx="113.96" cy="35.81" r="17.77"/><circle class="cls-18" cx="87.17" cy="26.79" r="26.79"/></g></g></g></svg>