<svg xmlns="http://www.w3.org/2000/svg" xmlns:xlink="http://www.w3.org/1999/xlink" viewBox="0 0 148.4701 227.597">
  <defs>
    <style>
      .cls-1 {
        fill: #0065ff;
      }

      .cls-2 {
        fill: url(#linear-gradient);
      }

      .cls-3, .cls-5 {
        fill: none;
        stroke-miterlimit: 10;
        stroke-width: 2px;
      }

      .cls-3 {
        stroke: #ffe580;
      }

      .cls-4 {
        fill: #f5f5f5;
      }

      .cls-5 {
        stroke: #cfd4db;
      }
    </style>
    <linearGradient id="linear-gradient" x1="15.9426" y1="144.2537" x2="132.5902" y2="27.6061" gradientUnits="userSpaceOnUse">
      <stop offset="0" stop-color="#ff991f"/>
      <stop offset="0.083" stop-color="#ffa01a"/>
      <stop offset="0.3894" stop-color="#ffb40c"/>
      <stop offset="0.6956" stop-color="#ffc003"/>
      <stop offset="1" stop-color="#ffc400"/>
    </linearGradient>
  </defs>
  <title>Lightbulb</title>
  <g id="Layer_2" data-name="Layer 2">
    <g id="Objects">
      <circle class="cls-1" cx="74.235" cy="200.6458" r="26.9512"/>
      <path class="cls-2" d="M148.47,74.235A74.2354,74.2354,0,1,0,23.4449,128.3742,37.9753,37.9753,0,0,1,35.69,156.006v7.9949h77.09v-8.0016a37.1149,37.1149,0,0,1,11.8529-27.26A74.0328,74.0328,0,0,0,148.47,74.235Z"/>
      <path class="cls-3" d="M44.0905,108.0755c-.72,4.1566-.9524,9.8294,2,14.8161,3.0439,5.1417,7.4617,6.1563,11.3246,9.4665,4.4267,3.7933,8.7637,11.1487,8.3207,26.7892v4.8536"/>
      <path class="cls-4" d="M35.69,164.0008h77.09a0,0,0,0,1,0,0V177.856a5.5323,5.5323,0,0,1-5.5323,5.5323H41.2222A5.5323,5.5323,0,0,1,35.69,177.856V164.0008A0,0,0,0,1,35.69,164.0008Z"/>
      <path class="cls-4" d="M40.6669,183.3883h67.1364a4.977,4.977,0,0,1,4.977,4.977v4.3863a10.0242,10.0242,0,0,1-10.0242,10.0242H45.7141A10.0242,10.0242,0,0,1,35.69,192.7515v-4.3863A4.977,4.977,0,0,1,40.6669,183.3883Z"/>
      <path class="cls-3" d="M100.6594,108.0755c.72,4.1566.9524,9.8294-2,14.8161-3.0439,5.1417-7.4617,6.1563-11.3246,9.4665-4.4267,3.7933-8.7637,11.1487-8.3207,26.7892v4.8536"/>
      <line class="cls-5" x1="45.2481" y1="183.3883" x2="104.7602" y2="183.3883"/>
      <path class="cls-3" d="M54.04,106.0781c4.988-2.8532,9.7347-4.8113,11.5313-3.13,2.1066,1.971-1.3906,7.4973.3295,8.8958,3.3059,2.688,19.5975-14.9806,23.5568-12.19,1.1478.8088,1.424,3.4534-.9884,10.3782"/>
    </g>
  </g>
</svg>
