<svg xmlns="http://www.w3.org/2000/svg" xmlns:xlink="http://www.w3.org/1999/xlink" viewBox="0 0 243.6482 176.58">
  <defs>
    <style>
      .cls-1 {
        fill: url(#linear-gradient);
      }

      .cls-2 {
        fill: #eceef1;
      }

      .cls-3 {
        fill: url(#linear-gradient-2);
      }

      .cls-4 {
        fill: none;
      }

      .cls-4, .cls-7 {
        stroke: #0065ff;
        stroke-miterlimit: 10;
        stroke-width: 2px;
      }

      .cls-5 {
        fill: #ff7143;
      }

      .cls-6 {
        fill: #3384ff;
      }

      .cls-7 {
        fill: #0065ff;
      }
    </style>
    <linearGradient id="linear-gradient" x1="122.9844" y1="149.327" x2="213.8319" y2="58.4795" gradientUnits="userSpaceOnUse">
      <stop offset="0.2303" stop-color="#0065ff"/>
      <stop offset="0.4564" stop-color="#1a75ff"/>
      <stop offset="0.938" stop-color="#5d9dff"/>
      <stop offset="1" stop-color="#66a3ff"/>
    </linearGradient>
    <linearGradient id="linear-gradient-2" x1="80.784" y1="176.58" x2="80.784" gradientUnits="userSpaceOnUse">
      <stop offset="0" stop-color="#e5e8ec"/>
      <stop offset="0.1266" stop-color="#f1f2f5"/>
      <stop offset="0.3055" stop-color="#f8f9fa"/>
      <stop offset="0.707" stop-color="#fafbfc"/>
    </linearGradient>
  </defs>
  <title>Long Memo</title>
  <g id="Layer_2" data-name="Layer 2">
    <g id="Objects">
      <path class="cls-1" d="M216.2881,60.9358a27.3633,27.3633,0,0,0-27.36,27.36V149.22a27.36,27.36,0,1,1-54.72,0V60.9358Z"/>
      <path class="cls-2" d="M243.6482,88.2959V126.18h-54.72V88.2959a27.36,27.36,0,1,1,54.72,0"/>
      <path class="cls-3" d="M161.5679,176.58H27.36A27.3632,27.3632,0,0,1,0,149.22V0H134.208V149.22a27.3632,27.3632,0,0,0,27.36,27.36"/>
      <line class="cls-4" x1="59.321" y1="30.1662" x2="110.8754" y2="30.1662"/>
      <line class="cls-4" x1="59.321" y1="40.9662" x2="110.8754" y2="40.9662"/>
      <line class="cls-4" x1="59.321" y1="51.7662" x2="110.8754" y2="51.7662"/>
      <line class="cls-4" x1="59.321" y1="62.5662" x2="86.8754" y2="62.5662"/>
      <line class="cls-4" x1="17.321" y1="84.1662" x2="110.8754" y2="84.1662"/>
      <line class="cls-4" x1="17.321" y1="105.3366" x2="110.8754" y2="105.3366"/>
      <line class="cls-4" x1="17.321" y1="116.1366" x2="86.8754" y2="116.1366"/>
      <line class="cls-4" x1="17.321" y1="94.5366" x2="110.8754" y2="94.5366"/>
      <line class="cls-4" x1="17.321" y1="137.7366" x2="110.8754" y2="137.7366"/>
      <line class="cls-4" x1="17.321" y1="148.5366" x2="110.8754" y2="148.5366"/>
      <line class="cls-4" x1="17.321" y1="159.3366" x2="86.8754" y2="159.3366"/>
      <rect class="cls-5" x="0.0006" y="0.0001" width="134.208" height="12.1963"/>
      <rect class="cls-6" x="17.3214" y="30.1657" width="32.4" height="32.4"/>
      <rect class="cls-7" x="17.3214" y="30.1657" width="32.4" height="32.4"/>
    </g>
  </g>
</svg>
