<svg xmlns="http://www.w3.org/2000/svg" xmlns:xlink="http://www.w3.org/1999/xlink" viewBox="0 0 234.56 234.56"><defs><style>.cls-1{fill:url(#linear-gradient);}.cls-2{opacity:0.5;fill:url(#linear-gradient-2);}.cls-3{fill:url(#linear-gradient-3);}.cls-4{fill:url(#linear-gradient-4);}.cls-5{fill:#fff;}.cls-6{fill:url(#linear-gradient-5);}.cls-7{fill:url(#linear-gradient-6);}.cls-8{fill:url(#linear-gradient-7);}.cls-9{fill:url(#linear-gradient-8);}.cls-10{fill:url(#linear-gradient-9);}.cls-11{fill:url(#linear-gradient-10);}.cls-12{clip-path:url(#clip-path);}.cls-13{fill:url(#linear-gradient-12);}.cls-14{fill:none;stroke-linecap:round;stroke-miterlimit:10;stroke-width:11.19px;stroke:url(#linear-gradient-13);}.cls-15{fill:#ffc400;}</style><linearGradient id="linear-gradient" x1="68.21" y1="195.25" x2="171.4" y2="254.82" gradientUnits="userSpaceOnUse"><stop offset="0.41" stop-color="#ffab00"/><stop offset="0.48" stop-color="#ffae08"/><stop offset="0.58" stop-color="#ffb61e"/><stop offset="0.7" stop-color="#ffc441"/><stop offset="0.84" stop-color="#ffd772"/><stop offset="1" stop-color="#fff0b1"/><stop offset="1" stop-color="#fff0b2"/></linearGradient><linearGradient id="linear-gradient-2" x1="69.41" y1="261.32" x2="303.94" y2="261.32" gradientTransform="translate(378.6 -69.39) rotate(90)" gradientUnits="userSpaceOnUse"><stop offset="0" stop-color="#0065ff" stop-opacity="0.5"/><stop offset="0.01" stop-color="#0065ff" stop-opacity="0.47"/><stop offset="0.08" stop-color="#0065ff" stop-opacity="0.33"/><stop offset="0.15" stop-color="#0065ff" stop-opacity="0.21"/><stop offset="0.22" stop-color="#0065ff" stop-opacity="0.12"/><stop offset="0.29" stop-color="#0065ff" stop-opacity="0.05"/><stop offset="0.38" stop-color="#0065ff" stop-opacity="0.01"/><stop offset="0.49" stop-color="#0065ff" stop-opacity="0"/><stop offset="0.71" stop-color="#0065ff" stop-opacity="0.01"/><stop offset="0.79" stop-color="#0065ff" stop-opacity="0.03"/><stop offset="0.84" stop-color="#0065ff" stop-opacity="0.08"/><stop offset="0.89" stop-color="#0065ff" stop-opacity="0.15"/><stop offset="0.93" stop-color="#0065ff" stop-opacity="0.23"/><stop offset="0.96" stop-color="#0065ff" stop-opacity="0.34"/><stop offset="0.99" stop-color="#0065ff" stop-opacity="0.46"/><stop offset="1" stop-color="#0065ff" stop-opacity="0.5"/></linearGradient><linearGradient id="linear-gradient-3" x1="47.11" y1="186.05" x2="187.15" y2="46.01" gradientUnits="userSpaceOnUse"><stop offset="0" stop-color="#0065ff"/><stop offset="0.06" stop-color="#1c76ff"/><stop offset="0.19" stop-color="#4f95ff"/><stop offset="0.33" stop-color="#7bafff"/><stop offset="0.46" stop-color="#9fc5ff"/><stop offset="0.59" stop-color="#bad6ff"/><stop offset="0.73" stop-color="#cee1ff"/><stop offset="0.86" stop-color="#dae9ff"/><stop offset="1" stop-color="#deebff"/></linearGradient><linearGradient id="linear-gradient-4" x1="52.94" y1="180.22" x2="181.32" y2="51.84" gradientUnits="userSpaceOnUse"><stop offset="0" stop-color="#0052cc"/><stop offset="0.14" stop-color="#3a7ad9" stop-opacity="0.74"/><stop offset="0.46" stop-color="#cbdefb" stop-opacity="0.08"/><stop offset="0.5" stop-color="#deebff" stop-opacity="0"/><stop offset="0.55" stop-color="#bfd9ff" stop-opacity="0.17"/><stop offset="0.64" stop-color="#91c0ff" stop-opacity="0.42"/><stop offset="0.72" stop-color="#6baaff" stop-opacity="0.63"/><stop offset="0.8" stop-color="#4d9aff" stop-opacity="0.79"/><stop offset="0.87" stop-color="#388eff" stop-opacity="0.9"/><stop offset="0.93" stop-color="#2b87ff" stop-opacity="0.97"/><stop offset="0.97" stop-color="#2684ff"/></linearGradient><linearGradient id="linear-gradient-5" x1="-22.66" y1="-273.95" x2="188.06" y2="-196.43" gradientTransform="translate(139.13 369.67) rotate(-19.04)" gradientUnits="userSpaceOnUse"><stop offset="0" stop-color="#0065ff" stop-opacity="0"/><stop offset="0.16" stop-color="#0065ff" stop-opacity="0.01"/><stop offset="0.28" stop-color="#0267ff" stop-opacity="0.05"/><stop offset="0.38" stop-color="#0468ff" stop-opacity="0.11"/><stop offset="0.48" stop-color="#086bff" stop-opacity="0.2"/><stop offset="0.57" stop-color="#0c6fff" stop-opacity="0.32"/><stop offset="0.66" stop-color="#1173ff" stop-opacity="0.46"/><stop offset="0.74" stop-color="#1878ff" stop-opacity="0.63"/><stop offset="0.82" stop-color="#1f7eff" stop-opacity="0.81"/><stop offset="0.89" stop-color="#2684ff"/></linearGradient><linearGradient id="linear-gradient-6" x1="-35.18" y1="-239.9" x2="175.54" y2="-162.38" xlink:href="#linear-gradient-5"/><linearGradient id="linear-gradient-7" x1="130.22" y1="229.93" x2="130.22" y2="66.91" gradientUnits="userSpaceOnUse"><stop offset="0.33" stop-color="#8777d9" stop-opacity="0"/><stop offset="0.47" stop-color="#8777d9" stop-opacity="0.2"/><stop offset="0.81" stop-color="#8777d9" stop-opacity="0.7"/><stop offset="1" stop-color="#8777d9"/></linearGradient><linearGradient id="linear-gradient-8" x1="274.75" y1="675.7" x2="274.75" y2="498.15" gradientTransform="matrix(0.35, -0.94, -0.94, -0.35, 554.51, 555.51)" gradientUnits="userSpaceOnUse"><stop offset="0.15" stop-color="#8777d9" stop-opacity="0"/><stop offset="0.22" stop-color="#8777d9" stop-opacity="0.06"/><stop offset="0.34" stop-color="#8777d9" stop-opacity="0.2"/><stop offset="0.5" stop-color="#8777d9" stop-opacity="0.44"/><stop offset="0.7" stop-color="#8777d9" stop-opacity="0.76"/><stop offset="0.83" stop-color="#8777d9"/></linearGradient><linearGradient id="linear-gradient-9" x1="313.38" y1="675.69" x2="313.38" y2="498.14" xlink:href="#linear-gradient-8"/><linearGradient id="linear-gradient-10" x1="2281.04" y1="-737.33" x2="2491.76" y2="-659.81" gradientTransform="translate(2435.6 -709.97) rotate(178.71)" gradientUnits="userSpaceOnUse"><stop offset="0" stop-color="#ff8b00" stop-opacity="0"/><stop offset="0.12" stop-color="#ff8b00" stop-opacity="0.01"/><stop offset="0.22" stop-color="#ff8b00" stop-opacity="0.05"/><stop offset="0.3" stop-color="#ff8b00" stop-opacity="0.11"/><stop offset="0.38" stop-color="#ff8b00" stop-opacity="0.2"/><stop offset="0.45" stop-color="#ff8b00" stop-opacity="0.32"/><stop offset="0.52" stop-color="#ff8b00" stop-opacity="0.46"/><stop offset="0.58" stop-color="#ff8b00" stop-opacity="0.63"/><stop offset="0.65" stop-color="#ff8b00" stop-opacity="0.81"/><stop offset="0.7" stop-color="#ff8b00"/></linearGradient><clipPath id="clip-path"><path id="_Clipping_Path_" data-name="&lt;Clipping Path&gt;" class="cls-1" d="M175.7,219v-4.58a9.36,9.36,0,0,0-9.36-9.36H67.93a9.36,9.36,0,0,0-9.36,9.36V219a5.57,5.57,0,0,1-2.76,4.87,10.65,10.65,0,0,0-5.43,9.28h133.5a10.65,10.65,0,0,0-5.43-9.28A5.57,5.57,0,0,1,175.7,219Z"/></clipPath><linearGradient id="linear-gradient-12" x1="50.38" y1="227.86" x2="183.88" y2="227.86" gradientUnits="userSpaceOnUse"><stop offset="0" stop-color="#ff991f"/><stop offset="0.32" stop-color="#ff9b21"/><stop offset="0.5" stop-color="#ffa12a"/><stop offset="0.65" stop-color="#ffac38"/><stop offset="0.79" stop-color="#ffbb4c"/><stop offset="0.9" stop-color="#ffcf65"/><stop offset="1" stop-color="#ffe380"/></linearGradient><linearGradient id="linear-gradient-13" x1="680.35" y1="-1350.5" x2="718.63" y2="-1455.66" gradientTransform="translate(1559.32 775.24) rotate(-90)" gradientUnits="userSpaceOnUse"><stop offset="0.1" stop-color="#e6fcff" stop-opacity="0"/><stop offset="0.45" stop-color="#e6fcff" stop-opacity="0.5"/><stop offset="0.91" stop-color="#e6fcff" stop-opacity="0"/></linearGradient></defs><title>Prediction</title><g id="Layer_2" data-name="Layer 2"><g id="Objects"><circle class="cls-2" cx="117.28" cy="117.28" r="117.26" transform="translate(-15.41 216.79) rotate(-81.87)"/><path class="cls-3" d="M117.13,215.1A99.07,99.07,0,1,1,216.2,116,99.18,99.18,0,0,1,117.13,215.1Z"/><circle id="_Ellipse_" data-name="&lt;Ellipse&gt;" class="cls-4" cx="117.13" cy="116.03" r="90.78"/><path class="cls-5" d="M106.62,145c-.16-2.07-.32-3.82-.32-6,0-9.54,3.66-17.33,12.88-24l7.31-5.25c5.25-3.82,7.47-8.43,7.47-13.83,0-8.27-5.56-16.06-17.17-16.06-11.77,0-18,9.06-18,18.13a24.37,24.37,0,0,0,1,7.15l-18-1.27a27.11,27.11,0,0,1-1-7.31c0-15.9,11.92-33.23,35.93-33.23,23.53,0,36.25,15.58,36.25,31.8,0,12.56-6.68,21.46-15.9,28l-6.84,4.77a17.75,17.75,0,0,0-7.95,15.1,12.38,12.38,0,0,0,.16,2.07Zm8.11,11.13a11.81,11.81,0,0,1,11.61,11.77,11.61,11.61,0,1,1-11.61-11.77Z"/><path class="cls-6" d="M66.07,163.78c19.13-14.62,47.33-13.51,66.6,3.53.94-5.44,3.14-13.18,9.08-19.68,10.92-11.92,26.36-10.8,37.33-14.13,8.91-2.7,19-9.61,28.42-26.15a90.33,90.33,0,0,0-18.83-47.22,72.48,72.48,0,0,1-6.72,3.68c-18,8.63-31.6,5.94-42.91,17.47-8.44,8.61-10.69,20.11-11.32,28.13a37.77,37.77,0,0,0-18.92-.16c-19.2,5.11-24,25-42.78,43.56a101.28,101.28,0,0,1-22.3,16.62,91.26,91.26,0,0,0,8.81,10.37A49.37,49.37,0,0,1,66.07,163.78Z"/><path class="cls-7" d="M207.5,107.36c-9.39,16.54-19.51,23.45-28.42,26.15-11,3.33-26.42,2.2-37.33,14.13-5.95,6.49-8.15,14.23-9.08,19.68-19.26-17-47.47-18.15-66.6-3.53a49.37,49.37,0,0,0-13.54,16A90.77,90.77,0,0,0,207.91,116C207.91,113.11,207.77,110.21,207.5,107.36Z"/><path class="cls-8" d="M207.5,107.36c-9.39,16.54-19.51,23.45-28.42,26.15-11,3.33-26.42,2.2-37.33,14.13-5.95,6.49-8.15,14.23-9.08,19.68-19.26-17-47.47-18.15-66.6-3.53a49.37,49.37,0,0,0-13.54,16A90.77,90.77,0,0,0,207.91,116C207.91,113.11,207.77,110.21,207.5,107.36Z"/><path class="cls-9" d="M44.33,144.1c8.28-6.71,18.52-11.05,22.93-22.73,4.09-10.84.94-22.09-2.19-29.66,6.56,1.21,16.26,1.94,26.1-2.09,18.78-7.69,15.48-28.21,31.6-36.45,15.87-8.11,27.69,6.27,51.56,2.94a55.5,55.5,0,0,0,9.1-2.09,90.73,90.73,0,0,0-42.49-25.61c-17.39,11.19-27.64,23.87-44.64,23a37.78,37.78,0,0,1-18-5.91C75.28,53,69.63,63.24,59,68.87c-7.29,3.85-14,4-21.48,3.56a90.92,90.92,0,0,0-2.79,81.67A57.44,57.44,0,0,1,44.33,144.1Z"/><path class="cls-10" d="M59,68.87C69.63,63.24,75.28,53,78.32,45.53a37.78,37.78,0,0,0,18,5.91c17,.84,27.25-11.84,44.64-23a90.88,90.88,0,0,0-103.44,44C45,72.85,51.68,72.71,59,68.87Z"/><path class="cls-11" d="M59,68.87C69.63,63.24,75.28,53,78.32,45.53a37.78,37.78,0,0,0,18,5.91c17,.84,27.25-11.84,44.64-23a90.88,90.88,0,0,0-103.44,44C45,72.85,51.68,72.71,59,68.87Z"/><path id="_Clipping_Path_2" data-name="&lt;Clipping Path&gt;" class="cls-1" d="M175.7,219v-4.58a9.36,9.36,0,0,0-9.36-9.36H67.93a9.36,9.36,0,0,0-9.36,9.36V219a5.57,5.57,0,0,1-2.76,4.87,10.65,10.65,0,0,0-5.43,9.28h133.5a10.65,10.65,0,0,0-5.43-9.28A5.57,5.57,0,0,1,175.7,219Z"/><g class="cls-12"><path class="cls-13" d="M183.88,233.2a10.67,10.67,0,0,0-10.67-10.67H61A10.67,10.67,0,0,0,50.38,233.2Z"/></g><path class="cls-14" d="M116.14,38.7a78.58,78.58,0,0,1,78.58,78.58"/><path class="cls-15" d="M207.91,17.45h0a13.51,13.51,0,0,0,10.22,10.22h0A13.51,13.51,0,0,0,207.91,37.9h0a13.51,13.51,0,0,0-10.22-10.22h0a13.51,13.51,0,0,0,10.22-10.22Z"/><circle class="cls-15" cx="19.18" cy="177.58" r="2.37"/><circle class="cls-15" cx="45.05" cy="206.81" r="2.37"/><circle class="cls-15" cx="181.51" cy="25.25" r="2.37"/><circle class="cls-15" cx="211.95" cy="50.43" r="4.04"/><path class="cls-15" d="M26.18,209.58h0A13.51,13.51,0,0,0,16,199.35h0a13.51,13.51,0,0,0,10.22-10.22h0A13.51,13.51,0,0,0,36.4,199.35h0a13.51,13.51,0,0,0-10.22,10.22Z"/></g></g></svg>