<svg xmlns="http://www.w3.org/2000/svg" viewBox="0 0 180.1915 186.8138">
  <defs>
    <style>
      .cls-1 {
        isolation: isolate;
      }

      .cls-2 {
        fill: #de350b;
      }

      .cls-3 {
        fill: #ff5630;
      }

      .cls-4 {
        fill: #dfe1e5;
        mix-blend-mode: multiply;
      }

      .cls-5 {
        fill: #fafbfc;
      }

      .cls-6 {
        fill: #ebecf0;
      }

      .cls-7 {
        fill: none;
        stroke: #0065ff;
        stroke-miterlimit: 10;
        stroke-width: 2px;
      }

      .cls-8 {
        fill: #5e6c84;
      }

      .cls-9 {
        fill: #253858;
      }
    </style>
  </defs>
  <title>Security</title>
  <g class="cls-1">
    <g id="Layer_2" data-name="Layer 2">
      <g id="Objects">
        <path class="cls-2" d="M24.6114,0h.6114a8,8,0,0,1,8,8V23.2338a0,0,0,0,1,0,0H16.6114a0,0,0,0,1,0,0V8A8,8,0,0,1,24.6114,0Z"/>
        <path class="cls-2" d="M90.7639,0h.6114a8,8,0,0,1,8,8V23.2338a0,0,0,0,1,0,0H82.7639a0,0,0,0,1,0,0V8A8,8,0,0,1,90.7639,0Z"/>
        <path class="cls-2" d="M156.9164,0h.6114a8,8,0,0,1,8,8V23.2338a0,0,0,0,1,0,0H148.9164a0,0,0,0,1,0,0V8A8,8,0,0,1,156.9164,0Z"/>
        <rect class="cls-2" x="16.6114" y="23.2338" width="163.58" height="163.58"/>
        <path class="cls-2" d="M24.6114,0H41.8343a8,8,0,0,1,8,8V23.2228a0,0,0,0,1,0,0H16.6114a0,0,0,0,1,0,0V8a8,8,0,0,1,8-8Z"/>
        <path class="cls-2" d="M89.79,0h17.2228a8,8,0,0,1,8,8V23.2228a0,0,0,0,1,0,0H81.79a0,0,0,0,1,0,0V8A8,8,0,0,1,89.79,0Z"/>
        <path class="cls-2" d="M154.9686,0h17.2228a8,8,0,0,1,8,8V23.2228a0,0,0,0,1,0,0H146.9686a0,0,0,0,1,0,0V8a8,8,0,0,1,8-8Z"/>
        <rect class="cls-3" y="23.2338" width="163.58" height="163.58"/>
        <path class="cls-3" d="M8,0H25.2228a8,8,0,0,1,8,8V23.2228a0,0,0,0,1,0,0H0a0,0,0,0,1,0,0V8A8,8,0,0,1,8,0Z"/>
        <path class="cls-3" d="M73.1786,0H90.4014a8,8,0,0,1,8,8V23.2228a0,0,0,0,1,0,0H65.1786a0,0,0,0,1,0,0V8A8,8,0,0,1,73.1786,0Z"/>
        <path class="cls-3" d="M138.3572,0H155.58a8,8,0,0,1,8,8V23.2228a0,0,0,0,1,0,0H130.3572a0,0,0,0,1,0,0V8a8,8,0,0,1,8-8Z"/>
        <rect class="cls-3" y="23.2338" width="163.58" height="163.58"/>
        <path class="cls-3" d="M8,0H25.2228a8,8,0,0,1,8,8V23.2228a0,0,0,0,1,0,0H0a0,0,0,0,1,0,0V8A8,8,0,0,1,8,0Z"/>
        <path class="cls-3" d="M73.1786,0H90.4014a8,8,0,0,1,8,8V23.2228a0,0,0,0,1,0,0H65.1786a0,0,0,0,1,0,0V8A8,8,0,0,1,73.1786,0Z"/>
        <path class="cls-3" d="M138.3572,0H155.58a8,8,0,0,1,8,8V23.2228a0,0,0,0,1,0,0H130.3572a0,0,0,0,1,0,0V8a8,8,0,0,1,8-8Z"/>
        <rect class="cls-2" x="18.3038" y="56.8065" width="33.2228" height="15.6038"/>
        <rect class="cls-2" x="113.7458" y="136.9615" width="33.2228" height="15.6038"/>
        <path class="cls-4" d="M39.9151,71.6036h70.75a9,9,0,0,1,9,9v35.3749A44.3748,44.3748,0,0,1,75.29,160.3532h0a44.3748,44.3748,0,0,1-44.3748-44.3748V80.6036A9,9,0,0,1,39.9151,71.6036Z"/>
        <path class="cls-5" d="M48.9152,66.6617h70.75a9,9,0,0,1,9,9v35.3749A44.3748,44.3748,0,0,1,84.29,155.4114h0a44.3748,44.3748,0,0,1-44.3748-44.3748V75.6617A9,9,0,0,1,48.9152,66.6617Z"/>
        <path class="cls-6" d="M43.9152,66.6617h70.75a9,9,0,0,1,9,9v35.3749A44.3748,44.3748,0,0,1,79.29,155.4114h0a44.3748,44.3748,0,0,1-44.3748-44.3748V75.6617a9,9,0,0,1,9-9Z"/>
        <path class="cls-7" d="M79.29,147.7441a36.7487,36.7487,0,0,1-36.7074-36.7074V78.0584a3.7333,3.7333,0,0,1,3.729-3.729H112.268a3.7333,3.7333,0,0,1,3.729,3.729v32.9784A36.7486,36.7486,0,0,1,79.29,147.7441Z"/>
        <path id="_Path_" data-name="&lt;Path&gt;" class="cls-8" d="M91.07,101.0027a11.7794,11.7794,0,1,0-19.86,8.5548,4.0417,4.0417,0,0,1,1.1842,4.0621l-2.104,7.2681a3,3,0,0,0,2.8817,3.8342H85.4086a3,3,0,0,0,2.8817-3.8342l-2.0959-7.24a4.0743,4.0743,0,0,1,1.1808-4.0945A11.7172,11.7172,0,0,0,91.07,101.0027Z"/>
        <path class="cls-9" d="M88.29,120.8877l-2.0959-7.24a4.0744,4.0744,0,0,1,1.1808-4.0945,11.7629,11.7629,0,0,0-5.06-19.9313,11.91,11.91,0,0,0-8.798,10.9949,11.7188,11.7188,0,0,0,3.693,8.941,4.0417,4.0417,0,0,1,1.1842,4.0621L75.18,124.7219H85.4087A3,3,0,0,0,88.29,120.8877Z"/>
        <rect class="cls-2" y="36.4702" width="33.2228" height="15.6038"/>
        <rect class="cls-2" y="158.1217" width="33.2228" height="15.6038"/>
        <rect class="cls-2" x="130.3572" y="36.4702" width="33.2228" height="15.6038"/>
        <rect class="cls-2" x="132.6085" y="157.5513" width="33.2228" height="15.6038"/>
      </g>
    </g>
  </g>
</svg>
