<svg xmlns="http://www.w3.org/2000/svg" xmlns:xlink="http://www.w3.org/1999/xlink" viewBox="0 0 246 209.35"><defs><style>.cls-1{isolation:isolate;}.cls-2{fill:#505f79;}.cls-3{fill:#c1c7d0;}.cls-4{fill:#dfe1e5;}.cls-5{fill:#ebecf0;}.cls-6{fill:#fff;}.cls-7{fill:#0065ff;}.cls-8{fill:#4c9aff;}.cls-10,.cls-11,.cls-9{opacity:0.63;mix-blend-mode:multiply;}.cls-9{fill:url(#linear-gradient);}.cls-10{fill:url(#linear-gradient-2);}.cls-11{fill:url(#linear-gradient-3);}.cls-12{fill:#b2d4ff;}.cls-13{fill:#f4f5f7;}.cls-14{fill:#36b37e;}.cls-15{fill:url(#linear-gradient-4);}.cls-16{fill:#57d9a3;}.cls-17{fill:#79f2c0;}</style><linearGradient id="linear-gradient" x1="137.25" y1="181.09" x2="137.25" y2="158.65" gradientUnits="userSpaceOnUse"><stop offset="0" stop-color="#c1c7d0" stop-opacity="0.1"/><stop offset="0.02" stop-color="#c1c7d0" stop-opacity="0.16"/><stop offset="0.09" stop-color="#c1c7d0" stop-opacity="0.36"/><stop offset="0.17" stop-color="#c1c7d0" stop-opacity="0.53"/><stop offset="0.25" stop-color="#c1c7d0" stop-opacity="0.68"/><stop offset="0.34" stop-color="#c1c7d0" stop-opacity="0.8"/><stop offset="0.44" stop-color="#c1c7d0" stop-opacity="0.89"/><stop offset="0.56" stop-color="#c1c7d0" stop-opacity="0.95"/><stop offset="0.71" stop-color="#c1c7d0" stop-opacity="0.99"/><stop offset="1" stop-color="#c1c7d0"/></linearGradient><linearGradient id="linear-gradient-2" x1="167.05" y1="181.09" x2="167.05" y2="158.65" xlink:href="#linear-gradient"/><linearGradient id="linear-gradient-3" x1="168.44" y1="181.09" x2="168.44" y2="158.65" xlink:href="#linear-gradient"/><linearGradient id="linear-gradient-4" x1="149.95" y1="82.6" x2="149.95" y2="25.37" gradientUnits="userSpaceOnUse"><stop offset="0" stop-color="#abf5d1" stop-opacity="0"/><stop offset="0.34" stop-color="#96f4ca" stop-opacity="0.25"/><stop offset="0.64" stop-color="#86f3c5" stop-opacity="0.44"/><stop offset="0.87" stop-color="#7df2c1" stop-opacity="0.56"/><stop offset="1" stop-color="#79f2c0" stop-opacity="0.6"/></linearGradient></defs><title>JIRA Laptop Done</title><g class="cls-1"><g id="Layer_2" data-name="Layer 2"><g id="Devices"><path class="cls-2" d="M65.7,209.35H239.29a6.71,6.71,0,0,0,6.71-6.71V84.8a7,7,0,0,0-7-7H64.86a7,7,0,0,0-7,7V201.51A7.83,7.83,0,0,0,65.7,209.35Z"/><path class="cls-2" d="M65.59,209.35H239.17a6.71,6.71,0,0,0,6.71-6.71V84.8a7,7,0,0,0-7-7H64.75a7,7,0,0,0-7,7V201.51A7.83,7.83,0,0,0,65.59,209.35Z"/><path class="cls-2" d="M65.48,209.35H239.06a6.71,6.71,0,0,0,6.71-6.71V84.8a7,7,0,0,0-7-7H64.63a7,7,0,0,0-7,7V201.51A7.83,7.83,0,0,0,65.48,209.35Z"/><path class="cls-2" d="M65.37,209.35H239a6.71,6.71,0,0,0,6.71-6.71V84.8a7,7,0,0,0-7-7H64.52a7,7,0,0,0-7,7V201.51A7.83,7.83,0,0,0,65.37,209.35Z"/><path class="cls-2" d="M65.26,209.35H238.84a6.71,6.71,0,0,0,6.71-6.71V84.8a7,7,0,0,0-7-7H64.41a7,7,0,0,0-7,7V201.51A7.83,7.83,0,0,0,65.26,209.35Z"/><path class="cls-2" d="M65.15,209.35H238.73a6.71,6.71,0,0,0,6.71-6.71V84.8a7,7,0,0,0-7-7H64.3a7,7,0,0,0-7,7V201.51A7.83,7.83,0,0,0,65.15,209.35Z"/><path class="cls-2" d="M65,209.35H238.62a6.71,6.71,0,0,0,6.71-6.71V84.8a7,7,0,0,0-7-7H64.19a7,7,0,0,0-7,7V201.51A7.83,7.83,0,0,0,65,209.35Z"/><path class="cls-2" d="M64.92,209.35H238.5a6.71,6.71,0,0,0,6.71-6.71V84.8a7,7,0,0,0-7-7H64.08a7,7,0,0,0-7,7V201.51A7.83,7.83,0,0,0,64.92,209.35Z"/><path class="cls-2" d="M64.81,209.35H238.39a6.71,6.71,0,0,0,6.71-6.71V84.8a7,7,0,0,0-7-7H64a7,7,0,0,0-7,7V201.51A7.83,7.83,0,0,0,64.81,209.35Z"/><path class="cls-2" d="M64.7,209.35H238.28a6.71,6.71,0,0,0,6.71-6.71V84.8a7,7,0,0,0-7-7H63.85a7,7,0,0,0-7,7V201.51A7.83,7.83,0,0,0,64.7,209.35Z"/><path class="cls-2" d="M64.59,209.35H238.17a6.71,6.71,0,0,0,6.71-6.71V84.8a7,7,0,0,0-7-7H63.74a7,7,0,0,0-7,7V201.51A7.83,7.83,0,0,0,64.59,209.35Z"/><path class="cls-2" d="M64.47,209.35H238.06a6.71,6.71,0,0,0,6.71-6.71V84.8a7,7,0,0,0-7-7H63.63a7,7,0,0,0-7,7V201.51A7.83,7.83,0,0,0,64.47,209.35Z"/><path class="cls-2" d="M64.36,209.35H237.94a6.71,6.71,0,0,0,6.71-6.71V84.8a7,7,0,0,0-7-7H63.52a7,7,0,0,0-7,7V201.51A7.83,7.83,0,0,0,64.36,209.35Z"/><path class="cls-2" d="M64.25,209.35H237.83a6.71,6.71,0,0,0,6.71-6.71V84.8a7,7,0,0,0-7-7H63.4a7,7,0,0,0-7,7V201.51A7.83,7.83,0,0,0,64.25,209.35Z"/><path class="cls-2" d="M64.14,209.35H237.72a6.71,6.71,0,0,0,6.71-6.71V84.8a7,7,0,0,0-7-7H63.29a7,7,0,0,0-7,7V201.51A7.83,7.83,0,0,0,64.14,209.35Z"/><path class="cls-2" d="M64,209.35H237.61a6.71,6.71,0,0,0,6.71-6.71V84.8a7,7,0,0,0-7-7H63.18a7,7,0,0,0-7,7V201.51A7.83,7.83,0,0,0,64,209.35Z"/><path class="cls-2" d="M63.91,209.35H237.5a6.71,6.71,0,0,0,6.71-6.71V84.8a7,7,0,0,0-7-7H63.07a7,7,0,0,0-7,7V201.51A7.83,7.83,0,0,0,63.91,209.35Z"/><path class="cls-2" d="M63.8,209.35H237.38a6.71,6.71,0,0,0,6.71-6.71V84.8a7,7,0,0,0-7-7H63a7,7,0,0,0-7,7V201.51A7.83,7.83,0,0,0,63.8,209.35Z"/><path class="cls-2" d="M63.69,209.35H237.27a6.71,6.71,0,0,0,6.71-6.71V84.8a7,7,0,0,0-7-7H62.84a7,7,0,0,0-7,7V201.51A7.83,7.83,0,0,0,63.69,209.35Z"/><path class="cls-2" d="M63.58,209.35H237.16a6.71,6.71,0,0,0,6.71-6.71V84.8a7,7,0,0,0-7-7H62.73a7,7,0,0,0-7,7V201.51A7.83,7.83,0,0,0,63.58,209.35Z"/><path class="cls-2" d="M63.47,209.35H237a6.71,6.71,0,0,0,6.71-6.71V84.8a7,7,0,0,0-7-7H62.62a7,7,0,0,0-7,7V201.51A7.83,7.83,0,0,0,63.47,209.35Z"/><path class="cls-2" d="M63.36,209.35H236.94a6.71,6.71,0,0,0,6.71-6.71V84.8a7,7,0,0,0-7-7H62.51a7,7,0,0,0-7,7V201.51A7.83,7.83,0,0,0,63.36,209.35Z"/><path class="cls-2" d="M63.24,209.35H236.82a6.71,6.71,0,0,0,6.71-6.71V84.8a7,7,0,0,0-7-7H62.4a7,7,0,0,0-7,7V201.51A7.83,7.83,0,0,0,63.24,209.35Z"/><path class="cls-2" d="M63.13,209.35H236.71a6.71,6.71,0,0,0,6.71-6.71V84.8a7,7,0,0,0-7-7H62.28a7,7,0,0,0-7,7V201.51A7.83,7.83,0,0,0,63.13,209.35Z"/><path class="cls-2" d="M63,209.35H236.6a6.71,6.71,0,0,0,6.71-6.71V84.8a7,7,0,0,0-7-7H62.17a7,7,0,0,0-7,7V201.51A7.83,7.83,0,0,0,63,209.35Z"/><path class="cls-2" d="M62.91,209.35H236.49a6.71,6.71,0,0,0,6.71-6.71V84.8a7,7,0,0,0-7-7H62.06a7,7,0,0,0-7,7V201.51A7.83,7.83,0,0,0,62.91,209.35Z"/><path class="cls-2" d="M62.8,209.35H236.38a6.71,6.71,0,0,0,6.71-6.71V84.8a7,7,0,0,0-7-7H61.95a7,7,0,0,0-7,7V201.51A7.83,7.83,0,0,0,62.8,209.35Z"/><path class="cls-2" d="M62.68,209.35H236.27a6.71,6.71,0,0,0,6.71-6.71V84.8a7,7,0,0,0-7-7H61.84a7,7,0,0,0-7,7V201.51A7.83,7.83,0,0,0,62.68,209.35Z"/><path class="cls-2" d="M62.57,209.35H236.15a6.71,6.71,0,0,0,6.71-6.71V84.8a7,7,0,0,0-7-7H61.73a7,7,0,0,0-7,7V201.51A7.83,7.83,0,0,0,62.57,209.35Z"/><path class="cls-2" d="M62.46,209.35H236a6.71,6.71,0,0,0,6.71-6.71V84.8a7,7,0,0,0-7-7H61.61a7,7,0,0,0-7,7V201.51A7.83,7.83,0,0,0,62.46,209.35Z"/><path class="cls-2" d="M62.35,209.35H235.93a6.71,6.71,0,0,0,6.71-6.71V84.8a7,7,0,0,0-7-7H61.5a7,7,0,0,0-7,7V201.51A7.83,7.83,0,0,0,62.35,209.35Z"/><path class="cls-2" d="M62.24,209.35H235.82a6.71,6.71,0,0,0,6.71-6.71V84.8a7,7,0,0,0-7-7H61.39a7,7,0,0,0-7,7V201.51A7.83,7.83,0,0,0,62.24,209.35Z"/><path class="cls-2" d="M62.12,209.35H235.71a6.71,6.71,0,0,0,6.71-6.71V84.8a7,7,0,0,0-7-7H61.28a7,7,0,0,0-7,7V201.51A7.83,7.83,0,0,0,62.12,209.35Z"/><path class="cls-2" d="M62,209.35H235.59a6.71,6.71,0,0,0,6.71-6.71V84.8a7,7,0,0,0-7-7H61.17a7,7,0,0,0-7,7V201.51A7.83,7.83,0,0,0,62,209.35Z"/><path class="cls-2" d="M61.9,209.35H235.48a6.71,6.71,0,0,0,6.71-6.71V84.8a7,7,0,0,0-7-7H61.05a7,7,0,0,0-7,7V201.51A7.83,7.83,0,0,0,61.9,209.35Z"/><path class="cls-2" d="M61.79,209.35H235.37a6.71,6.71,0,0,0,6.71-6.71V84.8a7,7,0,0,0-7-7H60.94a7,7,0,0,0-7,7V201.51A7.83,7.83,0,0,0,61.79,209.35Z"/><path class="cls-2" d="M61.68,209.35H235.26a6.71,6.71,0,0,0,6.71-6.71V84.8a7,7,0,0,0-7-7H60.83a7,7,0,0,0-7,7V201.51A7.83,7.83,0,0,0,61.68,209.35Z"/><path class="cls-2" d="M61.56,209.35H235.15a6.71,6.71,0,0,0,6.71-6.71V84.8a7,7,0,0,0-7-7H60.72a7,7,0,0,0-7,7V201.51A7.83,7.83,0,0,0,61.56,209.35Z"/><path class="cls-2" d="M61.45,209.35H235a6.71,6.71,0,0,0,6.71-6.71V84.8a7,7,0,0,0-7-7H60.61a7,7,0,0,0-7,7V201.51A7.83,7.83,0,0,0,61.45,209.35Z"/><path class="cls-2" d="M61.34,209.35H234.92a6.71,6.71,0,0,0,6.71-6.71V84.8a7,7,0,0,0-7-7H60.49a7,7,0,0,0-7,7V201.51A7.83,7.83,0,0,0,61.34,209.35Z"/><path class="cls-2" d="M61.23,209.35H234.81a6.71,6.71,0,0,0,6.71-6.71V84.8a7,7,0,0,0-7-7H60.38a7,7,0,0,0-7,7V201.51A7.83,7.83,0,0,0,61.23,209.35Z"/><path class="cls-2" d="M61.12,209.35H234.7a6.71,6.71,0,0,0,6.71-6.71V84.8a7,7,0,0,0-7-7H60.27a7,7,0,0,0-7,7V201.51A7.83,7.83,0,0,0,61.12,209.35Z"/><path class="cls-2" d="M61,209.35H234.59a6.71,6.71,0,0,0,6.71-6.71V84.8a7,7,0,0,0-7-7H60.16a7,7,0,0,0-7,7V201.51A7.83,7.83,0,0,0,61,209.35Z"/><path class="cls-2" d="M60.89,209.35H234.47a6.71,6.71,0,0,0,6.71-6.71V84.8a7,7,0,0,0-7-7H60a7,7,0,0,0-7,7V201.51A7.83,7.83,0,0,0,60.89,209.35Z"/><path class="cls-2" d="M60.78,209.35H234.36a6.71,6.71,0,0,0,6.71-6.71V84.8a7,7,0,0,0-7-7H59.94a7,7,0,0,0-7,7V201.51A7.83,7.83,0,0,0,60.78,209.35Z"/><path class="cls-2" d="M60.67,209.35H234.25a6.71,6.71,0,0,0,6.71-6.71V84.8a7,7,0,0,0-7-7H59.82a7,7,0,0,0-7,7V201.51A7.83,7.83,0,0,0,60.67,209.35Z"/><path class="cls-2" d="M60.56,209.35H234.14a6.71,6.71,0,0,0,6.71-6.71V84.8a7,7,0,0,0-7-7H59.71a7,7,0,0,0-7,7V201.51A7.83,7.83,0,0,0,60.56,209.35Z"/><path class="cls-2" d="M60.45,209.35H234a6.71,6.71,0,0,0,6.71-6.71V84.8a7,7,0,0,0-7-7H59.6a7,7,0,0,0-7,7V201.51A7.83,7.83,0,0,0,60.45,209.35Z"/><path class="cls-2" d="M60.33,209.35H233.92a6.71,6.71,0,0,0,6.71-6.71V84.8a7,7,0,0,0-7-7H59.49a7,7,0,0,0-7,7V201.51A7.83,7.83,0,0,0,60.33,209.35Z"/><path class="cls-2" d="M60.22,209.35H233.8a6.71,6.71,0,0,0,6.71-6.71V84.8a7,7,0,0,0-7-7H59.38a7,7,0,0,0-7,7V201.51A7.83,7.83,0,0,0,60.22,209.35Z"/><path class="cls-2" d="M60.11,209.35H233.69a6.71,6.71,0,0,0,6.71-6.71V84.8a7,7,0,0,0-7-7H59.26a7,7,0,0,0-7,7V201.51A7.83,7.83,0,0,0,60.11,209.35Z"/><path class="cls-3" d="M60.11,209.35H233.69a6.71,6.71,0,0,0,6.71-6.71V84.8a7,7,0,0,0-7-7H59.26a7,7,0,0,0-7,7V201.51A7.83,7.83,0,0,0,60.11,209.35Z"/><rect class="cls-4" x="63.47" y="89" width="165.75" height="101.32"/><path class="cls-2" d="M7.28,202.06H236.44a7.28,7.28,0,0,1,7.28,7.28v0a0,0,0,0,1,0,0H0a0,0,0,0,1,0,0v0A7.28,7.28,0,0,1,7.28,202.06Z" transform="translate(243.72 411.41) rotate(180)"/><rect id="_Rectangle_" data-name="&lt;Rectangle&gt;" class="cls-5" x="95.68" y="56.79" width="101.32" height="165.75" transform="translate(286 -6.68) rotate(90)"/><path class="cls-6" d="M122,180.22V159.53a.88.88,0,0,1,.88-.88h29.69V114a1.81,1.81,0,0,0-1.81-1.81H94.47A1.81,1.81,0,0,0,92.66,114v76.29h59.87v-9.23H122.84A.88.88,0,0,1,122,180.22ZM95.47,135.66V116.83A1.81,1.81,0,0,1,97.28,115h50.67a1.81,1.81,0,0,1,1.81,1.81v18.83a1.81,1.81,0,0,1-1.81,1.81H97.28A1.81,1.81,0,0,1,95.47,135.66Z"/><path class="cls-7" d="M215.91,112.23H159.66a1.81,1.81,0,0,0-1.81,1.81v44.62h2.79V141a.88.88,0,0,1,.88-.88H214a.88.88,0,0,1,.88.88v20.68a.88.88,0,0,1-.88.88H176.24v17.65a.88.88,0,0,1-.88.88H157.85v9.23h59.87V114A1.81,1.81,0,0,0,215.91,112.23Zm-1,24.36a.88.88,0,0,1-.88.88H161.52a.88.88,0,0,1-.88-.88V115.91a.88.88,0,0,1,.88-.88H214a.88.88,0,0,1,.88.88Z"/><path class="cls-8" d="M214,115H161.52a.88.88,0,0,0-.88.88v20.68a.88.88,0,0,0,.88.88H214a.88.88,0,0,0,.88-.88V115.91A.88.88,0,0,0,214,115ZM177.46,132.8H164.67v-2h12.79Zm23-12H164.67v-2H200.5Zm7.17,12.4a3.92,3.92,0,1,1,3.92-3.92A3.92,3.92,0,0,1,207.68,133.15Z"/><path class="cls-8" d="M176.24,159.53v3H214a.88.88,0,0,0,.88-.88V141a.88.88,0,0,0-.88-.88H161.52a.88.88,0,0,0-.88.88v17.65h14.72A.88.88,0,0,1,176.24,159.53Zm31.44-8.67a3.92,3.92,0,1,1-3.92,3.92A3.92,3.92,0,0,1,207.68,150.86Zm-43-7H200.5v2H164.67Z"/><path class="cls-6" d="M122.84,158.65a.88.88,0,0,0-.88.88v20.68a.88.88,0,0,0,.88.88h29.69V158.65Z"/><path class="cls-9" d="M122.84,158.65a.88.88,0,0,0-.88.88v20.68a.88.88,0,0,0,.88.88h29.69V158.65Z"/><path class="cls-7" d="M176.24,180.22V162.56H161.52a.88.88,0,0,1-.88-.88v-3h-2.79v22.44h17.51A.88.88,0,0,0,176.24,180.22Z"/><path class="cls-10" d="M176.24,180.22V162.56H161.52a.88.88,0,0,1-.88-.88v-3h-2.79v22.44h17.51A.88.88,0,0,0,176.24,180.22Z"/><path class="cls-8" d="M161.52,162.56h14.72v-3a.88.88,0,0,0-.88-.88H160.64v3A.88.88,0,0,0,161.52,162.56Z"/><path class="cls-11" d="M161.52,162.56h14.72v-3a.88.88,0,0,0-.88-.88H160.64v3A.88.88,0,0,0,161.52,162.56Z"/><path class="cls-5" d="M149.75,135.66V116.83a1.81,1.81,0,0,0-1.81-1.81H97.28a1.81,1.81,0,0,0-1.81,1.81v18.83a1.81,1.81,0,0,0,1.81,1.81h50.67A1.81,1.81,0,0,0,149.75,135.66Zm-37.62-2.86H99.34v-2h12.79Zm23-12H99.34v-2h35.83Zm6.86,12.4a3.92,3.92,0,1,1,3.92-3.92A3.92,3.92,0,0,1,142,133.15Z"/><circle class="cls-6" cx="142.04" cy="129.24" r="3.92"/><circle class="cls-12" cx="207.68" cy="129.24" r="3.92"/><circle class="cls-12" cx="207.68" cy="154.77" r="3.92"/><rect class="cls-3" x="99.34" y="118.75" width="35.83" height="2"/><rect class="cls-3" x="99.34" y="130.8" width="12.79" height="2"/><rect class="cls-7" x="164.67" y="118.75" width="35.83" height="2"/><rect class="cls-7" x="164.67" y="130.8" width="12.79" height="2"/><rect class="cls-7" x="164.67" y="143.83" width="35.83" height="2"/><rect class="cls-2" x="63.47" y="89" width="165.75" height="14.52"/><rect class="cls-7" x="63.47" y="103.52" width="17.19" height="86.8"/><circle class="cls-13" cx="70.76" cy="96.26" r="3.03"/><circle class="cls-14" cx="80.64" cy="96.26" r="3.03"/><circle class="cls-7" cx="90.53" cy="96.26" r="3.03"/><rect class="cls-15" x="124.57" y="25.37" width="50.75" height="57.22"/><circle class="cls-16" cx="149.95" cy="25.37" r="25.37"/><path class="cls-6" d="M145.33,35.27l-8.19-8.64a1,1,0,0,1,0-1.41l2.18-2.06a1,1,0,0,1,1.41,0l5.43,5.73,14.15-13.48a1,1,0,0,1,1.41,0l2.07,2.17a1,1,0,0,1,0,1.41L146.74,35.3A1,1,0,0,1,145.33,35.27Z"/><rect id="_Rectangle_2" data-name="&lt;Rectangle&gt;" class="cls-17" x="128.31" y="152.84" width="54.28" height="22.44" rx="0.88" ry="0.88"/><circle class="cls-6" cx="175.09" cy="167.69" r="3.92"/><rect class="cls-14" x="132.78" y="156.52" width="35.83" height="2"/><rect class="cls-14" x="132.78" y="168.57" width="12.79" height="2"/></g></g></g></svg>