<svg xmlns="http://www.w3.org/2000/svg" xmlns:xlink="http://www.w3.org/1999/xlink" viewBox="0 0 226.3272 215.927">
  <defs>
    <style>
      .cls-1 {
        isolation: isolate;
      }

      .cls-2 {
        fill: #a5adba;
      }

      .cls-3 {
        fill: #cfd4db;
      }

      .cls-4 {
        mix-blend-mode: multiply;
        fill: url(#N75);
      }

      .cls-5 {
        fill: #ffab00;
      }

      .cls-6 {
        fill: #0065ff;
      }

      .cls-7 {
        fill: none;
        stroke: #0049b0;
        stroke-miterlimit: 10;
        stroke-width: 2px;
      }

      .cls-8 {
        fill: #ffc400;
      }
    </style>
    <linearGradient id="N75" x1="5.5146" y1="96.5858" x2="221.4412" y2="96.5858" gradientTransform="translate(97.2932 -49.6982) rotate(45.0001)" gradientUnits="userSpaceOnUse">
      <stop offset="0" stop-color="#e5e8ec"/>
      <stop offset="1" stop-color="#e5e8ec" stop-opacity="0.1"/>
    </linearGradient>
  </defs>
  <title>Tools</title>
  <g class="cls-1">
    <g id="Layer_2" data-name="Layer 2">
      <g id="Objects">
        <circle class="cls-2" cx="49.1509" cy="38.7526" r="14.281" transform="translate(-13.0063 46.1053) rotate(-45)"/>
        <path id="_Path_" data-name="&lt;Path&gt;" class="cls-3" d="M167.6862,132.7385h0a12.3574,12.3574,0,0,1-7.9469-3.594L80.4223,49.8276,60.2259,70.024l79.317,79.3169a12.3574,12.3574,0,0,1,3.594,7.9468v0a12.3574,12.3574,0,0,0,3.594,7.9467l30.0214,30.0215a20.4364,20.4364,0,0,0,28.9015,0h0a20.4309,20.4309,0,0,0,.005-28.8963c-9.5669-9.5675-23.6887-23.69-30.0289-30.03A12.3452,12.3452,0,0,0,167.6862,132.7385Z"/>
        <rect class="cls-4" x="98.0328" y="83.6345" width="28.5621" height="36.5622" transform="translate(-39.1692 109.2685) rotate(-45.0001)"/>
        <path class="cls-5" d="M14.8379,62.0213l-.2454-.2454a4.4652,4.4652,0,0,0-6.3147,0L0,70.0538,36.2122,106.266,44.49,97.9881a4.4652,4.4652,0,0,0,0-6.3147h0a4.1816,4.1816,0,0,1,0-5.9136L70.3241,59.9258,46.5856,36.1873,20.7516,62.0213A4.1816,4.1816,0,0,1,14.8379,62.0213Z"/>
        <path class="cls-6" d="M188.8137,37.5138h0a9.369,9.369,0,0,0,13.25,0l19.2811-19.2811A36.7115,36.7115,0,0,1,185.4058,73.18a11.9739,11.9739,0,0,0-9.8352,3.43l-88.56,88.56a11.9739,11.9739,0,0,0-3.43,9.8352,36.7116,36.7116,0,0,1-54.9475,35.9389l19.2812-19.2812a9.369,9.369,0,0,0,0-13.25h0l-.0021,0h0a9.369,9.369,0,0,0-13.25,0L15.381,197.6943A36.7116,36.7116,0,0,1,51.32,142.7468a11.9739,11.9739,0,0,0,9.8352-3.43l88.56-88.56a11.9739,11.9739,0,0,0,3.43-9.8352A36.7115,36.7115,0,0,1,208.0927,4.9826L188.8116,24.2637a9.369,9.369,0,0,0,0,13.25h0"/>
        <rect class="cls-7" x="63.2611" y="99.9395" width="110.4863" height="16.3327" rx="8.1664" ry="8.1664" transform="translate(-41.7333 115.4586) rotate(-45)"/>
        <path class="cls-5" d="M67.4658,15.3071l-2.224,2.224L46.5857,36.1872,70.3242,59.9257l9.7683-9.7683a5.048,5.048,0,0,0,.6337-6.3022A18.4031,18.4031,0,0,1,104.107,17.346a9.6166,9.6166,0,0,0,10.8357-2.0389h0A33.5712,33.5712,0,0,0,67.4658,15.3071Z"/>
        <path id="_Path_2" data-name="&lt;Path&gt;" class="cls-5" d="M206.6244,167.3238l-41.853-41.853a6.1785,6.1785,0,0,0-8.7377,0l-20.1646,20.1646a6.1785,6.1785,0,0,0,0,8.7377l41.853,41.853a18.87,18.87,0,0,1,5.39,11.078l.298,2.4644a3.38,3.38,0,0,0,.9657,1.9845h0a3.38,3.38,0,0,0,4.7806,0l2.0461-2.0461,28.9023-28.9023,2.0461-2.0461a3.38,3.38,0,0,0,0-4.7806h0a3.38,3.38,0,0,0-1.9845-.9657l-2.4644-.298A18.87,18.87,0,0,1,206.6244,167.3238Z"/>
        <rect class="cls-8" x="170.4523" y="179.491" width="40.8741" height="1.9998" transform="translate(-71.7162 187.8437) rotate(-45)"/>
        <rect class="cls-8" x="164.3632" y="173.402" width="40.8741" height="1.9998" transform="translate(-69.1941 181.7546) rotate(-45)"/>
        <rect class="cls-8" x="158.2738" y="167.3127" width="40.8741" height="1.9998" transform="translate(-66.6718 175.6653) rotate(-45)"/>
      </g>
    </g>
  </g>
</svg>
