<svg xmlns="http://www.w3.org/2000/svg" width="24" height="24" viewBox="0 0 24 24">
  <path fill="#36B37E" fill-rule="evenodd" d="M10.4170488,10 L13,10 C13.5522847,10 14,10.4477153 14,11 L14,12 C14,12.5522847 14.4477153,13 15,13 C15.5522847,13 16,12.5522847 16,12 L16,11 C16,9.34314575 14.6568542,8 13,8 L10.4145,8 L10.709,7.7055 C11.101,7.3145 11.101,6.6815 10.71,6.2905 C10.515,6.0955 10.259,5.9975 10.003,5.9975 C9.747,5.9975 9.492,6.0955 9.296,6.2905 L7.293,8.2915 C6.902,8.6825 6.902,9.3165 7.294,9.7065 L9.296,11.7075 C9.687,12.0975 10.32,12.0975 10.71,11.7055 C11.101,11.3155 11.1,10.6825 10.709,10.2915 L10.4170488,10 Z M6,4 L18,4 C19.1045695,4 20,4.8954305 20,6 L20,18 C20,19.1045695 19.1045695,20 18,20 L6,20 C4.8954305,20 4,19.1045695 4,18 L4,6 C4,4.8954305 4.8954305,4 6,4 Z M15,18 C16.1045695,18 17,17.1045695 17,16 C17,14.8954305 16.1045695,14 15,14 C13.8954305,14 13,14.8954305 13,16 C13,17.1045695 13.8954305,18 15,18 Z"/>
</svg>
