<svg width="24" height="24" viewBox="0 0 24 24" xmlns="http://www.w3.org/2000/svg"><title>emoji-icon-v2</title><path d="M18.75 5.25h1.35a.9.9 0 1 1 0 1.8h-1.35V8.4a.9.9 0 1 1-1.8 0V7.05H15.6a.9.9 0 1 1 0-1.8h1.35V3.9a.9.9 0 1 1 1.8 0v1.35zm-3.7417-1.735c-.8536.1909-1.5545.7858-1.8917 1.5736A7.0508 7.0508 0 0 0 12 5c-3.866 0-7 3.134-7 7s3.134 7 7 7 7-3.134 7-7c0-.38-.0303-.753-.0886-1.1166.7878-.3372 1.3827-1.0381 1.5736-1.8917C20.8185 9.9324 21 10.945 21 12c0 4.9706-4.0294 9-9 9s-9-4.0294-9-9 4.0294-9 9-9c1.055 0 2.0676.1815 3.0083.515zM8.049 14.1967c-.1663-.4762.1034-.991.6023-1.1498.499-.1588 1.0383.0986 1.2046.575.0609.1741.2247.4869.4948.7963.4259.4878.9558.7637 1.6492.7637s1.2233-.2759 1.6492-.7637c.2701-.3094.434-.6222.4948-.7964.1663-.4763.7056-.7337 1.2046-.5749.499.1588.7686.6736.6023 1.1498-.1297.3713-.3944.8766-.8385 1.3854C14.3479 16.4578 13.3064 17 12 17c-1.3065 0-2.3479-.5422-3.1124-1.418-.4441-.5087-.7088-1.014-.8385-1.3853zM9.5 11C8.6716 11 8 10.3284 8 9.5S8.6716 8 9.5 8s1.5.6716 1.5 1.5-.6716 1.5-1.5 1.5zm5 0c-.8284 0-1.5-.6716-1.5-1.5S13.6716 8 14.5 8s1.5.6716 1.5 1.5-.6716 1.5-1.5 1.5z" fill="#42526E" fill-rule="nonzero"/></svg>