<?xml version="1.0" encoding="UTF-8" standalone="no"?>
<svg width="24px" height="24px" viewBox="0 0 24 24" version="1.1" xmlns="http://www.w3.org/2000/svg" xmlns:xlink="http://www.w3.org/1999/xlink">
    <!-- Generator: Sketch 46.2 (44496) - http://www.bohemiancoding.com/sketch -->
    <title>icons/jira-software</title>
    <desc>Created with Sketch.</desc>
    <defs>
        <linearGradient x1="28.2635218%" y1="81.6596195%" x2="80.4180561%" y2="47.7674419%" id="linearGradient-1">
            <stop stop-color="#42526E" stop-opacity="0.4" offset="0%"></stop>
            <stop stop-color="#42526E" offset="100%"></stop>
        </linearGradient>
        <linearGradient x1="89.3274705%" y1="41.8054431%" x2="36.7523479%" y2="75.9322249%" id="linearGradient-2">
            <stop stop-color="#42526E" stop-opacity="0.4" offset="0%"></stop>
            <stop stop-color="#42526E" offset="100%"></stop>
        </linearGradient>
    </defs>
    <g id="Global" stroke="none" stroke-width="1" fill="none" fill-rule="evenodd">
        <g id="icons/jira-software" fill-rule="nonzero">
            <path d="M11.9027027,22.1852632 C12.8592873,21.2311343 13.3967388,19.9367171 13.3967388,18.5869737 C13.3967388,17.2372302 12.8592873,15.942813 11.9027027,14.9886842 L11.9027027,14.9886842 L5.25945946,8.38013158 L2.23783784,11.3957895 C1.92167202,11.7117242 1.92167202,12.223539 2.23783784,12.5394737 L11.9027027,22.1852632 L11.9027027,22.1852632 Z" id="Shape" fill="#42526E"></path>
            <path d="M15.2081081,11.6898026 L11.9027027,14.9886842 C12.8592873,15.942813 13.3967388,17.2372302 13.3967388,18.5869737 C13.3967388,19.9367171 12.8592873,21.2311343 11.9027027,22.1852632 L18.8135135,15.2880921 L15.2081081,11.6898026 Z" id="Shape" fill="url(#linearGradient-1)"></path>
            <path d="M21.5675676,11.3957895 L11.9027027,1.75 L11.9027027,1.75 L11.872973,1.77967105 L11.872973,1.77967105 C9.90306492,3.76972993 9.91272385,6.97378086 11.8945946,8.95197368 L18.5432432,15.5578289 L21.5675676,12.5394737 C21.8837334,12.223539 21.8837334,11.7117242 21.5675676,11.3957895 Z" id="Shape" fill="#42526E"></path>
            <path d="M11.9027027,8.94657895 C9.92083196,6.96838612 9.91117303,3.76433519 11.8810811,1.77427632 L4.98648649,8.65256579 L8.59189189,12.2508553 L11.9027027,8.94657895 Z" id="Shape" fill="url(#linearGradient-2)"></path>
        </g>
    </g>
</svg>
