<?xml version="1.0" encoding="UTF-8" standalone="no"?>
<svg width="24px" height="24px" viewBox="0 0 24 24" version="1.1" xmlns="http://www.w3.org/2000/svg" xmlns:xlink="http://www.w3.org/1999/xlink">
    <!-- Generator: Sketch 46.2 (44496) - http://www.bohemiancoding.com/sketch -->
    <title>icons/jira</title>
    <desc>Created with Sketch.</desc>
    <defs>
        <linearGradient x1="90.9850985%" y1="7.46948608%" x2="58.8877062%" y2="40.7655246%" id="linearGradient-1">
            <stop stop-color="#42526E" stop-opacity="0.4" offset="0%"></stop>
            <stop stop-color="#42526E" offset="100%"></stop>
        </linearGradient>
    </defs>
    <g id="Global" stroke="none" stroke-width="1" fill="none" fill-rule="evenodd">
        <g id="icons/jira" fill-rule="nonzero">
            <path d="M21.1138889,2 L11.5083333,2 C11.5083333,3.15000817 11.9651723,4.252915 12.7783509,5.06609357 C13.5915294,5.87927214 14.6944363,6.33611111 15.8444444,6.33611111 L17.6138889,6.33611111 L17.6138889,8.04444444 C17.6154211,10.4370434 19.5546233,12.3762455 21.9472222,12.3777778 L21.9472222,2.83333333 C21.9472222,2.37309604 21.5741262,2 21.1138889,2 Z" id="Shape" fill="#42526E"></path>
            <path d="M16.3611111,6.78611111 L6.75555556,6.78611111 C6.7570878,9.17871006 8.69628994,11.1179122 11.0888889,11.1194444 L12.8583333,11.1194444 L12.8583333,12.8333333 C12.8613988,15.2259315 14.8018443,17.1638909 17.1944444,17.1638889 L17.1944444,7.61944444 C17.1944444,7.15920715 16.8213484,6.78611111 16.3611111,6.78611111 Z" id="Shape" fill="url(#linearGradient-1)"></path>
            <path d="M11.6055556,11.5694444 L2,11.5694444 C2,13.9642125 3.94134307,15.9055556 6.33611111,15.9055556 L8.11111111,15.9055556 L8.11111111,17.6138889 C8.11263805,20.0043219 10.0484598,21.9426287 12.4388889,21.9472222 L12.4388889,12.4027778 C12.4388889,11.9425405 12.0657928,11.5694444 11.6055556,11.5694444 Z" id="Shape" fill="url(#linearGradient-1)"></path>
        </g>
    </g>
</svg>