<?xml version="1.0" encoding="UTF-8" standalone="no"?>
<svg width="24px" height="24px" viewBox="0 0 24 24" version="1.1" xmlns="http://www.w3.org/2000/svg" xmlns:xlink="http://www.w3.org/1999/xlink">
    <!-- Generator: Sketch 45.1 (43504) - http://www.bohemiancoding.com/sketch -->
    <title>icons/star-filled</title>
    <desc>Created with Sketch.</desc>
    <defs></defs>
    <g id="Global" stroke="none" stroke-width="1" fill="none" fill-rule="evenodd">
        <g id="icons/star-filled" fill="#42526E">
            <path d="M11.9999675,17.5143076 L8.5016854,19.4418798 L8.5016854,19.4418798 C8.01797022,19.7084095 7.40977659,19.5323458 7.14324692,19.0486307 C7.03513904,18.8524295 6.99603991,18.6256112 7.03221771,18.404538 L7.71220618,14.2493029 L4.78928154,11.2631842 L4.78928154,11.2631842 C4.40295579,10.868506 4.40972677,10.2353773 4.80440494,9.84905151 C4.95416057,9.70246511 5.14618271,9.60662899 5.35335143,9.5750784 L9.34998526,8.96641448 L11.0952545,5.26010666 L11.0952545,5.26010666 C11.3305399,4.76044751 11.9263301,4.54613016 12.4259892,4.78141547 C12.6363529,4.88047398 12.8056219,5.04974296 12.9046804,5.26010666 L14.6499497,8.96641448 L18.6465835,9.5750784 L18.6465835,9.5750784 C19.1925729,9.65822938 19.5677775,10.1682484 19.4846265,10.7142377 C19.4530759,10.9214064 19.3572398,11.1134286 19.2106534,11.2631842 L16.2877288,14.2493029 L16.9677172,18.404538 L16.9677172,18.404538 C17.0569101,18.9495729 16.6873772,19.4637161 16.1423422,19.552909 C15.921269,19.5890868 15.6944507,19.5499877 15.4982495,19.4418798 L11.9999675,17.5143076 Z" id="Star-2"></path>
        </g>
    </g>
</svg>