<?xml version="1.0" encoding="UTF-8" standalone="no"?>
<svg width="24px" height="24px" viewBox="0 0 24 24" version="1.1" xmlns="http://www.w3.org/2000/svg" xmlns:xlink="http://www.w3.org/1999/xlink">
    <!-- Generator: Sketch 46.2 (44496) - http://www.bohemiancoding.com/sketch -->
    <title>icons/stride</title>
    <desc>Created with Sketch.</desc>
    <defs>
        <linearGradient x1="62.9033741%" y1="37.9964517%" x2="3.20549956%" y2="70.7051948%" id="linearGradient-1">
            <stop stop-color="#42526E" stop-opacity="0.4" offset="0%"></stop>
            <stop stop-color="#42526E" offset="100%"></stop>
        </linearGradient>
    </defs>
    <g id="Global" stroke="none" stroke-width="1" fill="none" fill-rule="evenodd">
        <g id="icons/stride" fill-rule="nonzero">
            <path d="M8.44289855,6 L8.44289855,8.55357143 C8.44289855,12.0891071 6.67130435,13.4541071 4.4173913,13.6607143 C4.17952404,13.6846445 3.99880197,13.8856709 4,14.125 C4,15.0767857 4,17.32625 4,18.3035714 C3.99980693,18.4312624 4.05215374,18.5533965 4.14472506,18.6412397 C4.23729639,18.729083 4.36191964,18.7748803 4.48927536,18.7678571 C10.1333333,18.48 13.5327536,14.3571429 13.5327536,9.23839286 L13.5489855,9.23839286 L13.5489855,6 L8.44289855,6 Z" id="Shape" fill="url(#linearGradient-1)"></path>
            <path d="M19.7681159,18.0969643 L13.7924638,6 L8.44289855,6 L14.7547826,18.3894643 C14.8739409,18.6218571 15.1129825,18.7679517 15.373913,18.7678571 L19.3576812,18.7678571 C19.5173387,18.7661783 19.6649067,18.6823974 19.7482981,18.5460866 C19.8316894,18.4097758 19.8391763,18.2401056 19.7681159,18.0969643 Z" id="Shape" fill="#42526E"></path>
        </g>
    </g>
</svg>
