<?xml version="1.0" encoding="UTF-8" standalone="no"?>
<svg width="24px" height="24px" viewBox="0 0 24 24" version="1.1" xmlns="http://www.w3.org/2000/svg" xmlns:xlink="http://www.w3.org/1999/xlink">
    <!-- Generator: Sketch 45.1 (43504) - http://www.bohemiancoding.com/sketch -->
    <title>icons/vid-backward</title>
    <desc>Created with Sketch.</desc>
    <defs></defs>
    <g id="Global" stroke="none" stroke-width="1" fill="none" fill-rule="evenodd">
        <g id="icons/vid-backward" fill="#42526E">
            <path d="M12.2486012,4.17430283 L3.30211123,11.6777754 C2.8860396,12.0263811 2.9021885,12.5820374 3.33535897,12.9200792 L12.2144036,19.8340914 C12.6523237,20.1753023 13,19.9724772 13,19.3882987 L13,4.60108066 C13,4.21338892 12.85276,4 12.6342749,4 C12.5212326,4 12.3891916,4.05598818 12.2486012,4.17430283 Z" id="Clip-2-Copy"></path>
            <path d="M20.2486012,4.17430283 L11.3021112,11.6777754 C10.8860396,12.0263811 10.9021885,12.5820374 11.335359,12.9200792 L20.2144036,19.8340914 C20.6523237,20.1753023 21,19.9724772 21,19.3882987 L21,4.60108066 C21,4.21338892 20.85276,4 20.6342749,4 C20.5212326,4 20.3891916,4.05598818 20.2486012,4.17430283 Z" id="Clip-5-Copy"></path>
        </g>
    </g>
</svg>