<?xml version="1.0" encoding="UTF-8"?>
<svg width="24px" height="24px" viewBox="0 0 24 24" version="1.1" xmlns="http://www.w3.org/2000/svg" xmlns:xlink="http://www.w3.org/1999/xlink">
    <!-- Generator: Sketch 50 (54983) - http://www.bohemiancoding.com/sketch -->
    <title>_icon / editor / full width</title>
    <desc>Created with Sketch.</desc>
    <defs></defs>
    <g id="_icon-/-editor-/-full-width" stroke="none" stroke-width="1" fill="none" fill-rule="evenodd">
        <path d="M7,5 L17,5 C18.1045695,5 19,5.8954305 19,7 L19,17 C19,18.1045695 18.1045695,19 17,19 L7,19 C5.8954305,19 5,18.1045695 5,17 L5,7 C5,5.8954305 5.8954305,5 7,5 Z M7,13 L7,17 L11,17 L11,13 L7,13 Z M13,13 L13,17 L17,17 L17,13 L13,13 Z M7,7 L7,11 L11,11 L11,7 L7,7 Z M13,7 L13,11 L17,11 L17,7 L13,7 Z" id="Rectangle-2" fill="#42526E"></path>
    </g>
</svg>