<?xml version="1.0" encoding="UTF-8"?>
<svg width="24px" height="24px" viewBox="0 0 24 24" version="1.1" xmlns="http://www.w3.org/2000/svg" xmlns:xlink="http://www.w3.org/1999/xlink">
    <!-- Generator: Sketch 50 (54983) - http://www.bohemiancoding.com/sketch -->
    <title>_icon / editor / full width</title>
    <desc>Created with Sketch.</desc>
    <defs></defs>
    <g id="_icon-/-editor-/-full-width" stroke="none" stroke-width="1" fill="none" fill-rule="evenodd">
        <path d="M11,7 L11,6 C11,5.44771525 11.4477153,5 12,5 C12.5522847,5 13,5.44771525 13,6 L13,18 C13,18.5522847 12.5522847,19 12,19 C11.4477153,19 11,18.5522847 11,18 L11,17 L10,17 C9.44771525,17 9,16.5522847 9,16 C9,15.4477153 9.44771525,15 10,15 L11,15 L11,13 L8,13 C7.44771525,13 7,12.5522847 7,12 C7,11.4477153 7.44771525,11 8,11 L11,11 L11,9 L5,9 C4.44771525,9 4,8.55228475 4,8 C4,7.44771525 4.44771525,7 5,7 L11,7 Z M14,15 L19,15 C19.5522847,15 20,15.4477153 20,16 C20,16.5522847 19.5522847,17 19,17 L14,17 L14,15 Z M14,11 L16,11 C16.5522847,11 17,11.4477153 17,12 C17,12.5522847 16.5522847,13 16,13 L14,13 L14,11 Z M14,7 L15,7 C15.5522847,7 16,7.44771525 16,8 C16,8.55228475 15.5522847,9 15,9 L14,9 L14,7 Z" id="Combined-Shape" fill="#42526E"></path>
    </g>
</svg>