<svg xmlns="http://www.w3.org/2000/svg" width="50" height="64" viewBox="0 0 50 64">
  <g fill="none" fill-rule="evenodd">
    <path fill="#FFF" stroke="#091E42" stroke-opacity=".08" d="M4,0.5 L33.4482107,0.5 C34.3733699,0.5 35.2608971,0.866298128 35.9167529,1.51881089 L48.4685422,14.0066223 C49.1287916,14.6635063 49.5,15.5564545 49.5,16.4878114 L49.5,60 C49.5,61.9329966 47.9329966,63.5 46,63.5 L4,63.5 C2.06700338,63.5 0.5,61.9329966 0.5,60 L0.5,4 C0.5,2.06700338 2.06700338,0.5 4,0.5 Z"/>
    <path fill="#0A9D58" d="M28.5568306,23.8331318 L34.0133661,33.3419352 L27.6881383,33.4064335 L22.2316028,23.8969583 L28.5568306,23.8331318 Z M15.6666667,34.4599065 L18.883699,39.9395787 L24.3402346,30.4301035 L21.1232022,24.9504313 L15.6666667,34.4599065 Z M23.4201286,34.6238398 L20.3126009,40.1666667 L31.2256721,40.1666667 L34.3331998,34.6238398 L23.4201286,34.6238398 Z"/>
  </g>
</svg>
