<svg xmlns="http://www.w3.org/2000/svg" width="50" height="64" viewBox="0 0 50 64">
  <g fill="none" fill-rule="evenodd">
    <path fill="#FFF" stroke="#091E42" stroke-opacity=".08" d="M4,0.5 L33.4482107,0.5 C34.3733699,0.5 35.2608971,0.866298128 35.9167529,1.51881089 L48.4685422,14.0066223 C49.1287916,14.6635063 49.5,15.5564545 49.5,16.4878114 L49.5,60 C49.5,61.9329966 47.9329966,63.5 46,63.5 L4,63.5 C2.06700338,63.5 0.5,61.9329966 0.5,60 L0.5,4 C0.5,2.06700338 2.06700338,0.5 4,0.5 Z"/>
    <path fill="#00B8D9" d="M27.513525,22.7305943 C28.122525,22.9405943 28.4468583,23.6044277 28.2368583,24.2134277 L22.603025,40.6004277 C22.3941917,41.2094277 21.7303583,41.533761 21.1201917,41.323761 C20.5111917,41.113761 20.1868583,40.4499277 20.3968583,39.8409277 L26.0306917,23.4550943 C26.2406917,22.8449277 26.904525,22.5205943 27.513525,22.7305943 Z M20.352875,32.3090443 C20.814875,32.7570443 20.8265417,33.496711 20.3785417,33.958711 C19.929375,34.4218777 19.190875,34.4323777 18.728875,33.9843777 L14.854375,30.2288777 C14.381875,29.7703777 14.381875,29.0120443 14.854375,28.5535443 L18.984375,24.5495443 C19.4475417,24.1003777 20.1860417,24.1120443 20.6340417,24.575211 C21.0832083,25.037211 21.0715417,25.775711 20.608375,26.2248777 L17.342875,29.391211 L20.352875,32.3090443 Z M34.608725,34.1384943 C35.081225,34.5969943 35.081225,35.3553277 34.608725,35.8138277 L30.478725,39.8178277 C30.0155583,40.2658277 29.2770583,40.2553277 28.8290583,39.792161 C28.3798917,39.3289943 28.3915583,38.5904943 28.854725,38.1424943 L32.120225,34.976161 L29.110225,32.0583277 C28.648225,31.609161 28.6365583,30.870661 29.0845583,30.408661 C29.533725,29.9454943 30.272225,29.9338277 30.734225,30.3829943 L34.608725,34.1384943 Z"/>
  </g>
</svg>
