<svg width="24" height="24" viewBox="0 0 24 24"><path d="M6 4h12a2 2 0 0 1 2 2v12a2 2 0 0 1-2 2H6a2 2 0 0 1-2-2V6a2 2 0 0 1 2-2zm9.912 7.767A.486.486 0 0 0 16 11.5a.5.5 0 0 0-.5-.5H13V7.5a.495.495 0 1 0-.872-.327l-.002-.001-3.977 4.973-.008.009-.028.036.002.004A.487.487 0 0 0 8 12.5a.5.5 0 0 0 .5.5c.028 0 .051-.011.077-.016H11V16.5a.5.5 0 0 0 .5.5c.124 0 .234-.05.321-.124l.004.001.007-.009c.03-.027.051-.059.074-.092l3.934-4.913c.019-.018.031-.039.047-.06l.027-.033-.002-.003z" fill="currentColor" fill-rule="evenodd"/></svg>