<svg xmlns="http://www.w3.org/2000/svg" width="50" height="64" viewBox="0 0 50 64">
  <g fill="none" fill-rule="evenodd">
    <path fill="#FFF" stroke="#091E42" stroke-opacity=".08" d="M4,0.5 L33.4482107,0.5 C34.3733699,0.5 35.2608971,0.866298128 35.9167529,1.51881089 L48.4685422,14.0066223 C49.1287916,14.6635063 49.5,15.5564545 49.5,16.4878114 L49.5,60 C49.5,61.9329966 47.9329966,63.5 46,63.5 L4,63.5 C2.06700338,63.5 0.5,61.9329966 0.5,60 L0.5,4 C0.5,2.06700338 2.06700338,0.5 4,0.5 Z"/>
    <path fill="#5E6C84" d="M21.5,21.5 L25,21.5 L25,25 L21.5,25 L21.5,21.5 Z M25,25 L28.5,25 L28.5,28.5 L25,28.5 L25,25 Z M21.5,28.5 L25,28.5 L25,32 L21.5,32 L21.5,28.5 Z M25,32 L28.5,32 L28.5,35.5 L25,35.5 L25,32 Z M21.5,35.5 L25,35.5 L25,39 L21.5,39 L21.5,35.5 Z M25,39 L28.5,39 L28.5,42.5 L25,42.5 L25,39 Z"/>
  </g>
</svg>
