<svg width="50" height="64" viewBox="0 0 50 64"><g fill-rule="evenodd"><path fill="#FFF" stroke="#091E42" stroke-opacity=".08" d="M4 .5h29.448a3.5 3.5 0 0 1 2.469 1.019l12.552 12.488a3.5 3.5 0 0 1 1.031 2.48V60a3.5 3.5 0 0 1-3.5 3.5H4A3.5 3.5 0 0 1 .5 60V4A3.5 3.5 0 0 1 4 .5z"/><path fill="#36B37E" d="M16.833 23.833h3.5a1.167 1.167 0 0 1 0 2.334h-3.5a1.167 1.167 0 0 1 0-2.334zm0 4.667h3.5a1.167 1.167 0 0 1 0 2.333h-3.5a1.167 1.167 0 1 1 0-2.333zm0 4.667h3.5a1.167 1.167 0 1 1 0 2.333h-3.5a1.167 1.167 0 0 1 0-2.333zm0 4.666h3.5a1.167 1.167 0 0 1 0 2.334h-3.5a1.167 1.167 0 0 1 0-2.334zm8.167-14h8.167a1.167 1.167 0 0 1 0 2.334H25a1.167 1.167 0 0 1 0-2.334zm0 4.667h8.167a1.167 1.167 0 0 1 0 2.333H25a1.167 1.167 0 1 1 0-2.333zm0 4.667h8.167a1.167 1.167 0 1 1 0 2.333H25a1.167 1.167 0 0 1 0-2.333zm0 4.666h8.167a1.167 1.167 0 0 1 0 2.334H25a1.167 1.167 0 0 1 0-2.334z"/></g></svg>