<svg width="50" height="64" viewBox="0 0 50 64"><g fill-rule="evenodd"><path fill="#FFF" stroke="#091E42" stroke-opacity=".08" d="M4 .5h29.448a3.5 3.5 0 0 1 2.469 1.019l12.552 12.488a3.5 3.5 0 0 1 1.031 2.48V60a3.5 3.5 0 0 1-3.5 3.5H4A3.5 3.5 0 0 1 .5 60V4A3.5 3.5 0 0 1 4 .5z"/><path fill="#6554C0" d="M18 34.333c.644 0 1.167.523 1.167 1.167V39a1.167 1.167 0 0 1-2.334 0v-3.5c0-.644.523-1.167 1.167-1.167zm9.333-7c.645 0 1.167.523 1.167 1.167V39a1.167 1.167 0 0 1-2.333 0V28.5c0-.644.522-1.167 1.166-1.167zM22.667 32c.644 0 1.166.522 1.166 1.167V39a1.167 1.167 0 1 1-2.333 0v-5.833c0-.645.522-1.167 1.167-1.167zM32 23.833c.644 0 1.167.523 1.167 1.167v14a1.167 1.167 0 0 1-2.334 0V25c0-.644.523-1.167 1.167-1.167z"/></g></svg>