<svg width="32" height="32" viewBox="0 0 32 32"><defs><linearGradient id="a" x1="50%" x2="50%" y1="-17.724%" y2="85.598%"><stop offset="0%" stop-color="inherit" stop-opacity=".4"/><stop offset="100%" stop-color="inherit"/></linearGradient></defs><g fill-rule="evenodd"><path fill="currentColor" d="M15.392 2.475c-3.278 5.194-3.062 10.946-.903 15.264l3.936 7.87a.7.7 0 0 0 .627.388h8.161a.7.7 0 0 0 .627-1.014S16.86 3.02 16.584 2.471c-.247-.492-.875-.499-1.192.004"/><path fill="url(#a)" d="M9.936 13.39L4.074 25.116a.699.699 0 0 0-.074.309v.01a.7.7 0 0 0 .7.696h8.165a.675.675 0 0 0 .627-.388c1.76-3.64.694-9.174-2.398-12.477a.786.786 0 0 0-.567-.265c-.235 0-.459.127-.59.39"/></g></svg>