<svg width="32" height="32" viewBox="0 0 32 32"><defs><linearGradient id="a" x1="50%" x2="62.422%" y1="-12.568%" y2="75.371%"><stop offset="0%" stop-color="inherit" stop-opacity=".4"/><stop offset="100%" stop-color="inherit"/></linearGradient></defs><path fill="currentColor" d="M21.418 16.84a.726.726 0 0 0-.711.643 4.756 4.756 0 0 1-4.71 4.098l1.566 7.155A12.036 12.036 0 0 0 28.01 17.631a.757.757 0 0 0-.742-.791h-5.85zm-4.215-.193l8.374-7.189a.757.757 0 0 0 0-1.135l-8.374-7.174a.757.757 0 0 0-1.207.579v14.378a.757.757 0 0 0 1.207.541zm-13.13 1.76A12.036 12.036 0 0 0 15.997 28.85v-7.27a4.752 4.752 0 0 1-4.752-4.741l-7.17 1.566z"/><path fill="url(#a)" d="M3.96 16.896h7.286A4.754 4.754 0 0 1 16 12.157L14.437 5A12.032 12.032 0 0 0 3.96 16.783v.113z"/></svg>