<svg width="32" height="32" viewBox="0 0 32 32"><defs><linearGradient id="a" x1="100%" x2="45.339%" y1="29.23%" y2="75.038%"><stop offset="0%" stop-color="inherit" stop-opacity=".4"/><stop offset="100%" stop-color="inherit"/></linearGradient></defs><path fill="currentColor" d="M4.786 5a.784.784 0 0 0-.784.91l3.327 20.2c.041.245.168.469.357.63.19.166.434.257.686.26l6.177-7.4h-.866l-1.36-7.204h15.066l1.058-6.479A.784.784 0 0 0 27.675 5H4.785z"/><path fill="url(#a)" d="M27.389 12.396h-7.357L18.797 19.6h-5.095l-6.016 7.145c.19.164.434.256.686.258h15.967a.784.784 0 0 0 .784-.658l2.266-13.95z"/></svg>