<svg width="24" height="24" viewBox="0 0 24 24"><defs><linearGradient x1="97.526%" y1="25.488%" x2="46.927%" y2="78.776%" id="a"><stop stop-color="inherit" stop-opacity=".4" offset="0%"/><stop stop-color="inherit" offset="100%"/></linearGradient></defs><path d="M20.063 9.297h-5.279l-.886 5.16h-3.656l-4.317 5.116a.763.763 0 0 0 .492.186h11.458a.562.562 0 0 0 .563-.472l1.625-9.99z" fill="url(#a)"/><path d="M3.844 4a.563.563 0 0 0-.563.651L5.67 19.12a.763.763 0 0 0 .748.637l4.433-5.3h-.622l-.976-5.16h10.811l.76-4.64A.56.56 0 0 0 20.269 4H3.844z" fill="currentColor"/></svg>