<svg width="24" height="24" viewBox="0 0 24 24"><defs><linearGradient x1="99.14%" y1="112.745%" x2="35.185%" y2="39.29%" id="a"><stop stop-color="inherit" stop-opacity=".4" offset="0%"/><stop stop-color="inherit" offset="100%"/></linearGradient><linearGradient x1="14.184%" y1="5.8%" x2="60.198%" y2="69.657%" id="b"><stop stop-color="inherit" stop-opacity=".4" offset="0%"/><stop stop-color="inherit" offset="100%"/></linearGradient></defs><path d="M4.808 16.017c-.163.265-.345.573-.5.818a.5.5 0 0 0 .167.68l3.25 2a.5.5 0 0 0 .693-.17c.13-.217.297-.5.48-.802 1.287-2.125 2.582-1.866 4.917-.75l3.223 1.532a.5.5 0 0 0 .672-.25l1.547-3.5a.5.5 0 0 0-.25-.655c-.68-.32-2.032-.957-3.25-1.545-4.38-2.125-8.102-1.985-10.95 2.642z" fill="url(#a)"/><path d="M19.38 8.078c.163-.265.345-.573.5-.818a.5.5 0 0 0-.168-.68l-3.25-2a.5.5 0 0 0-.712.17c-.13.218-.297.5-.48.803-1.287 2.125-2.582 1.865-4.918.75L7.14 4.772a.5.5 0 0 0-.672.25l-1.548 3.5a.5.5 0 0 0 .25.655c.68.32 2.032.957 3.25 1.544 4.39 2.123 8.112 1.983 10.96-2.644z" fill="url(#b)"/></svg>