<svg width="32" height="32" viewBox="0 0 32 32"><defs><linearGradient id="a" x1="81.886%" x2="61.253%" y1="104.388%" y2="47.359%"><stop offset="0%" stop-color="inherit" stop-opacity=".4"/><stop offset="100%" stop-color="inherit"/></linearGradient></defs><path fill="currentColor" d="M17.21 4.443L16.006 4 4.326 8.298a.772.772 0 0 0-.505.753l.244 6.623c.18 5.477 2.93 9.55 7.246 12.21a.775.775 0 0 0 1.123-.356l2.516-5.935a.383.383 0 0 0-.242-.517 4.497 4.497 0 0 1 1.615-8.794l.888-7.839z"/><path fill="url(#a)" d="M16 12.271a4.498 4.498 0 0 1 1.298 8.804.383.383 0 0 0-.243.517l2.518 5.936a.776.776 0 0 0 1.123.355c4.317-2.658 7.07-6.733 7.249-12.21l.244-6.621a.772.772 0 0 0-.505-.754L16 4v8.271z"/></svg>