<svg width="32" height="32" viewBox="0 0 32 32"><defs><linearGradient id="a" x1="-18.44%" x2="55.632%" y1="30.195%" y2="82.533%"><stop offset="0%" stop-color="inherit" stop-opacity=".4"/><stop offset="100%" stop-color="inherit"/></linearGradient></defs><path fill="currentColor" d="M28.948 16.397a.766.766 0 0 0 0-.665C28.045 13.87 23.015 5.05 15.271 5.05c-4.11 0-7.347 2.628-7.347 6.383 0 2.869 1.925 4.956 4.203 4.956a3.906 3.906 0 0 0 2.871-1.14 4.084 4.084 0 0 0 1.2-2.9 2.774 2.774 0 0 0-.107-.773c1.836.995 3.673 2.895 4.83 4.588-.08.148-.165.296-.253.443h8.177l.103-.21z"/><path fill="url(#a)" d="M20.875 16.244c-1.272 2.263-3.263 4.682-6.216 4.682a4.675 4.675 0 0 1-4.564-4.008.737.737 0 0 0-.738-.634H3.74a.737.737 0 0 0-.737.786 11.572 11.572 0 0 0 11.613 10.927c7.004 0 11.155-5.036 14.322-11.543A.737.737 0 0 0 29 16.24l-8.125.004z"/></svg>