<svg width="24" height="24" viewBox="0 0 24 24"><defs><linearGradient x1="49.992%" y1="94.974%" x2="49.992%" y2="39.844%" id="a"><stop stop-color="inherit" stop-opacity=".4" offset="0%"/><stop stop-color="inherit" offset="100%"/></linearGradient></defs><path d="M17.225 16.723s.07-.048.185-.138c1.675-1.295 2.727-3.175 2.727-5.268 0-3.902-3.67-7.067-8.194-7.067-4.525 0-8.193 3.165-8.193 7.068 0 3.902 3.668 7.072 8.193 7.072.577 0 1.154-.053 1.722-.157l.178-.033c1.152.75 2.827 1.36 4.292 1.36.457 0 .67-.372.38-.75-.442-.56-1.053-1.418-1.29-2.087zm-1-3.09c-.488.73-2 1.972-4.27 1.972h-.03c-2.273 0-3.785-1.25-4.27-1.973a.762.762 0 0 1-.188-.382.333.333 0 0 1 .32-.36c.08.003.158.029.223.075a6.25 6.25 0 0 0 3.93 1.402 6 6 0 0 0 3.935-1.415.328.328 0 0 1 .543.242.893.893 0 0 1-.185.439h-.008z" fill="url(#a)"/></svg>