<svg width="32" height="32" viewBox="0 0 32 32"><defs><linearGradient id="a" x1="94.092%" x2="56.535%" y1="6.033%" y2="43.087%"><stop offset="0%" stop-color="inherit" stop-opacity=".4"/><stop offset="100%" stop-color="inherit"/></linearGradient><linearGradient id="b" x1="94.006%" x2="58.008%" y1="6.798%" y2="43.439%"><stop offset="0%" stop-color="inherit" stop-opacity=".4"/><stop offset="100%" stop-color="inherit"/></linearGradient></defs><path fill="currentColor" d="M26.04 5H14.999a4.983 4.983 0 0 0 4.984 4.983h2.033v1.964a4.983 4.983 0 0 0 4.983 4.98V5.957A.958.958 0 0 0 26.041 5z"/><path fill="url(#a)" d="M20.042 11H9a4.985 4.985 0 0 0 4.981 4.981h2.034v1.964A4.985 4.985 0 0 0 21 22.93V11.958a.958.958 0 0 0-.958-.958z"/><path fill="url(#b)" d="M14.042 17H3a4.985 4.985 0 0 0 4.985 4.981h2.04v1.964c0 2.75 2.226 4.98 4.975 4.985V17.958a.958.958 0 0 0-.958-.958z"/></svg>