<svg width="32" height="32" viewBox="0 0 32 32"><defs><linearGradient id="a" x1="76.93%" x2="0%" y1="13.688%" y2="57.886%"><stop offset="0%" stop-color="inherit" stop-opacity=".4"/><stop offset="100%" stop-color="inherit"/></linearGradient><linearGradient id="b" x1="87.955%" x2="7.007%" y1="45.217%" y2="100%"><stop offset="0%" stop-color="inherit"/><stop offset="100%" stop-color="#091E42" stop-opacity="0"/></linearGradient></defs><path fill="currentColor" d="M15.967 29.362a6.675 6.675 0 0 0 0-9.442l-8.699-8.671-3.957 3.957a1.062 1.062 0 0 0 0 1.5l12.656 12.656zm12.656-14.156L15.967 2.55l-.039.039a6.675 6.675 0 0 0 .028 9.41l8.706 8.667 3.96-3.96a1.062 1.062 0 0 0 0-1.5z"/><path fill="url(#a)" d="M15.967 11.992a6.675 6.675 0 0 1-.028-9.41L6.91 11.606l4.72 4.721 4.336-4.335z"/><path fill="url(#b)" d="M20.295 15.591l-4.328 4.329a6.675 6.675 0 0 1 0 9.442l9.05-9.05-4.722-4.72z"/></svg>