<svg width="32" height="32" viewBox="0 0 32 32"><defs><linearGradient id="a" x1="46.359%" x2="46.359%" y1="100%" y2="50%"><stop offset="0%" stop-color="inherit" stop-opacity=".4"/><stop offset="100%" stop-color="inherit"/></linearGradient></defs><path fill="currentColor" d="M18.94 20.693a2.93 2.93 0 0 0-2.93-2.93 3.205 3.205 0 1 1 .633-6.346V5.103c-.206-.023-.416-.023-.63-.023a9.477 9.477 0 0 0-2.93 18.493v4.76c0 .369.299.667.667.667h4.523a.667.667 0 0 0 .667-.667v-7.64z"/><path fill="url(#a)" d="M16.01 5.08v6.274a3.204 3.204 0 0 1 0 6.408 2.929 2.929 0 0 1 2.929 2.929v2.882A9.476 9.476 0 0 0 16.01 5.08z"/></svg>