<svg width="32" height="32" viewBox="0 0 32 32"><defs><linearGradient id="a" x1="62.272%" x2="15.737%" y1="26.041%" y2="68.741%"><stop offset="0%" stop-color="inherit" stop-opacity=".4"/><stop offset="100%" stop-color="inherit"/></linearGradient></defs><path fill="url(#a)" d="M10.658 5v4.397c0 6.087-3.053 8.438-6.939 8.793a.8.8 0 0 0-.719.8v7.195a.8.8 0 0 0 .843.799c9.73-.496 15.589-7.594 15.589-16.408h.028V5h-8.802z"/><path fill="currentColor" d="M30.182 25.83L19.88 5h-9.222l10.88 21.334a1.2 1.2 0 0 0 1.068.651h6.867a.8.8 0 0 0 .708-1.155z"/></svg>