<svg width="24" height="24" viewBox="0 0 24 24"><g fill="currentColor" fill-rule="evenodd"><path d="M11.833 14.995L15 11.828v.175a3 3 0 0 1-3.167 2.992zm-2.829-2.828A3.042 3.042 0 0 1 9 12.003V5.997a3 3 0 0 1 6 0v.175l-5.996 5.995zm8.983-3.326A.93.93 0 0 1 18 9v3.006c0 2.969-2.168 5.427-5 5.904v2.095c0 .54-.448.995-1 .995-.556 0-1-.445-1-.995V17.91a5.968 5.968 0 0 1-1.581-.5l1.545-1.546A4 4 0 0 0 16 12.006v-1.178l1.987-1.987zM6.586 14.586A5.94 5.94 0 0 1 6 12.006V9a1 1 0 0 1 2 0v3.006c0 .356.047.701.135 1.03l-1.549 1.55z"/><path d="M3.793 20.207a.996.996 0 0 0 1.412.002L20.21 5.205a.996.996 0 0 0-.002-1.412.996.996 0 0 0-1.412-.002L3.79 18.795a.996.996 0 0 0 .002 1.412z" fill-rule="nonzero"/></g></svg>