<?xml version="1.0" encoding="UTF-8" standalone="no"?>
<svg width="24px" height="24px" viewBox="0 0 24 24" version="1.1" xmlns="http://www.w3.org/2000/svg" xmlns:xlink="http://www.w3.org/1999/xlink">
    <!-- Generator: Sketch 48.2 (47327) - http://www.bohemiancoding.com/sketch -->
    <title>objects/16/calendar</title>
    <desc>Created with Sketch.</desc>
    <defs></defs>
    <g id="[2px]-Converted-to-outlines" stroke="none" stroke-width="1" fill="none" fill-rule="evenodd">
        <g id="objects/16/calendar" fill="#42526E">
            <path d="M10,9 L8,9 C7.44771525,9 7,9.44771525 7,10 L7,16 C7,16.5522847 7.44771525,17 8,17 L16,17 C16.5522847,17 17,16.5522847 17,16 L17,10 C17,9.44771525 16.5522847,9 16,9 L14,9 L10,9 Z M6,4 L18,4 C19.1045695,4 20,4.8954305 20,6 L20,18 C20,19.1045695 19.1045695,20 18,20 L6,20 C4.8954305,20 4,19.1045695 4,18 L4,6 C4,4.8954305 4.8954305,4 6,4 Z M14,8 L14,9 L16,9 L16,8 C16,7.448 15.552,7 15,7 C14.448,7 14,7.448 14,8 Z M8,8 L8,9 L10,9 L10,8 C10,7.448 9.552,7 9,7 C8.448,7 8,7.448 8,8 Z M9,12 L15,12 L15,15 L9,15 L9,12 Z" id="Combined-Shape"></path>
        </g>
    </g>
</svg>