<?xml version="1.0" encoding="UTF-8" standalone="no"?>
<svg width="24px" height="24px" viewBox="0 0 24 24" version="1.1" xmlns="http://www.w3.org/2000/svg" xmlns:xlink="http://www.w3.org/1999/xlink">
    <!-- Generator: Sketch 48.2 (47327) - http://www.bohemiancoding.com/sketch -->
    <title>objects/16/comment</title>
    <desc>Created with Sketch.</desc>
    <defs></defs>
    <g id="[2px]-Converted-to-outlines" stroke="none" stroke-width="1" fill="none" fill-rule="evenodd">
        <g id="objects/16/comment" fill="#42526E">
            <path d="M6,4 L18,4 C19.1045695,4 20,4.8954305 20,6 L20,18 C20,19.1045695 19.1045695,20 18,20 L6,20 C4.8954305,20 4,19.1045695 4,18 L4,6 C4,4.8954305 4.8954305,4 6,4 Z M16.3540869,16.1664673 C16.3540869,16.1653199 15.4856556,14.8704666 15.9284723,14.3799483 C16.589368,13.655932 17,12.7259554 17,11.7145125 C17,9.34109284 14.7570612,7.41000009 12.0002775,7.41000009 C9.24293879,7.41000009 7,9.34109284 7,11.7145125 C7,14.0879322 9.24293879,16.019025 12.0002775,16.019025 C12.7893569,16.019025 13.5334887,15.8560926 14.1982687,15.5744032 C14.7553965,16.1601566 15.4690084,16.4751209 15.9978359,16.5594556 C16.0283558,16.5674875 16.0583208,16.5766668 16.0905055,16.5766668 C16.2486543,16.5766668 16.3762832,16.4441408 16.3762832,16.2806347 C16.3762832,16.2399016 16.3685145,16.2014633 16.3540869,16.1664673 Z M14.451336,13.0315908 C14.8102701,12.6383756 15,12.1781302 15,11.7145125 C15,10.5176844 13.7134236,9.41000009 12.0002775,9.41000009 C10.2866345,9.41000009 9,10.5176496 9,11.7145125 C9,12.9113755 10.2866345,14.019025 12.0002775,14.019025 C12.4965822,14.019025 12.976705,13.9198787 13.4179636,13.7329027 L14.1556102,13.4203373 C14.2382481,13.2886417 14.3363378,13.1589699 14.451336,13.0315908 Z" id="Combined-Shape"></path>
        </g>
    </g>
</svg>