<?xml version="1.0" encoding="UTF-8" standalone="no"?>
<svg width="24px" height="24px" viewBox="0 0 24 24" version="1.1" xmlns="http://www.w3.org/2000/svg" xmlns:xlink="http://www.w3.org/1999/xlink">
    <!-- Generator: Sketch 48.2 (47327) - http://www.bohemiancoding.com/sketch -->
    <title>objects/16/favorite</title>
    <desc>Created with Sketch.</desc>
    <defs></defs>
    <g id="[2px]-Converted-to-outlines" stroke="none" stroke-width="1" fill="none" fill-rule="evenodd">
        <g id="objects/16/favorite" fill="#42526E">
            <path d="M6,4 L18,4 C19.1045695,4 20,4.8954305 20,6 L20,18 C20,19.1045695 19.1045695,20 18,20 L6,20 C4.8954305,20 4,19.1045695 4,18 L4,6 C4,4.8954305 4.8954305,4 6,4 Z M11.9999797,15.6615737 L14.4929459,16.8733039 C14.5785204,16.9148982 14.6741864,16.9312121 14.7687097,16.9203298 C15.04304,16.8887468 15.2398256,16.640755 15.2082425,16.3664247 L14.8750477,13.4722936 L16.7865049,11.3149373 C16.8445161,11.2494632 16.8843348,11.1699154 16.9019844,11.0842378 C16.9576999,10.8137745 16.7836125,10.5493543 16.5131492,10.4936388 L13.7768694,9.92996407 L12.4414928,7.41747021 C12.3947054,7.32944034 12.3226713,7.25740626 12.2346415,7.21061887 C11.9908005,7.08101874 11.6880667,7.17362924 11.5584665,7.41747021 L10.2230899,9.92996407 L7.48681013,10.4936388 C7.40113256,10.5112884 7.32158472,10.5511071 7.25611066,10.6091183 C7.04942494,10.7922456 7.03032709,11.1082516 7.21345443,11.3149373 L9.12491169,13.4722936 L8.7917168,16.3664247 C8.78083454,16.460948 8.79714845,16.556614 8.83874274,16.6421885 C8.95945983,16.8905471 9.25865479,16.994021 9.5070134,16.8733039 L11.9999797,15.6615737 Z" id="Combined-Shape"></path>
        </g>
    </g>
</svg>