<?xml version="1.0" encoding="UTF-8" standalone="no"?>
<svg width="24px" height="24px" viewBox="0 0 24 24" version="1.1" xmlns="http://www.w3.org/2000/svg" xmlns:xlink="http://www.w3.org/1999/xlink">
    <!-- Generator: Sketch 48.2 (47327) - http://www.bohemiancoding.com/sketch -->
    <title>objects/16/incident</title>
    <desc>Created with Sketch.</desc>
    <defs></defs>
    <g id="[2px]-Converted-to-outlines" stroke="none" stroke-width="1" fill="none" fill-rule="evenodd">
        <g id="objects/16/incident" fill="#42526E">
            <path d="M9.14233392,13 L14.8576661,13 L14.1439036,11 L9.8560964,11 L9.14233392,13 Z M8,15 C7.44771525,15 7,15.4477153 7,16 L7,17 L17,17 L17,16 C17,15.4477153 16.5522847,15 16,15 L8,15 Z M10.5698589,9 L13.4301411,9 L12.9418199,7.63169838 C12.8409899,7.34916733 12.6186489,7.12682636 12.3361179,7.02599632 C11.8159651,6.84036355 11.2438128,7.1115456 11.0581801,7.63169838 L10.5698589,9 Z M6,4 L18,4 C19.1045695,4 20,4.8954305 20,6 L20,18 C20,19.1045695 19.1045695,20 18,20 L6,20 C4.8954305,20 4,19.1045695 4,18 L4,6 C4,4.8954305 4.8954305,4 6,4 Z" id="Combined-Shape"></path>
        </g>
    </g>
</svg>