<?xml version="1.0" encoding="UTF-8" standalone="no"?>
<svg width="24px" height="24px" viewBox="0 0 24 24" version="1.1" xmlns="http://www.w3.org/2000/svg" xmlns:xlink="http://www.w3.org/1999/xlink">
    <!-- Generator: Sketch 48.2 (47327) - http://www.bohemiancoding.com/sketch -->
    <title>objects/16/mentions</title>
    <desc>Created with Sketch.</desc>
    <defs></defs>
    <g id="[2px]-Converted-to-outlines" stroke="none" stroke-width="1" fill="none" fill-rule="evenodd">
        <g id="objects/16/mentions" fill="#42526E">
            <path d="M6,4 L18,4 C19.1045695,4 20,4.8954305 20,6 L20,18 C20,19.1045695 19.1045695,20 18,20 L6,20 C4.8954305,20 4,19.1045695 4,18 L4,6 C4,4.8954305 4.8954305,4 6,4 Z M13.8488617,9.08522034 C13.5175218,9.08522034 13.2294928,9.27146183 13.0837971,9.54492246 C12.7354367,9.24469567 12.2672361,9.07371631 11.7575937,9.07371631 C10.2925248,9.07371631 9.28485107,10.266095 9.28485107,11.9548519 C9.28485107,13.7143395 10.2920955,14.9263763 11.7970361,14.9263763 C12.4182417,14.9263763 12.9333869,14.7051814 13.2905498,14.2945444 C13.6822559,14.9273816 14.4065877,15.3372345 15.0814362,15.3372345 C16.6775407,15.3372345 18.0020142,13.6666471 18.0020142,11.3895111 C18.0020142,8.26838238 15.465756,6.00378418 12,6.00378418 L12,6.25378418 L12,6.00378418 C8.6366923,6.00378418 5.99798584,8.64249064 5.99798584,12.0057983 C5.99798584,15.6215401 8.66795159,18.0078125 12,18.0078125 C12.7411566,18.0078125 13.3713912,17.9300317 13.9261144,17.7685952 C14.385251,17.6344396 14.6492255,17.1529273 14.515346,16.6935821 C14.3813139,16.2348686 13.9039217,15.9728895 13.4427729,16.1039892 C13.049373,16.2188213 12.5777525,16.275238 12,16.275238 C9.60080767,16.275238 7.7305603,14.6582533 7.7305603,12.0057983 C7.7305603,9.60969643 9.60389809,7.73635864 12,7.73635864 C14.5308352,7.73635864 16.2694397,9.23795195 16.2694397,11.3895111 C16.2694397,12.7322884 15.6532197,13.60466 15.0822579,13.60466 C14.9685635,13.60466 14.7151489,13.4590526 14.7151489,13.2383728 L14.7151489,9.95150757 C14.7151489,9.47301336 14.327713,9.08522034 13.8488617,9.08522034 Z M12.0509464,13.5917108 L12.0509464,13.3417108 C12.6481826,13.3417108 12.9825745,12.8823529 12.9825745,12.0057983 C12.9825745,11.1156669 12.6484955,10.6394824 12.0640939,10.6394824 C11.459858,10.6394824 11.108636,11.108362 11.108636,11.9934726 C11.108636,12.8639868 11.4649229,13.3417108 12.0509464,13.3417108 L12.0509464,13.5917108 Z" id="Combined-Shape"></path>
        </g>
    </g>
</svg>