<?xml version="1.0" encoding="UTF-8" standalone="no"?>
<svg width="24px" height="24px" viewBox="0 0 24 24" version="1.1" xmlns="http://www.w3.org/2000/svg" xmlns:xlink="http://www.w3.org/1999/xlink">
    <!-- Generator: Sketch 48.2 (47327) - http://www.bohemiancoding.com/sketch -->
    <title>objects/16/pdf</title>
    <desc>Created with Sketch.</desc>
    <defs></defs>
    <g id="[2px]-Converted-to-outlines" stroke="none" stroke-width="1" fill="none" fill-rule="evenodd">
        <g id="objects/16/pdf" fill="#42526E">
            <path d="M6,4 L18,4 C19.1045695,4 20,4.8954305 20,6 L20,18 C20,19.1045695 19.1045695,20 18,20 L6,20 C4.8954305,20 4,19.1045695 4,18 L4,6 C4,4.8954305 4.8954305,4 6,4 Z M8,7 C7.44771525,7 7,7.44771525 7,8 C7,8.55228475 7.44771525,9 8,9 L16,9 C16.5522847,9 17,8.55228475 17,8 C17,7.44771525 16.5522847,7 16,7 L8,7 Z M8,11 C7.44771525,11 7,11.4477153 7,12 C7,12.5522847 7.44771525,13 8,13 L10,13 C10.5522847,13 11,12.5522847 11,12 C11,11.4477153 10.5522847,11 10,11 L8,11 Z M8,15 C7.44771525,15 7,15.4477153 7,16 C7,16.5522847 7.44771525,17 8,17 L10,17 C10.5522847,17 11,16.5522847 11,16 C11,15.4477153 10.5522847,15 10,15 L8,15 Z M14,11 C13.4477153,11 13,11.4477153 13,12 L13,16 C13,16.5522847 13.4477153,17 14,17 L16,17 C16.5522847,17 17,16.5522847 17,16 L17,12 C17,11.4477153 16.5522847,11 16,11 L14,11 Z" id="Combined-Shape"></path>
        </g>
    </g>
</svg>