<?xml version="1.0" encoding="UTF-8" standalone="no"?>
<svg width="24px" height="24px" viewBox="0 0 24 24" version="1.1" xmlns="http://www.w3.org/2000/svg" xmlns:xlink="http://www.w3.org/1999/xlink">
    <!-- Generator: Sketch 48.2 (47327) - http://www.bohemiancoding.com/sketch -->
    <title>objects/16/service-desk-approval</title>
    <desc>Created with Sketch.</desc>
    <defs></defs>
    <g id="[2px]-Converted-to-outlines" stroke="none" stroke-width="1" fill="none" fill-rule="evenodd">
        <g id="objects/16/service-desk-approval" fill="#42526E">
            <path d="M13,9.10001812 L13,8 C13,7.44771525 12.5522847,7 12,7 C11.4477153,7 11,7.44771525 11,8 L11,9.10001812 C8.71775968,9.56328845 7,11.5810421 7,14 L7,15 C6.44771525,15 6,15.4477153 6,16 C6,16.5522847 6.44771525,17 7,17 L17,17 C17.5522847,17 18,16.5522847 18,16 C18,15.4477153 17.5522847,15 17,15 L17,14 C17,11.5810421 15.2822403,9.56328845 13,9.10001812 Z M6,4 L18,4 C19.1045695,4 20,4.8954305 20,6 L20,18 C20,19.1045695 19.1045695,20 18,20 L6,20 C4.8954305,20 4,19.1045695 4,18 L4,6 C4,4.8954305 4.8954305,4 6,4 Z M13.3188915,11.2772933 C13.7180314,10.895579 14.3510387,10.9097052 14.732753,11.3088451 C15.1144673,11.707985 15.1003411,12.3409924 14.7012012,12.7227067 L12.0280062,15.2791959 C11.6368871,15.6532396 11.019173,15.64826 10.634135,15.2679594 L9.28723733,13.9376338 C8.89430321,13.5495343 8.89038398,12.9163815 9.27848348,12.5234474 C9.66658298,12.1305132 10.2997358,12.126594 10.6926699,12.5146935 L11.3480924,13.1620517 L13.3188915,11.2772933 Z" id="Combined-Shape"></path>
        </g>
    </g>
</svg>