<?xml version="1.0" encoding="UTF-8" standalone="no"?>
<svg width="24px" height="24px" viewBox="0 0 24 24" version="1.1" xmlns="http://www.w3.org/2000/svg" xmlns:xlink="http://www.w3.org/1999/xlink">
    <!-- Generator: Sketch 48.2 (47327) - http://www.bohemiancoding.com/sketch -->
    <title>objects/16/story</title>
    <desc>Created with Sketch.</desc>
    <defs></defs>
    <g id="[2px]-Converted-to-outlines" stroke="none" stroke-width="1" fill="none" fill-rule="evenodd">
        <g id="objects/16/story" fill="#42526E">
            <path d="M6,4 L18,4 C19.1045695,4 20,4.8954305 20,6 L20,18 C20,19.1045695 19.1045695,20 18,20 L6,20 C4.8954305,20 4,19.1045695 4,18 L4,6 C4,4.8954305 4.8954305,4 6,4 Z M12,15 L14.8613333,16.8221936 C15.2813333,17.2020108 16,16.9331243 16,16.3953514 L16,8.20576891 C16,7.5389787 15.4026667,7 14.6666667,7 L9.33333333,7 C8.596,7 8,7.5389787 8,8.20576891 L8,16.3953514 C8,16.9331243 8.71733333,17.2020108 9.13733333,16.8221936 L12,15 Z M12.0002502,12.6290354 L14,13.9025435 L14,9 L10,9 L10,13.9022689 L12.0002502,12.6290354 Z" id="Combined-Shape"></path>
        </g>
    </g>
</svg>