<?xml version="1.0" encoding="UTF-8" standalone="no"?>
<svg width="24px" height="24px" viewBox="0 0 24 24" version="1.1" xmlns="http://www.w3.org/2000/svg" xmlns:xlink="http://www.w3.org/1999/xlink">
    <!-- Generator: Sketch 48.2 (47327) - http://www.bohemiancoding.com/sketch -->
    <title>objects/16/watch</title>
    <desc>Created with Sketch.</desc>
    <defs></defs>
    <g id="[2px]-Converted-to-outlines" stroke="none" stroke-width="1" fill="none" fill-rule="evenodd">
        <g id="objects/16/watch" fill="#42526E">
            <path d="M6,4 L18,4 C19.1045695,4 20,4.8954305 20,6 L20,18 C20,19.1045695 19.1045695,20 18,20 L6,20 C4.8954305,20 4,19.1045695 4,18 L4,6 C4,4.8954305 4.8954305,4 6,4 Z M6,12 C6,13.92875 8.74651058,17 12.0003002,17 C15.2540897,17 18,13.92875 18,12 C18,10.025 15.3117214,7 12.0003002,7 C8.68827855,7 6,10.025 6,12 Z M9.5,11.99976 C9.5,10.62101 10.62125,9.49976005 12,9.49976005 C13.37875,9.49976005 14.5,10.62101 14.5,11.99976 C14.5,13.37851 13.37875,14.49976 12,14.49976 C10.62125,14.49976 9.5,13.37851 9.5,11.99976 Z M12,13 C12.5522847,13 13,12.5522847 13,12 C13,11.4477153 12.5522847,11 12,11 C11.4477153,11 11,11.4477153 11,12 C11,12.5522847 11.4477153,13 12,13 Z" id="Combined-Shape"></path>
        </g>
    </g>
</svg>