<svg xmlns="http://www.w3.org/2000/svg" width="50" height="64" viewBox="0 0 50 64">
  <g fill="none" fill-rule="evenodd">
    <path fill="#FFF" stroke="#091E42" stroke-opacity=".08" d="M4,0.5 L33.4482107,0.5 C34.3733699,0.5 35.2608971,0.866298128 35.9167529,1.51881089 L48.4685422,14.0066223 C49.1287916,14.6635063 49.5,15.5564545 49.5,16.4878114 L49.5,60 C49.5,61.9329966 47.9329966,63.5 46,63.5 L4,63.5 C2.06700338,63.5 0.5,61.9329966 0.5,60 L0.5,4 C0.5,2.06700338 2.06700338,0.5 4,0.5 Z"/>
    <path fill="#2684FF" d="M15.6666667,39 C15.6666667,38.3556678 16.1982751,37.8333333 16.8279638,37.8333333 L26.1720362,37.8333333 C26.8134029,37.8333333 27.3333333,38.3511756 27.3333333,39 C27.3333333,39.6443322 26.8017249,40.1666667 26.1720362,40.1666667 L16.8279638,40.1666667 C16.1865971,40.1666667 15.6666667,39.6488244 15.6666667,39 Z M15.6666667,34.3333333 C15.6666667,33.6890011 16.1854027,33.1666667 16.8343503,33.1666667 L33.1656497,33.1666667 C33.8105436,33.1666667 34.3333333,33.684509 34.3333333,34.3333333 C34.3333333,34.9776655 33.8145973,35.5 33.1656497,35.5 L16.8343503,35.5 C16.1894564,35.5 15.6666667,34.9821577 15.6666667,34.3333333 Z M15.6666667,29.6666667 C15.6666667,29.0223345 16.1854027,28.5 16.8343503,28.5 L33.1656497,28.5 C33.8105436,28.5 34.3333333,29.0178423 34.3333333,29.6666667 C34.3333333,30.3109989 33.8145973,30.8333333 33.1656497,30.8333333 L16.8343503,30.8333333 C16.1894564,30.8333333 15.6666667,30.315491 15.6666667,29.6666667 Z M15.6666667,25 C15.6666667,24.3556678 16.1854027,23.8333333 16.8343503,23.8333333 L33.1656497,23.8333333 C33.8105436,23.8333333 34.3333333,24.3511756 34.3333333,25 C34.3333333,25.6443322 33.8145973,26.1666667 33.1656497,26.1666667 L16.8343503,26.1666667 C16.1894564,26.1666667 15.6666667,25.6488244 15.6666667,25 Z"/>
  </g>
</svg>
