<svg width="24" height="24" viewBox="0 0 24 24"><path fill="#00B8D9" fill-rule="evenodd" d="M4 5.994C4 4.893 4.895 4 5.994 4h12.012C19.107 4 20 4.895 20 5.994v12.012A1.995 1.995 0 0 1 18.006 20H5.994A1.995 1.995 0 0 1 4 18.006V5.994zm6.639 8.417L8.253 12.1l2.589-2.51a.924.924 0 1 0-1.288-1.328l-3.273 3.174a.925.925 0 0 0 0 1.328l3.07 2.976a.925.925 0 1 0 1.288-1.328zm7.203-3.173L14.77 8.26a.924.924 0 1 0-1.287 1.328l2.385 2.313-2.588 2.51a.924.924 0 1 0 1.287 1.327l3.274-3.173a.925.925 0 0 0 0-1.328z"/></svg>