<svg width="24" height="24" viewBox="0 0 24 24"><path fill="#007442" fill-rule="evenodd" d="M6 4h12a2 2 0 0 1 2 2v12a2 2 0 0 1-2 2H6a2 2 0 0 1-2-2V6a2 2 0 0 1 2-2zm1.235 4.258A.273.273 0 0 0 7 8.53v6.969c0 .136.1.252.236.27l6.953.962a.273.273 0 0 0 .311-.271V7.542a.273.273 0 0 0-.312-.27l-6.953.986zm7.89.617v6.25h1.563c.172 0 .312-.14.312-.313V9.189a.312.312 0 0 0-.313-.313h-1.562zM8.858 14.2l1.35-2.13-1.341-2.098h1.04l.881 1.48h.053l.89-1.48h.991l-1.392 2.113 1.372 2.115h-1.008l-.908-1.433h-.053l-.92 1.433h-.955z"/></svg>