<svg width="24" height="24" viewBox="0 0 24 24"><path fill="#004E8C" fill-rule="evenodd" d="M6 4h12a2 2 0 0 1 2 2v12a2 2 0 0 1-2 2H6a2 2 0 0 1-2-2V6a2 2 0 0 1 2-2zm1.235 4.258A.273.273 0 0 0 7 8.53v6.969c0 .136.1.252.236.27l6.953.962a.273.273 0 0 0 .311-.271V7.542a.273.273 0 0 0-.312-.27l-6.953.986zm7.89.617v6.25h1.563c.172 0 .312-.14.312-.313V9.189a.312.312 0 0 0-.313-.313h-1.562zm-4.322 2.727l-.791 2.798h-.835l-1.12-4.228h.92l.66 2.98h.047l.77-2.98h.747l.786 2.98h.046l.654-2.98h.914L12.479 14.4h-.83l-.8-2.798h-.046z"/></svg>