<svg width="50" height="64" viewBox="0 0 50 64"><g fill-rule="evenodd"><path fill="#FFF" stroke="#091E42" stroke-opacity=".08" d="M4 .5h29.448a3.5 3.5 0 0 1 2.469 1.019l12.552 12.488a3.5 3.5 0 0 1 1.031 2.48V60a3.5 3.5 0 0 1-3.5 3.5H4A3.5 3.5 0 0 1 .5 60V4A3.5 3.5 0 0 1 4 .5z"/><path fill="#5E6C84" d="M25 22.667h1.528a2 2 0 0 1 1.42.59l3.907 3.938a.5.5 0 0 1 .145.352v1.62a.5.5 0 0 1-.5.5H27a2 2 0 0 1-2-2V25h-4.667v14h9.334v-8.16H32V39a2.333 2.333 0 0 1-2.333 2.334h-9.334A2.333 2.333 0 0 1 18 39V25a2.333 2.333 0 0 1 2.333-2.333H25z"/></g></svg>