<svg xmlns="http://www.w3.org/2000/svg" width="50" height="64" viewBox="0 0 50 64">
  <g fill="none" fill-rule="evenodd">
    <path fill="#B3D4FF" d="M21,16 L45,16 C47.209139,16 49,17.790861 49,20 L49,48 C49,50.209139 47.209139,52 45,52 L5,52 C2.790861,52 1,50.209139 1,48 L1,20 L1,16 C1,13.790861 2.790861,12 5,12 L17,12 C19.209139,12 21,13.790861 21,16 Z"/>
    <path fill="#B3D4FF" d="M1,20 L49,20 L49,48 C49,50.209139 47.209139,52 45,52 L5,52 C2.790861,52 1,50.209139 1,48 L1,20 Z" style="mix-blend-mode:multiply"/>
  </g>
</svg>
