<svg xmlns="http://www.w3.org/2000/svg" viewBox="0 0 233.0924 146.7643">
  <defs>
    <style>
      .cls-1 {
        fill: #0065ff;
      }

      .cls-2 {
        fill: #eceef1;
      }

      .cls-3 {
        fill: #dfe1e5;
      }

      .cls-10, .cls-4, .cls-7, .cls-8, .cls-9 {
        fill: none;
        stroke-miterlimit: 10;
        stroke-width: 2px;
      }

      .cls-4 {
        stroke: #344563;
      }

      .cls-5 {
        fill: #36b37e;
      }

      .cls-6 {
        fill: #253858;
      }

      .cls-7, .cls-8 {
        stroke: #253858;
      }

      .cls-7, .cls-9 {
        stroke-dasharray: 7 4;
      }

      .cls-10, .cls-9 {
        stroke: #36b37e;
      }
    </style>
  </defs>
  <title>Playbook</title>
  <g id="Layer_2" data-name="Layer 2">
    <g id="Objects">
      <path class="cls-1" d="M222.2522,19.1186H10.84A10.84,10.84,0,0,0,0,29.9588v92.4991a10.84,10.84,0,0,0,10.84,10.84H94.7723a8.3128,8.3128,0,0,1,7.38,4.7689,15.6894,15.6894,0,0,0,28.0906,0,8.3128,8.3128,0,0,1,7.38-4.7689h84.629a10.84,10.84,0,0,0,10.84-10.84V29.9588A10.84,10.84,0,0,0,222.2522,19.1186Z"/>
      <path id="_Path_" data-name="&lt;Path&gt;" class="cls-2" d="M116.1978,19.6939h0A19.6939,19.6939,0,0,0,96.5039,0H10.1982V121.0184H96.5039a19.6939,19.6939,0,0,1,19.6939,19.6939h0Z"/>
      <path id="_Path_2" data-name="&lt;Path&gt;" class="cls-3" d="M116.1978,19.6939h0A19.6939,19.6939,0,0,1,135.8916,0h86.3056V121.0184H135.8916a19.6939,19.6939,0,0,0-19.6939,19.6939h0Z"/>
      <line class="cls-4" x1="132.3981" y1="20.6027" x2="207.997" y2="20.6027"/>
      <line class="cls-4" x1="132.3981" y1="27.7414" x2="207.997" y2="27.7414"/>
      <line class="cls-4" x1="132.3981" y1="34.8801" x2="207.997" y2="34.8801"/>
      <line class="cls-4" x1="132.3981" y1="42.0188" x2="207.997" y2="42.0188"/>
      <line class="cls-4" x1="132.3981" y1="49.1575" x2="170.1975" y2="49.1575"/>
      <line class="cls-4" x1="132.3981" y1="63.4349" x2="207.997" y2="63.4349"/>
      <line class="cls-4" x1="132.3981" y1="70.5736" x2="207.997" y2="70.5736"/>
      <line class="cls-4" x1="132.3981" y1="77.7123" x2="170.1975" y2="77.7123"/>
      <line class="cls-4" x1="132.3981" y1="91.9897" x2="207.997" y2="91.9897"/>
      <line class="cls-4" x1="132.3981" y1="99.1283" x2="170.1975" y2="99.1283"/>
      <line class="cls-4" x1="132.3981" y1="27.7414" x2="183.8325" y2="27.7414"/>
      <circle class="cls-5" cx="32.1376" cy="60.6384" r="8.312"/>
      <circle class="cls-1" cx="60.7614" cy="60.6384" r="8.312"/>
      <circle class="cls-6" cx="89.3853" cy="60.6384" r="8.312"/>
      <polyline class="cls-7" points="61.503 32.516 89.49 32.516 89.49 62.442"/>
      <polyline class="cls-8" points="64.506 28.741 60.729 32.519 64.506 36.29"/>
      <polyline class="cls-9" points="71.546 89.009 32.138 89.009 32.138 65.312"/>
      <polyline class="cls-10" points="69.226 92.783 73.004 89.006 69.226 85.234"/>
      <line class="cls-8" x1="86.2974" y1="85.9209" x2="92.4732" y2="92.0967"/>
      <line class="cls-8" x1="92.4732" y1="85.9209" x2="86.2974" y2="92.0967"/>
    </g>
  </g>
</svg>
