<svg xmlns="http://www.w3.org/2000/svg" width="24" height="24" viewBox="0 0 24 24">
  <path fill="#FFAB00" fill-rule="evenodd" d="M6,4 L18,4 C19.1045695,4 20,4.8954305 20,6 L20,18 C20,19.1045695 19.1045695,20 18,20 L6,20 C4.8954305,20 4,19.1045695 4,18 L4,6 C4,4.8954305 4.8954305,4 6,4 Z M12,13 C12.5522847,13 13,12.5522847 13,12 C13,11.4477153 12.5522847,11 12,11 C11.4477153,11 11,11.4477153 11,12 C11,12.5522847 11.4477153,13 12,13 Z M11.0136984,14.8340984 C9.84135601,14.4261546 9,13.3113319 9,12 C9,10.6886681 9.84135601,9.57384536 11.0136984,9.16590157 C11.0046887,9.11194132 11,9.05651821 11,9 L11,7 C11,6.44771525 11.4477153,6 12,6 C12.5522847,6 13,6.44771525 13,7 L13,9 C13,9.05651821 12.9953113,9.11194132 12.9863016,9.16590157 C14.158644,9.57384536 15,10.6886681 15,12 C15,13.3113319 14.158644,14.4261546 12.9863016,14.8340984 C12.9953113,14.8880587 13,14.9434818 13,15 L13,17 C13,17.5522847 12.5522847,18 12,18 C11.4477153,18 11,17.5522847 11,17 L11,15 C11,14.9434818 11.0046887,14.8880587 11.0136984,14.8340984 Z"/>
</svg>
