<svg xmlns="http://www.w3.org/2000/svg" width="24" height="24" viewBox="0 0 24 24">
  <path fill="#FFAB00" fill-rule="evenodd" d="M14.5791253,11 L9.46760246,11 L10.3336067,10.1349205 C10.7246067,9.74392051 10.7246067,9.11092051 10.3336067,8.71992051 C10.1386067,8.52492051 9.88260667,8.42792051 9.62760667,8.42792051 C9.37060667,8.42792051 9.11560667,8.52492051 8.91960667,8.71992051 L6.33960667,11.2999205 C5.94760667,11.6899205 5.94860667,12.3239205 6.33960667,12.7139205 L8.91960667,15.2919205 C9.31160667,15.6819205 9.94360667,15.6819205 10.3346067,15.2899205 C10.7246067,14.8999205 10.7246067,14.2669205 10.3336067,13.8759205 L9.45628095,13 L14.5895148,13 L13.712658,13.8759205 C13.321658,14.2669205 13.320658,14.8999205 13.711658,15.2909205 C14.102658,15.6819205 14.735658,15.6819205 15.126658,15.2909205 L17.706658,12.7119205 C18.097658,12.3209205 18.097658,11.6879205 17.706658,11.2969205 L15.125658,8.71992051 C14.930658,8.52492051 14.674658,8.42792051 14.419658,8.42792051 C14.163658,8.42792051 13.906658,8.52492051 13.711658,8.72092051 C13.320658,9.11192051 13.321658,9.74392051 13.712658,10.1349205 L14.5791253,11 Z M6,4 L18,4 C19.1045695,4 20,4.8954305 20,6 L20,18 C20,19.1045695 19.1045695,20 18,20 L6,20 C4.8954305,20 4,19.1045695 4,18 L4,6 C4,4.8954305 4.8954305,4 6,4 Z"/>
</svg>
