<svg xmlns="http://www.w3.org/2000/svg" width="50" height="64" viewBox="0 0 50 64">
  <g fill="none" fill-rule="evenodd">
    <path fill="#FFF" stroke="#091E42" stroke-opacity=".08" d="M4,0.5 L33.4482107,0.5 C34.3733699,0.5 35.2608971,0.866298128 35.9167529,1.51881089 L48.4685422,14.0066223 C49.1287916,14.6635063 49.5,15.5564545 49.5,16.4878114 L49.5,60 C49.5,61.9329966 47.9329966,63.5 46,63.5 L4,63.5 C2.06700338,63.5 0.5,61.9329966 0.5,60 L0.5,4 C0.5,2.06700338 2.06700338,0.5 4,0.5 Z"/>
    <path fill="#CA5010" d="M16.0426943,25.0242753 L29.1676943,23.1616269 C29.4069219,23.1276767 29.6283762,23.2940868 29.6623265,23.5333143 C29.6652163,23.5536776 29.6666667,23.5742194 29.6666667,23.5947867 L29.6666667,40.4068597 C29.6666667,40.6484843 29.4707912,40.8443597 29.2291667,40.8443597 C29.2091268,40.8443597 29.1891107,40.8429828 29.1692596,40.8402387 L16.0442596,39.0259377 C15.8278417,38.9960217 15.6666667,38.8110345 15.6666667,38.5925587 L15.6666667,25.457435 C15.6666667,25.2395597 15.8269805,25.0548885 16.0426943,25.0242753 Z M30.8333333,26.1666667 L33.8333333,26.1666667 C34.1094757,26.1666667 34.3333333,26.3905243 34.3333333,26.6666667 L34.3333333,37.3333333 C34.3333333,37.6094757 34.1094757,37.8333333 33.8333333,37.8333333 L30.8333333,37.8333333 L30.8333333,26.1666667 Z M20.1635742,27.8631185 L20.1635742,36.0833333 L21.8839518,36.0833333 L21.8839518,33.53125 L23.507487,33.53125 C25.2392578,33.53125 26.4412435,32.3976237 26.4412435,30.7057292 C26.4412435,28.9967448 25.2848307,27.8631185 23.5929362,27.8631185 L20.1635742,27.8631185 Z M21.8839518,29.2758789 L23.137207,29.2758789 C24.128418,29.2758789 24.6923828,29.777181 24.6923828,30.7114258 C24.6923828,31.6342773 24.1170247,32.1355794 23.1315104,32.1355794 L21.8839518,32.1355794 L21.8839518,29.2758789 Z"/>
  </g>
</svg>
