<svg xmlns="http://www.w3.org/2000/svg" width="50" height="64" viewBox="0 0 50 64">
  <g fill="none" fill-rule="evenodd">
    <path fill="#FFF" stroke="#091E42" stroke-opacity=".08" d="M4,0.5 L33.4482107,0.5 C34.3733699,0.5 35.2608971,0.866298128 35.9167529,1.51881089 L48.4685422,14.0066223 C49.1287916,14.6635063 49.5,15.5564545 49.5,16.4878114 L49.5,60 C49.5,61.9329966 47.9329966,63.5 46,63.5 L4,63.5 C2.06700338,63.5 0.5,61.9329966 0.5,60 L0.5,4 C0.5,2.06700338 2.06700338,0.5 4,0.5 Z"/>
    <path fill="#5E6C84" d="M25,22.6666667 L26.5284009,22.6666667 C27.0615078,22.6666667 27.5725526,22.879504 27.9480591,23.2579188 L31.8549146,27.1950316 C31.9478497,27.2886865 32,27.4152785 32,27.5472186 L32,29.1666667 C32,29.442809 31.7761424,29.6666667 31.5,29.6666667 L27,29.6666667 C25.8954305,29.6666667 25,28.7712362 25,27.6666667 L25,25.0002333 L20.3333333,25.0002333 L20.3333333,39.0002333 L29.6666667,39.0002333 L29.6666667,30.8394 L32,30.8394 L32,39.0002333 C32,40.2882333 30.9558333,41.3335667 29.6666667,41.3335667 L20.3333333,41.3335667 C19.0441667,41.3335667 18,40.2882333 18,39.0002333 L18,25.0002333 C18,23.7110667 19.0441667,22.6669 20.3333333,22.6669 L25,22.6669 Z"/>
  </g>
</svg>
