<?xml version="1.0" encoding="UTF-8" standalone="no"?>
<svg width="24px" height="24px" viewBox="0 0 24 24" version="1.1" xmlns="http://www.w3.org/2000/svg" xmlns:xlink="http://www.w3.org/1999/xlink">
    <!-- Generator: Sketch 45.1 (43504) - http://www.bohemiancoding.com/sketch -->
    <title>editor/error</title>
    <desc>Created with Sketch.</desc>
    <defs></defs>
    <g id="Original" stroke="none" stroke-width="1" fill="none" fill-rule="evenodd">
        <g id="editor/error" fill="#42526E">
            <path d="M12.7061042,3.7062149 C12.3160673,3.31618318 11.6795694,3.32031476 11.2936744,3.7062149 L3.70620548,11.2937851 C3.31617896,11.6838168 3.32031049,12.3203148 3.70620548,12.7062149 L11.2936744,20.2937851 C11.6837009,20.6838168 12.3201989,20.6796852 12.7061042,20.2937851 L20.2937757,12.7062149 C20.6838126,12.3161832 20.679681,11.6796852 20.2937757,11.2937851 L12.7061042,3.7062149 Z M13,12.2080218 L13,8.49769878 C13,8.21484375 12.7740451,8 12.4953156,8 L11.5046844,8 C11.214035,8 11,8.22282734 11,8.49769878 L11,12.2080218 C11.3062312,12.0742238 11.6444476,12 12,12 C12.3555524,12 12.6937688,12.0742238 13,12.2080218 Z M12,16 C11.4477153,16 11,15.5522847 11,15 C11,14.4477153 11.4477153,14 12,14 C12.5522847,14 13,14.4477153 13,15 C13,15.5522847 12.5522847,16 12,16 Z" id="Shape"></path>
        </g>
    </g>
</svg>