<?xml version="1.0" encoding="UTF-8" standalone="no"?>
<svg width="24px" height="24px" viewBox="0 0 24 24" version="1.1" xmlns="http://www.w3.org/2000/svg" xmlns:xlink="http://www.w3.org/1999/xlink">
    <!-- Generator: Sketch 45.1 (43504) - http://www.bohemiancoding.com/sketch -->
    <title>editor/info</title>
    <desc>Created with Sketch.</desc>
    <defs></defs>
    <g id="Original" stroke="none" stroke-width="1" fill="none" fill-rule="evenodd">
        <g id="editor/info" fill="#42526E">
            <path d="M13,11.7919782 C12.6937688,11.9257762 12.3555524,12 12,12 C11.6444476,12 11.3062312,11.9257762 11,11.7919782 L11,16.5089948 C11,16.7721195 11.2259549,17 11.5046844,17 L12.4953156,17 C12.785965,17 13,16.7801695 13,16.5089948 L13,11.7919782 Z M12,20 C7.581722,20 4,16.418278 4,12 C4,7.581722 7.581722,4 12,4 C16.418278,4 20,7.581722 20,12 C20,16.418278 16.418278,20 12,20 Z M12,10 C12.8284271,10 13.5,9.32842712 13.5,8.5 C13.5,7.67157288 12.8284271,7 12,7 C11.1715729,7 10.5,7.67157288 10.5,8.5 C10.5,9.32842712 11.1715729,10 12,10 Z" id="Shape"></path>
        </g>
    </g>
</svg>