<?xml version="1.0" encoding="UTF-8" standalone="no"?>
<svg width="24px" height="24px" viewBox="0 0 24 24" version="1.1" xmlns="http://www.w3.org/2000/svg" xmlns:xlink="http://www.w3.org/1999/xlink">
    <!-- Generator: Sketch 45.1 (43504) - http://www.bohemiancoding.com/sketch -->
    <title>editor/note</title>
    <desc>Created with Sketch.</desc>
    <defs></defs>
    <g id="Original" stroke="none" stroke-width="1" fill="none" fill-rule="evenodd">
        <g id="editor/note" fill="#42526E">
            <path d="M6,4.4963932 C6,4.22224281 6.22900057,4 6.50034732,4 L17.4996527,4 C17.7759869,4 18,4.22618103 18,4.4963932 L18,19.5036068 C18,19.7777572 17.7709994,20 17.4996527,20 L6.50034732,20 C6.22401312,20 6,19.773819 6,19.5036068 L6,4.4963932 Z M8,7.5 C8,7.76806641 8.22405275,8 8.50043583,8 L15.4995642,8 C15.7692032,8 16,7.77614237 16,7.5 C16,7.23193359 15.7759472,7 15.4995642,7 L8.50043583,7 C8.23079681,7 8,7.22385763 8,7.5 Z M8,10.5 C8,10.7680664 8.22405275,11 8.50043583,11 L15.4995642,11 C15.7692032,11 16,10.7761424 16,10.5 C16,10.2319336 15.7759472,10 15.4995642,10 L8.50043583,10 C8.23079681,10 8,10.2238576 8,10.5 Z M8,13.5 C8,13.7680664 8.21959471,14 8.49047852,14 L11.5095215,14 C11.7849426,14 12,13.7761424 12,13.5 C12,13.2319336 11.7804053,13 11.5095215,13 L8.49047852,13 C8.21505737,13 8,13.2238576 8,13.5 Z" id="Shape"></path>
        </g>
    </g>
</svg>