<?xml version="1.0" encoding="UTF-8" standalone="no"?>
<svg width="24px" height="24px" viewBox="0 0 24 24" version="1.1" xmlns="http://www.w3.org/2000/svg" xmlns:xlink="http://www.w3.org/1999/xlink">
    <!-- Generator: Sketch 45.1 (43504) - http://www.bohemiancoding.com/sketch -->
    <title>editor/warning</title>
    <desc>Created with Sketch.</desc>
    <defs></defs>
    <g id="Original" stroke="none" stroke-width="1" fill="none" fill-rule="evenodd">
        <g id="editor/warning" fill="#42526E">
            <path d="M13,14.2080218 L13,10.4976988 C13,10.2148438 12.7740451,10 12.4953156,10 L11.5046844,10 C11.214035,10 11,10.2228273 11,10.4976988 L11,14.2080218 C11.3062312,14.0742238 11.6444476,14 12,14 C12.3555524,14 12.6937688,14.0742238 13,14.2080218 Z M11.5097295,4.87159202 C11.7804984,4.39022504 12.2224731,4.39550781 12.4902705,4.87159202 L20.5097295,19.128408 C20.7804984,19.609775 20.5550537,20 20.0066023,20 L3.99339768,20 C3.44475929,20 3.22247314,19.6044922 3.49027051,19.128408 L11.5097295,4.87159202 Z M12,18 C12.5522847,18 13,17.5522847 13,17 C13,16.4477153 12.5522847,16 12,16 C11.4477153,16 11,16.4477153 11,17 C11,17.5522847 11.4477153,18 12,18 Z" id="Shape"></path>
        </g>
    </g>
</svg>