<svg xmlns="http://www.w3.org/2000/svg" width="50" height="64" viewBox="0 0 50 64">
  <g fill="none" fill-rule="evenodd">
    <path fill="#FFF" stroke="#091E42" stroke-opacity=".08" d="M4,0.5 L33.4482107,0.5 C34.3733699,0.5 35.2608971,0.866298128 35.9167529,1.51881089 L48.4685422,14.0066223 C49.1287916,14.6635063 49.5,15.5564545 49.5,16.4878114 L49.5,60 C49.5,61.9329966 47.9329966,63.5 46,63.5 L4,63.5 C2.06700338,63.5 0.5,61.9329966 0.5,60 L0.5,4 C0.5,2.06700338 2.06700338,0.5 4,0.5 Z"/>
    <path fill="#FF8B00" d="M25.0341782,41.3333333 C24.6981782,41.3333333 24.3785115,41.1886667 24.1580115,40.9366667 L15.9575115,31.6033333 C15.6075115,31.2066667 15.5701782,30.6245 15.8630115,30.1846667 L18.9826782,25.518 C19.1996782,25.1948333 19.5636782,25 19.9533448,25 L30.2666782,25 C30.6703448,25 31.0448448,25.2088333 31.2583448,25.5506667 L34.1575115,30.2173333 C34.4281782,30.6525 34.3826782,31.2136667 34.0466782,31.5998333 L25.9138448,40.9331667 C25.6921782,41.1863333 25.3736782,41.3321667 25.0365115,41.3333333 L25.0341782,41.3333333 Z"/>
  </g>
</svg>
