<svg xmlns="http://www.w3.org/2000/svg" width="24" height="24" viewBox="0 0 24 24">
  <path fill="#2684FF" fill-rule="evenodd" d="M13.999716,12.7322713 L13.9997392,13.0112887 C13.9973118,14.1120688 13.1029853,15.0024597 12.0022052,15.0000323 L11.9977948,17.0000373 C14.2031418,17.0048906 15.9948711,15.221046 15.999744,13.0065527 L15.9997206,12.7325972 C16.5976761,12.3868275 17,11.7403977 17,11 C17,9.8954305 16.1045695,9 15,9 C13.8954305,9 13,9.8954305 13,11 C13,11.7401651 13.4020712,12.3864215 13.999716,12.7322713 Z M10,9.73243561 C10.5978014,9.38662619 11,8.74028236 11,8 C11,6.8954305 10.1045695,6 9,6 C7.8954305,6 7,6.8954305 7,8 C7,8.74028236 7.40219863,9.38662619 8,9.73243561 L8,14.2675644 C7.40219863,14.6133738 7,15.2597176 7,16 C7,17.1045695 7.8954305,18 9,18 C10.1045695,18 11,17.1045695 11,16 C11,15.2597176 10.5978014,14.6133738 10,14.2675644 L10,9.73243561 Z M6,4 L18,4 C19.1045695,4 20,4.8954305 20,6 L20,18 C20,19.1045695 19.1045695,20 18,20 L6,20 C4.8954305,20 4,19.1045695 4,18 L4,6 C4,4.8954305 4.8954305,4 6,4 Z"/>
</svg>
