<svg xmlns="http://www.w3.org/2000/svg" width="24" height="24" viewBox="0 0 24 24">
  <path fill="#36B37E" fill-rule="evenodd" d="M6,4 L18,4 C19.1045695,4 20,4.8954305 20,6 L20,18 C20,19.1045695 19.1045695,20 18,20 L6,20 C4.8954305,20 4,19.1045695 4,18 L4,6 C4,4.8954305 4.8954305,4 6,4 Z M12,15 L9.13733333,16.8221936 C8.71733333,17.2020108 8,16.9331243 8,16.3953514 L8,8.20576891 C8,7.5389787 8.596,7 9.33333333,7 L14.6666667,7 C15.4026667,7 16,7.5389787 16,8.20576891 L16,16.3953514 C16,16.9331243 15.2813333,17.2020108 14.8613333,16.8221936 L12,15 Z M12.0002502,12.6290354 L14,13.9025435 L14,9 L10,9 L10,13.9022689 L12.0002502,12.6290354 Z"/>
</svg>
