<svg xmlns="http://www.w3.org/2000/svg" width="24" height="24" viewBox="0 0 24 24">
  <path fill="#36B37E" fill-rule="evenodd" d="M6,4 L18,4 C19.1045695,4 20,4.8954305 20,6 L20,18 C20,19.1045695 19.1045695,20 18,20 L6,20 C4.8954305,20 4,19.1045695 4,18 L4,6 C4,4.8954305 4.8954305,4 6,4 Z M8,7 C7.44771525,7 7,7.44771525 7,8 C7,8.55228475 7.44771525,9 8,9 L9,9 C9.55228475,9 10,8.55228475 10,8 C10,7.44771525 9.55228475,7 9,7 L8,7 Z M8,11 C7.44771525,11 7,11.4477153 7,12 C7,12.5522847 7.44771525,13 8,13 L9,13 C9.55228475,13 10,12.5522847 10,12 C10,11.4477153 9.55228475,11 9,11 L8,11 Z M8,15 C7.44771525,15 7,15.4477153 7,16 C7,16.5522847 7.44771525,17 8,17 L9,17 C9.55228475,17 10,16.5522847 10,16 C10,15.4477153 9.55228475,15 9,15 L8,15 Z M13,7 C12.4477153,7 12,7.44771525 12,8 C12,8.55228475 12.4477153,9 13,9 L16,9 C16.5522847,9 17,8.55228475 17,8 C17,7.44771525 16.5522847,7 16,7 L13,7 Z M13,11 C12.4477153,11 12,11.4477153 12,12 C12,12.5522847 12.4477153,13 13,13 L16,13 C16.5522847,13 17,12.5522847 17,12 C17,11.4477153 16.5522847,11 16,11 L13,11 Z M13,15 C12.4477153,15 12,15.4477153 12,16 C12,16.5522847 12.4477153,17 13,17 L16,17 C16.5522847,17 17,16.5522847 17,16 C17,15.4477153 16.5522847,15 16,15 L13,15 Z"/>
</svg>
