<svg xmlns="http://www.w3.org/2000/svg" width="50" height="64" viewBox="0 0 50 64">
  <g fill="none" fill-rule="evenodd">
    <path fill="#FFF" stroke="#091E42" stroke-opacity=".08" d="M4,0.5 L33.4482107,0.5 C34.3733699,0.5 35.2608971,0.866298128 35.9167529,1.51881089 L48.4685422,14.0066223 C49.1287916,14.6635063 49.5,15.5564545 49.5,16.4878114 L49.5,60 C49.5,61.9329966 47.9329966,63.5 46,63.5 L4,63.5 C2.06700338,63.5 0.5,61.9329966 0.5,60 L0.5,4 C0.5,2.06700338 2.06700338,0.5 4,0.5 Z"/>
    <path fill="#36B37E" d="M16.8333333,23.8333333 L20.3333333,23.8333333 C20.9776655,23.8333333 21.5,24.3556678 21.5,25 C21.5,25.6443322 20.9776655,26.1666667 20.3333333,26.1666667 L16.8333333,26.1666667 C16.1890011,26.1666667 15.6666667,25.6443322 15.6666667,25 C15.6666667,24.3556678 16.1890011,23.8333333 16.8333333,23.8333333 Z M16.8333333,28.5 L20.3333333,28.5 C20.9776655,28.5 21.5,29.0223345 21.5,29.6666667 C21.5,30.3109989 20.9776655,30.8333333 20.3333333,30.8333333 L16.8333333,30.8333333 C16.1890011,30.8333333 15.6666667,30.3109989 15.6666667,29.6666667 C15.6666667,29.0223345 16.1890011,28.5 16.8333333,28.5 Z M16.8333333,33.1666667 L20.3333333,33.1666667 C20.9776655,33.1666667 21.5,33.6890011 21.5,34.3333333 C21.5,34.9776655 20.9776655,35.5 20.3333333,35.5 L16.8333333,35.5 C16.1890011,35.5 15.6666667,34.9776655 15.6666667,34.3333333 C15.6666667,33.6890011 16.1890011,33.1666667 16.8333333,33.1666667 Z M16.8333333,37.8333333 L20.3333333,37.8333333 C20.9776655,37.8333333 21.5,38.3556678 21.5,39 C21.5,39.6443322 20.9776655,40.1666667 20.3333333,40.1666667 L16.8333333,40.1666667 C16.1890011,40.1666667 15.6666667,39.6443322 15.6666667,39 C15.6666667,38.3556678 16.1890011,37.8333333 16.8333333,37.8333333 Z M25,23.8333333 L33.1666667,23.8333333 C33.8109989,23.8333333 34.3333333,24.3556678 34.3333333,25 C34.3333333,25.6443322 33.8109989,26.1666667 33.1666667,26.1666667 L25,26.1666667 C24.3556678,26.1666667 23.8333333,25.6443322 23.8333333,25 C23.8333333,24.3556678 24.3556678,23.8333333 25,23.8333333 Z M25,28.5 L33.1666667,28.5 C33.8109989,28.5 34.3333333,29.0223345 34.3333333,29.6666667 C34.3333333,30.3109989 33.8109989,30.8333333 33.1666667,30.8333333 L25,30.8333333 C24.3556678,30.8333333 23.8333333,30.3109989 23.8333333,29.6666667 C23.8333333,29.0223345 24.3556678,28.5 25,28.5 Z M25,33.1666667 L33.1666667,33.1666667 C33.8109989,33.1666667 34.3333333,33.6890011 34.3333333,34.3333333 C34.3333333,34.9776655 33.8109989,35.5 33.1666667,35.5 L25,35.5 C24.3556678,35.5 23.8333333,34.9776655 23.8333333,34.3333333 C23.8333333,33.6890011 24.3556678,33.1666667 25,33.1666667 Z M25,37.8333333 L33.1666667,37.8333333 C33.8109989,37.8333333 34.3333333,38.3556678 34.3333333,39 C34.3333333,39.6443322 33.8109989,40.1666667 33.1666667,40.1666667 L25,40.1666667 C24.3556678,40.1666667 23.8333333,39.6443322 23.8333333,39 C23.8333333,38.3556678 24.3556678,37.8333333 25,37.8333333 Z"/>
  </g>
</svg>
