<svg width="50" height="64" viewBox="0 0 50 64"><g fill-rule="evenodd"><path fill="#FFF" stroke="#091E42" stroke-opacity=".08" d="M4 .5h29.448a3.5 3.5 0 0 1 2.469 1.019l12.552 12.488a3.5 3.5 0 0 1 1.031 2.48V60a3.5 3.5 0 0 1-3.5 3.5H4A3.5 3.5 0 0 1 .5 60V4A3.5 3.5 0 0 1 4 .5z"/><path stroke="#004E8C" stroke-width="2" d="M16.667 25.946v12.156l12 1.66v-15.52l-12 1.704zm6.056 8.777l-.832 2.944h-3.15l-2.706-10.22h3.891l.597 2.696.697-2.697h2.998l.716 2.72.597-2.72h3.882L26.7 37.666h-3.136l-.841-2.943zm9.11-7.556v9.666h1.5v-9.666h-1.5z"/></g></svg>