<svg xmlns="http://www.w3.org/2000/svg" xmlns:xlink="http://www.w3.org/1999/xlink" width="24" height="24" viewBox="0 0 24 24">
  <defs>
    <path id="file-24-word-document-a" d="M3,1.42108547e-14 L21,1.42108547e-14 C22.6568542,1.39064955e-14 24,1.34314575 24,3 L24,21 C24,22.6568542 22.6568542,24 21,24 L3,24 C1.34314575,24 -2.41183085e-16,22.6568542 -4.4408921e-16,21 L-4.4408921e-16,3 C-6.46995335e-16,1.34314575 1.34314575,1.45152139e-14 3,1.42108547e-14 Z M4.37602767,6.01318388 C4.16031379,6.04379714 4,6.22846836 4,6.44634367 L4,17.5963098 C4,17.8147857 4.16117499,17.9997729 4.37759295,18.0296888 L15.5025929,19.5675249 C15.522444,19.570269 15.5424602,19.5716459 15.5625,19.5716459 C15.8041246,19.5716459 16,19.3757705 16,19.1341459 L16,4.86752744 C16,4.84696011 15.9985497,4.82641839 15.9956598,4.8060551 C15.9617096,4.56682756 15.7402552,4.40041742 15.5010277,4.43436765 L4.37602767,6.01318388 Z M10.0048828,11.3369141 L8.68652344,16 L7.29492188,16 L5.4296875,8.95410156 L6.96289062,8.95410156 L8.06152344,13.9199219 L8.13964844,13.9199219 L9.42382812,8.95410156 L10.6689453,8.95410156 L11.9775391,13.9199219 L12.0556641,13.9199219 L13.1445312,8.95410156 L14.6679688,8.95410156 L12.7978516,16 L11.4160156,16 L10.0830078,11.3369141 L10.0048828,11.3369141 Z M17,7 L17,17 L19.5,17 C19.7761424,17 20,16.7761424 20,16.5 L20,7.5 C20,7.22385763 19.7761424,7 19.5,7 L17,7 Z"/>
  </defs>
  <g fill="none" fill-rule="evenodd">
    <path stroke="#004E8C" stroke-width="2" d="M3,1 C1.8954305,1 1,1.8954305 1,3 L1,21 C1,22.1045695 1.8954305,23 3,23 L21,23 C22.1045695,23 23,22.1045695 23,21 L23,3 C23,1.8954305 22.1045695,1 21,1 L3,1 Z M4.23551948,5.02310436 L15.3605195,3.44428813 C16.1465528,3.33273737 16.8741885,3.87951355 16.9857393,4.66554691 C16.9976173,4.76620197 16.9976173,4.76620197 17,4.86752744 L17,19.1341459 C17,19.9280552 16.3564093,20.5716459 15.5625,20.5716459 C15.4637712,20.5693838 15.4637712,20.5693838 15.3656625,20.5581056 L4.24066255,19.0202695 C3.52957495,18.9219741 3,18.3141591 3,17.5963098 L3,6.44634367 C3,5.73046767 3.52674531,5.1236908 4.23551948,5.02310436 Z M9.99920557,10.3369141 L10.0991245,10.3369141 L10.0496355,10.5282842 L9.99920557,10.3369141 Z M12.0968026,14.7432136 L12.1473171,14.9199219 L12.0499008,14.9199219 L12.0968026,14.7432136 Z M12.1702086,15 L12.2833428,15.3957627 L12.1137421,15.5262204 L11.926466,15.384978 L12.0286466,15 L12.1702086,15 Z M13.3679252,9.95410156 L13.4285762,9.72559151 L14.0856135,9.19701442 L14.1085008,9.22676888 L13.9490168,9.95410156 L13.3679252,9.95410156 Z M9.89832676,9.95410156 L9.81791628,9.64896182 L10.044906,9.47320527 L10.2763579,9.65156645 L10.1981212,9.95410156 L9.89832676,9.95410156 Z M8.04344354,14.9199219 L7.95268806,14.9199219 L7.9995575,14.7541429 L8.04344354,14.9199219 Z M6.15994859,9.95410156 L5.99691245,9.21717823 L6.01532303,9.19325971 L6.6656869,9.71546419 L6.72886047,9.95410156 L6.15994859,9.95410156 Z M8.06464232,15 L8.16840095,15.3919468 L7.98468411,15.5309241 L7.81653593,15.401497 L7.93004817,15 L8.06464232,15 Z M8.17327739,9.79575176 L9.03791338,13.7039064 L8.06152344,13.9199219 L8.06152344,12.9199219 L8.13964844,12.9199219 L8.13964844,13.9199219 L7.17149755,13.6695544 L8.17327739,9.79575176 Z M11.9310692,9.81925427 L12.9445273,13.665101 L11.9775391,13.9199219 L11.9775391,12.9199219 L12.0556641,12.9199219 L12.0556641,13.9199219 L11.0788707,13.7057381 L11.9310692,9.81925427 Z M10.0490438,14.8563961 L9.12152187,11.6117682 L10.0830078,11.3369141 L10.0830078,12.3369141 L10.0048828,12.3369141 L10.0048828,11.3369141 L10.9671635,11.6089725 L10.0490438,14.8563961 Z M16,6 L19.5,6 C20.3284271,6 21,6.67157288 21,7.5 L21,16.5 C21,17.3284271 20.3284271,18 19.5,18 L16,18 L16,6 Z"/>
  </g>
</svg>
