<svg xmlns="http://www.w3.org/2000/svg" width="24" height="24" viewBox="0 0 24 24">
  <path fill="#2684FF" fill-rule="evenodd" d="M13,11 L13,8 C13,7.44771525 12.5522847,7 12,7 L8,7 C7.44771525,7 7,7.44771525 7,8 L7,12 C7,12.5522847 7.44771525,13 8,13 L11,13 L11,16 C11,16.5522847 11.4477153,17 12,17 L16,17 C16.5522847,17 17,16.5522847 17,16 L17,12 C17,11.4477153 16.5522847,11 16,11 L13,11 Z M4,5.99406028 C4,4.8927712 4.89451376,4 5.99406028,4 L18.0059397,4 C19.1072288,4 20,4.89451376 20,5.99406028 L20,18.0059397 C20,19.1072288 19.1054862,20 18.0059397,20 L5.99406028,20 C4.8927712,20 4,19.1054862 4,18.0059397 L4,5.99406028 Z M13,13 L15,13 L15,15 L13,15 L13,13 Z M9,9 L11,9 L11,11 L9,11 L9,9 Z"/>
</svg>
