<svg xmlns="http://www.w3.org/2000/svg" width="24" height="24" viewBox="0 0 24 24">
  <path fill="#FFAB00" fill-rule="evenodd" d="M6,4 L18,4 C19.1045695,4 20,4.8954305 20,6 L20,18 C20,19.1045695 19.1045695,20 18,20 L6,20 C4.8954305,20 4,19.1045695 4,18 L4,6 C4,4.8954305 4.8954305,4 6,4 Z M10.75,15.75 L10.2071068,15.2071067 C9.8165825,14.8165824 9.18341752,14.8165824 8.79289322,15.2071067 L7,17 L10.75,17 L17,17 L17,14.7499997 L15.205467,12.7760137 C14.8339601,12.3673561 14.2015118,12.3372395 13.7928542,12.7087465 C13.7811174,12.7194163 13.7696362,12.7303638 13.7584202,12.7415797 L10.75,15.75 Z M8.66666667,10.3333333 C9.58714125,10.3333333 10.3333333,9.58714125 10.3333333,8.66666667 C10.3333333,7.74619208 9.58714125,7 8.66666667,7 C7.74619208,7 7,7.74619208 7,8.66666667 C7,9.58714125 7.74619208,10.3333333 8.66666667,10.3333333 Z"/>
</svg>
