<?xml version="1.0" encoding="UTF-8" standalone="no"?>
<svg width="24px" height="24px" viewBox="0 0 24 24" version="1.1" xmlns="http://www.w3.org/2000/svg" xmlns:xlink="http://www.w3.org/1999/xlink">
    <!-- Generator: Sketch 46.2 (44496) - http://www.bohemiancoding.com/sketch -->
    <title>icons/jira-service-desk</title>
    <desc>Created with Sketch.</desc>
    <defs>
        <linearGradient x1="38.0412357%" y1="6.63683429%" x2="59.8560262%" y2="63.7778713%" id="linearGradient-1">
            <stop stop-color="#42526E" stop-opacity="0.4" offset="0%"></stop>
            <stop stop-color="#42526E" offset="100%"></stop>
        </linearGradient>
    </defs>
    <g id="Global" stroke="none" stroke-width="1" fill="none" fill-rule="evenodd">
        <g id="icons/jira-service-desk" fill-rule="nonzero">
            <path d="M13.335,9.98 L18.4875,10 C18.7910145,10.0014154 19.0677607,10.1739454 19.202651,10.4458419 C19.3375413,10.7177384 19.3074922,11.0424723 19.125,11.285 L11.52,21.44 C10.371774,20.5824807 9.61130464,19.303882 9.40594345,17.885577 C9.20058226,16.467272 9.56715774,15.0254848 10.425,13.8775 L13.335,9.98 Z" id="Shape" fill="url(#linearGradient-1)"></path>
            <path d="M10.4225,13.8775 L5.3,13.845 C4.99648547,13.8435846 4.71973925,13.6710546 4.58484898,13.3991581 C4.44995871,13.1272616 4.48000779,12.8025277 4.6625,12.56 L12.1925,2.5 C13.340726,3.35751933 14.1011954,4.63611796 14.3065565,6.05442297 C14.5119177,7.47272798 14.1453423,8.91451525 13.2875,10.0625 L10.4225,13.8775 Z" id="Shape" fill="#42526E"></path>
        </g>
    </g>
</svg>
