<?xml version="1.0" encoding="UTF-8" standalone="no"?>
<svg width="24px" height="24px" viewBox="0 0 24 24" version="1.1" xmlns="http://www.w3.org/2000/svg" xmlns:xlink="http://www.w3.org/1999/xlink">
    <!-- Generator: Sketch 46.2 (44496) - http://www.bohemiancoding.com/sketch -->
    <title>icons/statuspage</title>
    <desc>Created with Sketch.</desc>
    <defs>
        <linearGradient x1="50%" y1="82.7704637%" x2="50%" y2="10.7222514%" id="linearGradient-1">
            <stop stop-color="#42526E" offset="0%"></stop>
            <stop stop-color="#42526E" stop-opacity="0.4" offset="100%"></stop>
        </linearGradient>
    </defs>
    <g id="Global" stroke="none" stroke-width="1" fill="none" fill-rule="evenodd">
        <g id="icons/statuspage" fill-rule="nonzero">
            <ellipse id="Oval" fill="url(#linearGradient-1)" cx="12.0734211" cy="14.8612727" rx="4.13763158" ry="4.12927273"></ellipse>
            <path d="M3.34815789,10.0843636 L5.56973684,12.7103636 C5.65185232,12.8067284 5.7692422,12.8662286 5.89565177,12.8755569 C6.02206134,12.8848852 6.1469437,12.8432633 6.24236842,12.76 C9.84,9.54545455 14.3068421,9.54545455 17.9021053,12.76 C17.99753,12.8432633 18.1224123,12.8848852 18.2488219,12.8755569 C18.3752315,12.8662286 18.4926214,12.8067284 18.5747368,12.7103636 L20.7963158,10.0843636 C20.9641974,9.88566895 20.9398647,9.58898755 20.7418421,9.42018182 C15.5218421,4.86072727 8.62263158,4.86072727 3.40263158,9.41781818 C3.3068029,9.49897511 3.24722124,9.61481234 3.2370044,9.73982656 C3.22678757,9.86484077 3.26677321,9.98878234 3.34815789,10.0843636 Z" id="Shape" fill="#42526E"></path>
        </g>
    </g>
</svg>
