<?xml version="1.0" encoding="UTF-8" standalone="no"?>
<svg width="24px" height="24px" viewBox="0 0 24 24" version="1.1" xmlns="http://www.w3.org/2000/svg" xmlns:xlink="http://www.w3.org/1999/xlink">
    <!-- Generator: Sketch 46.2 (44496) - http://www.bohemiancoding.com/sketch -->
    <title>icons/switcher</title>
    <desc>Created with Sketch.</desc>
    <defs></defs>
    <g id="Global" stroke="none" stroke-width="1" fill="none" fill-rule="evenodd">
        <g id="icons/switcher" fill="#42526E">
            <path d="M5,5 C5,3.8954305 5.89451376,3 6.99406028,3 L17.0059397,3 C18.1072288,3 19,3.89444002 19,5 L5,5 Z" id="Combined-Shape-path"></path>
            <path d="M5,19 L19,19 C19,20.10556 18.1072288,21 17.0059397,21 L6.99406028,21 C5.89451376,21 5,20.1045695 5,19 Z" id="Combined-Shape-path"></path>
            <path d="M6,9 C5.44771525,9 5,9.44771525 5,10 L5,14 C5,14.5522847 5.44771525,15 6,15 L18,15 C18.5522847,15 19,14.5522847 19,14 L19,10 C19,9.44771525 18.5522847,9 18,9 L6,9 Z M6,7 L18,7 C19.6568542,7 21,8.34314575 21,10 L21,14 C21,15.6568542 19.6568542,17 18,17 L6,17 C4.34314575,17 3,15.6568542 3,14 L3,10 C3,8.34314575 4.34314575,7 6,7 Z" id="Rectangle-12" fill-rule="nonzero"></path>
            <polygon id="Line" fill-rule="nonzero" points="8 7.5 8 16.5 10 16.5 10 7.5"></polygon>
            <polygon id="Line-Copy" fill-rule="nonzero" points="14 7.5 14 16.5 16 16.5 16 7.5"></polygon>
        </g>
    </g>
</svg>