<svg xmlns="http://www.w3.org/2000/svg" width="24" height="24" viewBox="0 0 24 24">
  <path fill="#5E6C84" fill-rule="evenodd" d="M4,5.99406028 C4,4.8927712 4.89451376,4 5.99406028,4 L18.0059397,4 C19.1072288,4 20,4.89451376 20,5.99406028 L20,18.0059397 C20,19.1072288 19.1054862,20 18.0059397,20 L5.99406028,20 C4.8927712,20 4,19.1054862 4,18.0059397 L4,5.99406028 Z M7,12.7142857 L7,16.2857143 C7,16.6802034 7.31979661,17 7.71428571,17 L16.2857143,17 C16.6802034,17 17,16.6802034 17,16.2857143 L17,12.7142857 L7,12.7142857 Z M8.34484444,7 C7.98461354,7 7.68075567,7.26824032 7.63607453,7.62568948 L7,12.7142857 L17,12.7142857 L16.3639255,7.62568948 C16.3192443,7.26824032 16.0153865,7 15.6551556,7 L8.34484444,7 Z M9.14285714,14.1428571 L14.8571429,14.1428571 C15.251632,14.1428571 15.5714286,14.4626538 15.5714286,14.8571429 C15.5714286,15.251632 15.251632,15.5714286 14.8571429,15.5714286 L9.14285714,15.5714286 C8.74836804,15.5714286 8.42857143,15.251632 8.42857143,14.8571429 C8.42857143,14.4626538 8.74836804,14.1428571 9.14285714,14.1428571 Z"/>
</svg>
