<svg xmlns="http://www.w3.org/2000/svg" width="50" height="64" viewBox="0 0 50 64">
  <g fill="none" fill-rule="evenodd">
    <path fill="#FFF" stroke="#091E42" stroke-opacity=".08" d="M4,0.5 L33.4482107,0.5 C34.3733699,0.5 35.2608971,0.866298128 35.9167529,1.51881089 L48.4685422,14.0066223 C49.1287916,14.6635063 49.5,15.5564545 49.5,16.4878114 L49.5,60 C49.5,61.9329966 47.9329966,63.5 46,63.5 L4,63.5 C2.06700338,63.5 0.5,61.9329966 0.5,60 L0.5,4 C0.5,2.06700338 2.06700338,0.5 4,0.5 Z"/>
    <path fill="#5E6C84" d="M16.8333333,33.1666667 L17.8905043,24.7092986 C17.9530579,24.2088698 18.3784589,23.8333333 18.8827822,23.8333333 L31.1172178,23.8333333 C31.6215411,23.8333333 32.0469421,24.2088698 32.1094957,24.7092986 L33.1666667,33.1666667 L33.1666667,39.1666667 C33.1666667,39.7189514 32.7189514,40.1666667 32.1666667,40.1666667 L17.8333333,40.1666667 C17.2810486,40.1666667 16.8333333,39.7189514 16.8333333,39.1666667 L16.8333333,33.1666667 Z M20.1666667,35.5 C19.6143819,35.5 19.1666667,35.9477153 19.1666667,36.5 L19.1666667,36.8333333 C19.1666667,37.3856181 19.6143819,37.8333333 20.1666667,37.8333333 L29.8333333,37.8333333 C30.3856181,37.8333333 30.8333333,37.3856181 30.8333333,36.8333333 L30.8333333,36.5 C30.8333333,35.9477153 30.3856181,35.5 29.8333333,35.5 L20.1666667,35.5 Z"/>
  </g>
</svg>
