<svg xmlns="http://www.w3.org/2000/svg" width="50" height="64" viewBox="0 0 50 64">
  <g fill="none" fill-rule="evenodd">
    <path fill="#FFF" stroke="#091E42" stroke-opacity=".08" d="M4,0.5 L33.4482107,0.5 C34.3733699,0.5 35.2608971,0.866298128 35.9167529,1.51881089 L48.4685422,14.0066223 C49.1287916,14.6635063 49.5,15.5564545 49.5,16.4878114 L49.5,60 C49.5,61.9329966 47.9329966,63.5 46,63.5 L4,63.5 C2.06700338,63.5 0.5,61.9329966 0.5,60 L0.5,4 C0.5,2.06700338 2.06700338,0.5 4,0.5 Z"/>
    <path fill="#6554C0" d="M18,34.3333333 C18.6443322,34.3333333 19.1666667,34.8556678 19.1666667,35.5 L19.1666667,39 C19.1666667,39.6443322 18.6443322,40.1666667 18,40.1666667 C17.3556678,40.1666667 16.8333333,39.6443322 16.8333333,39 L16.8333333,35.5 C16.8333333,34.8556678 17.3556678,34.3333333 18,34.3333333 Z M27.3333333,27.3333333 C27.9776655,27.3333333 28.5,27.8556678 28.5,28.5 L28.5,39 C28.5,39.6443322 27.9776655,40.1666667 27.3333333,40.1666667 C26.6890011,40.1666667 26.1666667,39.6443322 26.1666667,39 L26.1666667,28.5 C26.1666667,27.8556678 26.6890011,27.3333333 27.3333333,27.3333333 Z M22.6666667,32 C23.3109989,32 23.8333333,32.5223345 23.8333333,33.1666667 L23.8333333,39 C23.8333333,39.6443322 23.3109989,40.1666667 22.6666667,40.1666667 C22.0223345,40.1666667 21.5,39.6443322 21.5,39 L21.5,33.1666667 C21.5,32.5223345 22.0223345,32 22.6666667,32 Z M32,23.8333333 C32.6443322,23.8333333 33.1666667,24.3556678 33.1666667,25 L33.1666667,39 C33.1666667,39.6443322 32.6443322,40.1666667 32,40.1666667 C31.3556678,40.1666667 30.8333333,39.6443322 30.8333333,39 L30.8333333,25 C30.8333333,24.3556678 31.3556678,23.8333333 32,23.8333333 Z"/>
  </g>
</svg>
