<svg width="24" height="24" viewBox="0 0 24 24"><path d="M3 0h18a3 3 0 0 1 3 3v18a3 3 0 0 1-3 3H3a3 3 0 0 1-3-3V3a3 3 0 0 1 3-3zm17.002 18.548c0-.198-.04-.391-.148-.558a7.464 7.464 0 0 0-.44-.817 3.974 3.974 0 0 1-.262-.608c-.073-.23-.07-.306-.14-.233C20.277 15.01 21 13.336 21 11.574 21 7.35 16.925 4 12 4s-9 3.349-9 7.574c0 4.226 4.075 7.574 9 7.574 1.138 0 2.25-.183 3.298-.532.874.708 1.925 1.18 2.897 1.338a1.454 1.454 0 0 0 1.807-1.406zm-2.756-1.378c.046.144.1.289.161.434a4.471 4.471 0 0 1-1.181-.84l-.469-.47-.615.248a8.374 8.374 0 0 1-3.142.606c-3.897 0-7-2.55-7-5.574S8.103 6 12 6c3.898 0 7 2.55 7 5.574 0 1.227-.512 2.412-1.437 3.38-.565.597-.587 1.365-.317 2.216z" fill="currentColor" fill-rule="evenodd"/></svg>