<?xml version="1.0" encoding="UTF-8" standalone="no"?>
<svg width="24px" height="24px" viewBox="0 0 24 24" version="1.1" xmlns="http://www.w3.org/2000/svg" xmlns:xlink="http://www.w3.org/1999/xlink">
    <!-- Generator: Sketch 48.2 (47327) - http://www.bohemiancoding.com/sketch -->
    <title>objects/24/access-request</title>
    <desc>Created with Sketch.</desc>
    <defs></defs>
    <g id="[2px]-Converted-to-outlines" stroke="none" stroke-width="1" fill="none" fill-rule="evenodd">
        <g id="objects/24/access-request" fill="#42526E">
            <path d="M8,9 L7.00585866,9 C5.89706013,9 5,9.8992496 5,11.0085302 L5,18.9914698 C5,20.0980496 5.89805351,21 7.00585866,21 L16.9941413,21 C18.1029399,21 19,20.1007504 19,18.9914698 L19,11.0085302 C19,9.90195036 18.1019465,9 16.9941413,9 L16,9 L16,7.00236948 C16,4.79182182 14.209139,3 12,3 C9.79535615,3 8,4.79192185 8,7.00236948 L8,9 Z M3,0 L21,0 C22.6568542,-3.04359188e-16 24,1.34314575 24,3 L24,21 C24,22.6568542 22.6568542,24 21,24 L3,24 C1.34314575,24 2.02906125e-16,22.6568542 0,21 L0,3 C-2.02906125e-16,1.34314575 1.34314575,3.04359188e-16 3,0 Z M12,5 C13.1045695,5 14,5.8954305 14,7 L14,9 L10,9 L10,7 C10,5.8954305 10.8954305,5 12,5 Z M7,11 L17,11 L17,19 L7,19 L7,11 Z M12,17 C13.1045695,17 14,16.1045695 14,15 C14,13.8954305 13.1045695,13 12,13 C10.8954305,13 10,13.8954305 10,15 C10,16.1045695 10.8954305,17 12,17 Z" id="Combined-Shape"></path>
        </g>
    </g>
</svg>