<?xml version="1.0" encoding="UTF-8" standalone="no"?>
<svg width="24px" height="24px" viewBox="0 0 24 24" version="1.1" xmlns="http://www.w3.org/2000/svg" xmlns:xlink="http://www.w3.org/1999/xlink">
    <!-- Generator: Sketch 48.2 (47327) - http://www.bohemiancoding.com/sketch -->
    <title>objects/24/action</title>
    <desc>Created with Sketch.</desc>
    <defs></defs>
    <g id="[2px]-Converted-to-outlines" stroke="none" stroke-width="1" fill="none" fill-rule="evenodd">
        <g id="objects/24/action" fill="#42526E">
            <path d="M3,0 L21,0 C22.6568542,-3.04359188e-16 24,1.34314575 24,3 L24,21 C24,22.6568542 22.6568542,24 21,24 L3,24 C1.34314575,24 2.02906125e-16,22.6568542 0,21 L0,3 C-2.02906125e-16,1.34314575 1.34314575,3.04359188e-16 3,0 Z M4,5.00087166 L4,18.9991283 C4,19.5553691 4.4481055,20 5.00087166,20 L18.9991283,20 C19.5553691,20 20,19.5518945 20,18.9991283 L20,5.00087166 C20,4.44463086 19.5518945,4 18.9991283,4 L5.00087166,4 C4.44463086,4 4,4.4481055 4,5.00087166 Z M11.037981,12.5009233 L14.2993564,9.38193248 C14.6984962,9.00021819 15.3315036,9.0143444 15.7132179,9.41348428 C16.0949322,9.81262415 16.080806,10.4456315 15.6816661,10.8273458 L11.7178948,14.6180675 C11.3267758,14.9921112 10.7090617,14.9871316 10.3240237,14.606831 L8.32686518,12.6342454 C7.93393106,12.2461459 7.93001183,11.612993 8.31811132,11.2200589 C8.70621082,10.8271248 9.33936367,10.8232056 9.73229779,11.2113051 L11.037981,12.5009233 Z" id="Combined-Shape"></path>
        </g>
    </g>
</svg>