<?xml version="1.0" encoding="UTF-8" standalone="no"?>
<svg width="24px" height="24px" viewBox="0 0 24 24" version="1.1" xmlns="http://www.w3.org/2000/svg" xmlns:xlink="http://www.w3.org/1999/xlink">
    <!-- Generator: Sketch 48.2 (47327) - http://www.bohemiancoding.com/sketch -->
    <title>objects/24/comment</title>
    <desc>Created with Sketch.</desc>
    <defs></defs>
    <g id="[2px]-Converted-to-outlines" stroke="none" stroke-width="1" fill="none" fill-rule="evenodd">
        <g id="objects/24/comment" fill="#42526E">
            <path d="M3,0 L21,0 C22.6568542,-3.04359188e-16 24,1.34314575 24,3 L24,21 C24,22.6568542 22.6568542,24 21,24 L3,24 C1.34314575,24 2.02906125e-16,22.6568542 0,21 L0,3 C-2.02906125e-16,1.34314575 1.34314575,3.04359188e-16 3,0 Z M20.0020532,18.5478783 C20.0020532,18.3504855 19.9622,18.1567473 19.8542424,17.9901182 C19.692387,17.6177368 19.4127816,17.1720961 19.4131376,17.1727826 C19.3001142,16.9548336 19.2102853,16.7474976 19.1523172,16.5650008 C19.0794208,16.335506 19.0816776,16.2585622 19.0120985,16.3321332 C20.2774208,15.0089926 21,13.335839 21,11.5741645 C21,7.34892045 16.9249984,4 12.0004439,4 C7.07515183,4 3,7.34878732 3,11.5741645 C3,15.7995416 7.07515183,19.148329 12.0004439,19.148329 C13.138287,19.148329 14.2505246,18.9651704 15.2975143,18.6155926 C16.1715263,19.3241634 17.223016,19.7958091 18.1952667,19.9543203 C18.3154791,19.9841854 18.4107022,20 18.5448088,20 C19.3476199,20 20.0020532,19.3524189 20.0020532,18.5478783 Z M17.2461667,17.1704678 C17.2917198,17.3138793 17.3456676,17.4585422 17.4070196,17.6042304 C16.9743157,17.3904627 16.5664445,17.1054974 16.2256027,16.7634318 L15.7573133,16.293461 L15.1422675,16.5422302 C14.1628685,16.9383704 13.0977134,17.148329 12.0004439,17.148329 C8.10257089,17.148329 5,14.5987675 5,11.5741645 C5,8.54956147 8.10257089,6 12.0004439,6 C15.8975539,6 19,8.54965429 19,11.5741645 C19,12.800987 18.4880965,13.9863146 17.5628289,14.9538782 C16.998253,15.5508224 16.975721,16.3190418 17.2461667,17.1704678 Z" id="Combined-Shape"></path>
        </g>
    </g>
</svg>