<?xml version="1.0" encoding="UTF-8" standalone="no"?>
<svg width="24px" height="24px" viewBox="0 0 24 24" version="1.1" xmlns="http://www.w3.org/2000/svg" xmlns:xlink="http://www.w3.org/1999/xlink">
    <!-- Generator: Sketch 48.2 (47327) - http://www.bohemiancoding.com/sketch -->
    <title>objects/24/config</title>
    <desc>Created with Sketch.</desc>
    <defs></defs>
    <g id="[2px]-Converted-to-outlines" stroke="none" stroke-width="1" fill="none" fill-rule="evenodd">
        <g id="objects/24/config" fill="#42526E">
            <path d="M3,0 L21,0 C22.6568542,-3.04359188e-16 24,1.34314575 24,3 L24,21 C24,22.6568542 22.6568542,24 21,24 L3,24 C1.34314575,24 2.02906125e-16,22.6568542 0,21 L0,3 C-2.02906125e-16,1.34314575 1.34314575,3.04359188e-16 3,0 Z M18.4604257,11.9999654 C18.4604257,11.1943415 18.9781954,10.5165507 19.697371,10.2664026 C19.9153309,10.1909903 20.0496016,9.96015517 19.9870646,9.73851664 C19.8040518,9.09107461 19.5437875,8.47766007 19.2182271,7.90563032 C19.109707,7.71434063 18.8715146,7.64352665 18.6682693,7.72629623 C18.3141994,7.87160282 17.9049498,7.90930897 17.4809857,7.80078885 C16.8611335,7.64076767 16.3543997,7.13587324 16.1906999,6.51694073 C16.0785012,6.09113724 16.1162073,5.68004833 16.2605942,5.32413915 C16.3424441,5.12181351 16.2716302,4.88362106 16.0803405,4.77510095 C15.512909,4.45413892 14.9040928,4.19663356 14.2640081,4.01546015 C14.0414499,3.95292314 13.8115344,4.08627413 13.7361221,4.30423402 C13.485974,5.02432934 12.8081832,5.54209904 12.0025593,5.54209904 C11.197855,5.54209904 10.5191445,5.02432934 10.2699161,4.30515368 C10.1935842,4.08719379 9.962749,3.95292314 9.74111047,4.01546015 C9.08998979,4.19939255 8.4728966,4.46149621 7.89810787,4.78981554 C7.71325581,4.89557667 7.63508454,5.12733148 7.71601479,5.32505881 C7.85120511,5.65705678 7.89258989,6.03595752 7.80614167,6.43141217 C7.66359406,7.08069352 7.14950302,7.62421375 6.50665929,7.79619054 C6.08545411,7.90930897 5.68080284,7.87344215 5.32949196,7.73365353 C5.12716633,7.65272327 4.88989354,7.72445691 4.78229309,7.91390728 C4.45765241,8.48593702 4.19830773,9.10027123 4.01621466,9.74771326 C3.95367765,9.96751247 4.08518931,10.1955886 4.29947055,10.2737599 C5.00852993,10.5294259 5.51618335,11.2026185 5.51618335,11.9999654 C5.51618335,12.7973124 5.00852993,13.4705049 4.29855089,13.726171 C4.08426965,13.8034226 3.95367765,14.0314987 4.015295,14.251298 C4.17807517,14.827926 4.40339235,15.3788035 4.68021061,15.8974929 C4.78965038,16.1016579 5.04347709,16.1715522 5.25407968,16.0749877 C5.80127856,15.8239199 6.48918572,15.8321969 7.18904848,16.2938672 C7.29664893,16.3646812 7.39597243,16.4640047 7.4667864,16.5706855 C7.95144826,17.3054954 7.93765333,18.0237514 7.64887947,18.5819862 C7.54311834,18.7870708 7.6047357,19.0427369 7.80338268,19.1595339 C8.40484162,19.5126841 9.05596229,19.7913417 9.74294979,19.9844707 C9.96458833,20.0470077 10.1926645,19.9145764 10.2671571,19.6966165 C10.5145462,18.9737622 11.1950961,18.4523139 12.0025593,18.4523139 C12.8100225,18.4523139 13.4905723,18.9737622 13.7379614,19.6966165 C13.812454,19.9136568 14.0405302,20.0470077 14.2621687,19.9844707 C14.9399596,19.7941007 15.5828033,19.5191218 16.1787443,19.1724092 C16.3792306,19.0556121 16.4399283,18.7971871 16.3323279,18.5921025 C16.0398753,18.032948 16.0224018,17.3110134 16.5079833,16.5734445 C16.5787973,16.4667637 16.6781208,16.3665205 16.7857212,16.2957065 C17.4957003,15.8257593 18.1900451,15.8239199 18.7400029,16.0841843 C18.9506055,16.1835078 19.2071912,16.1145331 19.3175506,15.9094485 C19.5971279,15.3907591 19.8224451,14.838962 19.9870646,14.2604946 C20.0496016,14.038856 19.9162506,13.8089405 19.6982907,13.7335283 C18.9781954,13.4833802 18.4604257,12.8055893 18.4604257,11.9999654 Z M7.40241006,11.9999654 C7.40241006,9.4589394 9.46153323,7.39981623 12.0025593,7.39981623 C14.5435853,7.39981623 16.6027085,9.4589394 16.6027085,11.9999654 C16.6027085,14.5400718 14.5435853,16.6001146 12.0025593,16.6001146 C9.46153323,16.6001146 7.40241006,14.5400718 7.40241006,11.9999654 Z" id="Combined-Shape"></path>
        </g>
    </g>
</svg>