<?xml version="1.0" encoding="UTF-8" standalone="no"?>
<svg width="24px" height="24px" viewBox="0 0 24 24" version="1.1" xmlns="http://www.w3.org/2000/svg" xmlns:xlink="http://www.w3.org/1999/xlink">
    <!-- Generator: Sketch 48.2 (47327) - http://www.bohemiancoding.com/sketch -->
    <title>objects/24/decision</title>
    <desc>Created with Sketch.</desc>
    <defs></defs>
    <g id="[2px]-Converted-to-outlines" stroke="none" stroke-width="1" fill="none" fill-rule="evenodd">
        <g id="objects/24/decision" fill="#42526E">
            <path d="M6,7.41317804 L11.0001636,12.4103761 L11,18.9999752 C10.9999863,19.5522599 11.4476904,19.9999863 11.9999752,20 C12.5522599,20.0000137 12.9999863,19.5523096 13,19.0000248 L13.0001739,11.9960239 C13.0001805,11.730696 12.8947417,11.4762421 12.7070709,11.2886826 L7.41524982,6 L10,6 C10.5522847,6 11,5.55228475 11,5 C11,4.44771525 10.5522847,4 10,4 L5,4 C4.44771525,4 4,4.44771525 4,5 L4,9.99935913 C4,10.5516439 4.44771525,10.9993591 5,10.9993591 C5.55228475,10.9993591 6,10.5516439 6,9.99935913 L6,7.41317804 Z M3,0 L21,0 C22.6568542,-3.04359188e-16 24,1.34314575 24,3 L24,21 C24,22.6568542 22.6568542,24 21,24 L3,24 C1.34314575,24 2.02906125e-16,22.6568542 0,21 L0,3 C-2.02906125e-16,1.34314575 1.34314575,3.04359188e-16 3,0 Z M18.25,4.297 L13.788,8.812 C13.4,9.205 13.404,9.838 13.797,10.225 C14.19,10.614 14.823,10.611 15.211,10.217 L19.673,5.703 C20.061,5.31 20.057,4.677 19.665,4.289 C19.469,4.096 19.215,4 18.962,4 C18.703,4 18.446,4.099 18.25,4.297 Z" id="Combined-Shape"></path>
        </g>
    </g>
</svg>