<?xml version="1.0" encoding="UTF-8" standalone="no"?>
<svg width="24px" height="24px" viewBox="0 0 24 24" version="1.1" xmlns="http://www.w3.org/2000/svg" xmlns:xlink="http://www.w3.org/1999/xlink">
    <!-- Generator: Sketch 48.2 (47327) - http://www.bohemiancoding.com/sketch -->
    <title>objects/24/favorite</title>
    <desc>Created with Sketch.</desc>
    <defs></defs>
    <g id="[2px]-Converted-to-outlines" stroke="none" stroke-width="1" fill="none" fill-rule="evenodd">
        <g id="objects/24/favorite" fill="#42526E">
            <path d="M3,0 L21,0 C22.6568542,-3.04359188e-16 24,1.34314575 24,3 L24,21 C24,22.6568542 22.6568542,24 21,24 L3,24 C1.34314575,24 2.02906125e-16,22.6568542 0,21 L0,3 C-2.02906125e-16,1.34314575 1.34314575,3.04359188e-16 3,0 Z M11.9999675,17.5143076 L15.4982495,19.4418798 C15.6944507,19.5499877 15.921269,19.5890868 16.1423422,19.552909 C16.6873772,19.4637161 17.0569101,18.9495729 16.9677172,18.404538 L16.2877288,14.2493029 L19.2106534,11.2631842 C19.3572398,11.1134286 19.4530759,10.9214064 19.4846265,10.7142377 C19.5677775,10.1682484 19.1925729,9.65822938 18.6465835,9.5750784 L14.6499497,8.96641448 L12.9046804,5.26010666 C12.8056219,5.04974296 12.6363529,4.88047398 12.4259892,4.78141547 C11.9263301,4.54613016 11.3305399,4.76044751 11.0952545,5.26010666 L9.34998526,8.96641448 L5.35335143,9.5750784 C5.14618271,9.60662899 4.95416057,9.70246511 4.80440494,9.84905151 C4.40972677,10.2353773 4.40295579,10.868506 4.78928154,11.2631842 L7.71220618,14.2493029 L7.03221771,18.404538 C6.99603991,18.6256112 7.03513904,18.8524295 7.14324692,19.0486307 C7.40977659,19.5323458 8.01797022,19.7084095 8.5016854,19.4418798 L11.9999675,17.5143076 Z" id="Combined-Shape"></path>
        </g>
    </g>
</svg>