<?xml version="1.0" encoding="UTF-8" standalone="no"?>
<svg width="24px" height="24px" viewBox="0 0 24 24" version="1.1" xmlns="http://www.w3.org/2000/svg" xmlns:xlink="http://www.w3.org/1999/xlink">
    <!-- Generator: Sketch 48.2 (47327) - http://www.bohemiancoding.com/sketch -->
    <title>objects/24/page</title>
    <desc>Created with Sketch.</desc>
    <defs></defs>
    <g id="[2px]-Converted-to-outlines" stroke="none" stroke-width="1" fill="none" fill-rule="evenodd">
        <g id="objects/24/page" fill="#42526E">
            <path d="M3,0 L21,0 C22.6568542,-3.04359188e-16 24,1.34314575 24,3 L24,21 C24,22.6568542 22.6568542,24 21,24 L3,24 C1.34314575,24 2.02906125e-16,22.6568542 0,21 L0,3 C-2.02906125e-16,1.34314575 1.34314575,3.04359188e-16 3,0 Z M4,17 C4,17.5561352 4.44565467,18 4.99539757,18 L13.0046024,18 C13.5443356,18 14,17.5522847 14,17 C14,16.4438648 13.5543453,16 13.0046024,16 L4.99539757,16 C4.4556644,16 4,16.4477153 4,17 Z M4,7 C4,7.55613518 4.4481055,8 5.00087166,8 L18.9991283,8 C19.5553691,8 20,7.55228475 20,7 C20,6.44386482 19.5518945,6 18.9991283,6 L5.00087166,6 C4.44463086,6 4,6.44771525 4,7 Z M4,12 C4,12.5561352 4.4481055,13 5.00087166,13 L18.9991283,13 C19.5553691,13 20,12.5522847 20,12 C20,11.4438648 19.5518945,11 18.9991283,11 L5.00087166,11 C4.44463086,11 4,11.4477153 4,12 Z" id="Combined-Shape"></path>
        </g>
    </g>
</svg>