<?xml version="1.0" encoding="UTF-8" standalone="no"?>
<svg width="24px" height="24px" viewBox="0 0 24 24" version="1.1" xmlns="http://www.w3.org/2000/svg" xmlns:xlink="http://www.w3.org/1999/xlink">
    <!-- Generator: Sketch 48.2 (47327) - http://www.bohemiancoding.com/sketch -->
    <title>objects/24/service-desk</title>
    <desc>Created with Sketch.</desc>
    <defs></defs>
    <g id="[2px]-Converted-to-outlines" stroke="none" stroke-width="1" fill="none" fill-rule="evenodd">
        <g id="objects/24/service-desk" fill="#42526E">
            <path d="M11,7 L11,8.07088886 C7.60770586,8.55611852 5,11.4735281 5,15 L5,16 L19,16 L19,15 C19,11.4735281 16.3922941,8.55611852 13,8.07088886 L13,7 L14,7 C14.5522847,7 15,6.55228475 15,6 C15,5.44771525 14.5522847,5 14,5 L10,5 C9.44771525,5 9,5.44771525 9,6 C9,6.55228475 9.44771525,7 10,7 L11,7 Z M3,0 L21,0 C22.6568542,-3.04359188e-16 24,1.34314575 24,3 L24,21 C24,22.6568542 22.6568542,24 21,24 L3,24 C1.34314575,24 2.02906125e-16,22.6568542 0,21 L0,3 C-2.02906125e-16,1.34314575 1.34314575,3.04359188e-16 3,0 Z M5,17 C4.44771525,17 4,17.4477153 4,18 C4,18.5522847 4.44771525,19 5,19 L19,19 C19.5522847,19 20,18.5522847 20,18 C20,17.4477153 19.5522847,17 19,17 L5,17 Z" id="Combined-Shape"></path>
        </g>
    </g>
</svg>