<?xml version="1.0" encoding="UTF-8" standalone="no"?>
<svg width="24px" height="24px" viewBox="0 0 24 24" version="1.1" xmlns="http://www.w3.org/2000/svg" xmlns:xlink="http://www.w3.org/1999/xlink">
    <!-- Generator: Sketch 48.2 (47327) - http://www.bohemiancoding.com/sketch -->
    <title>objects/24/service-desk-approval</title>
    <desc>Created with Sketch.</desc>
    <defs></defs>
    <g id="[2px]-Converted-to-outlines" stroke="none" stroke-width="1" fill="none" fill-rule="evenodd">
        <g id="objects/24/service-desk-approval" fill="#42526E">
            <path d="M10.0829584,17 L5,17 C4.44771525,17 4,17.4477153 4,18 C4,18.5522847 4.44771525,19 5,19 L10.8026932,19 C11.8401214,20.7934041 13.7791529,22 16,22 C19.3137085,22 22,19.3137085 22,16 C22,13.0195903 19.8269162,10.5467315 16.9787592,10.0794342 C15.9309795,9.01934069 14.5470825,8.29218168 13,8.07088886 L13,7 L14,7 C14.5522847,7 15,6.55228475 15,6 C15,5.44771525 14.5522847,5 14,5 L10,5 C9.44771525,5 9,5.44771525 9,6 C9,6.55228475 9.44771525,7 10,7 L11,7 L11,8.07088886 C7.60770586,8.55611852 5,11.4735281 5,15 L5,16 L10,16 C10,16.3407122 10.0283988,16.6747915 10.0829584,17 Z M3,0 L21,0 C22.6568542,-3.04359188e-16 24,1.34314575 24,3 L24,21 C24,22.6568542 22.6568542,24 21,24 L3,24 C1.34314575,24 2.02906125e-16,22.6568542 0,21 L0,3 C-2.02906125e-16,1.34314575 1.34314575,3.04359188e-16 3,0 Z M16,22 C12.6862915,22 10,19.3137085 10,16 C10,12.6862915 12.6862915,10 16,10 C19.3137085,10 22,12.6862915 22,16 C22,19.3137085 19.3137085,22 16,22 Z M18.2928932,13.2928932 L15.5012956,16.0844908 L14.2381061,14.8166679 C13.8482974,14.4254294 13.2151334,14.4242703 12.8238949,14.814079 C12.4326564,15.2038878 12.4314973,15.8370517 12.821306,16.2282902 L14.7916,18.2058111 C15.1819134,18.5975562 15.8160769,18.5981367 16.2071068,18.2071068 L19.7071068,14.7071068 C20.0976311,14.3165825 20.0976311,13.6834175 19.7071068,13.2928932 C19.3165825,12.9023689 18.6834175,12.9023689 18.2928932,13.2928932 Z" id="Combined-Shape"></path>
        </g>
    </g>
</svg>