<?xml version="1.0" encoding="UTF-8" standalone="no"?>
<svg width="24px" height="24px" viewBox="0 0 24 24" version="1.1" xmlns="http://www.w3.org/2000/svg" xmlns:xlink="http://www.w3.org/1999/xlink">
    <!-- Generator: Sketch 48.2 (47327) - http://www.bohemiancoding.com/sketch -->
    <title>objects/24/support</title>
    <desc>Created with Sketch.</desc>
    <defs></defs>
    <g id="[2px]-Converted-to-outlines" stroke="none" stroke-width="1" fill="none" fill-rule="evenodd">
        <g id="objects/24/support" fill="#42526E">
            <path d="M3,0 L21,0 C22.6568542,-3.04359188e-16 24,1.34314575 24,3 L24,21 C24,22.6568542 22.6568542,24 21,24 L3,24 C1.34314575,24 2.02906125e-16,22.6568542 0,21 L0,3 C-2.02906125e-16,1.34314575 1.34314575,3.04359188e-16 3,0 Z M19.973238,10.3996628 C20.080441,9.15013471 19.8740353,7.97401234 19.2004169,6.90718291 C18.3403523,5.47335406 16.6895749,4.74481115 15.0755037,5.08672166 C14.1073624,5.28088887 13.2232459,5.77948529 12.5474344,6.51242339 C12.3554291,6.70980315 12.1826244,6.92675776 12.0018194,7.13392494 C11.988241,7.13063105 11.9752737,7.12512264 11.9634184,7.11761257 C11.9218172,7.0670442 11.8802161,7.01810707 11.840215,6.96590746 C11.3543633,6.33624152 10.7380601,5.82378329 10.0353655,5.4651688 C8.46412242,4.67238729 6.69927402,4.89912933 5.45763997,6.09808902 C4.40321106,7.11598133 4,8.41118404 4,9.86461681 C4.01232663,11.0655009 4.36397733,12.2373012 5.01282778,13.2396476 C5.8954398,14.6587145 6.98166536,15.9349213 8.23531615,17.0257502 C8.95853399,17.6880017 9.77375844,18.2376828 10.6545825,18.6569879 C11.1649965,18.8869924 11.6866108,19.0550099 12.2546264,18.9832354 C12.9874465,18.8886236 13.6306641,18.5640073 14.2402808,18.1676166 C16.0227297,17.0078066 17.4643692,15.4891243 18.6724024,13.7322813 C19.3604212,12.7274389 19.8660351,11.6442971 19.973238,10.3996628 Z" id="Combined-Shape"></path>
        </g>
    </g>
</svg>