<?xml version="1.0" encoding="UTF-8" standalone="no"?>
<svg width="24px" height="24px" viewBox="0 0 24 24" version="1.1" xmlns="http://www.w3.org/2000/svg" xmlns:xlink="http://www.w3.org/1999/xlink">
    <!-- Generator: Sketch 48.2 (47327) - http://www.bohemiancoding.com/sketch -->
    <title>objects/24/user</title>
    <desc>Created with Sketch.</desc>
    <defs></defs>
    <g id="[2px]-Converted-to-outlines" stroke="none" stroke-width="1" fill="none" fill-rule="evenodd">
        <g id="objects/24/user" fill="#42526E">
            <path d="M3,0 L21,0 C22.6568542,-3.04359188e-16 24,1.34314575 24,3 L24,21 C24,22.6568542 22.6568542,24 21,24 L3,24 C1.34314575,24 2.02906125e-16,22.6568542 0,21 L0,3 C-2.02906125e-16,1.34314575 1.34314575,3.04359188e-16 3,0 Z M12,11 C13.9329966,11 15.5,9.43299662 15.5,7.5 C15.5,5.56700338 13.9329966,4 12,4 C10.0670034,4 8.5,5.56700338 8.5,7.5 C8.5,9.43299662 10.0670034,11 12,11 Z M12,20 C14.98501,20 17.4609011,19.0414553 17.9227153,17.7861565 C17.9724969,17.6673444 18,17.536884 18,17.4 L18,13 C18,12.4477153 17.5522847,12 17,12 L7,12 C6.44771525,12 6,12.4477153 6,13 L6,17.4 C6,17.536884 6.02750308,17.6673444 6.0772847,17.7861565 C6.53909894,19.0414553 9.01499,20 12,20 Z" id="Combined-Shape"></path>
        </g>
    </g>
</svg>