<svg width="24" height="24" viewBox="0 0 24 24"><path d="M3 0h18a3 3 0 0 1 3 3v18a3 3 0 0 1-3 3H3a3 3 0 0 1-3-3V3a3 3 0 0 1 3-3zm8.998 4A5.997 5.997 0 0 0 6 9.998c0 2.218 2.288 4.484 2.288 4.484.39.387.71 1.112.71 1.611 0 .499.45.907 1 .907h4c.55 0 1-.408 1-.907 0-.499.32-1.224.71-1.611 0 0 2.288-2.266 2.288-4.484A5.997 5.997 0 0 0 11.998 4zm2.965 15c0-.55-.45-1-1-1h-4c-.55 0-1 .45-1 1v.003c0 .55.45 1 1 1h4c.55 0 1-.45 1-1V19zM12 6c2.205 0 4 1.794 4 4 0 1.03-1.146 2.512-1.696 3.066-.507.5-.912 1.216-1.13 1.939h-2.348c-.217-.723-.622-1.436-1.125-1.935C9.145 12.512 8 11.03 8 10c0-2.206 1.795-4 4-4z" fill="currentColor" fill-rule="evenodd"/></svg>