<svg xmlns="http://www.w3.org/2000/svg" width="24" height="24" viewBox="0 0 24 24">
  <path fill="#6554C0" fill-rule="evenodd" d="M6,4 L18,4 C19.1045695,4 20,4.8954305 20,6 L20,18 C20,19.1045695 19.1045695,20 18,20 L6,20 C4.8954305,20 4,19.1045695 4,18 L4,6 C4,4.8954305 4.8954305,4 6,4 Z M15.912,11.767 C15.963,11.689 16,11.6 16,11.5 C16,11.224 15.776,11 15.5,11 L13,11 L13,7.5 C13,7.224 12.776,7 12.5,7 C12.35,7 12.22,7.069 12.128,7.173 L12.126,7.172 L8.149,12.145 C8.146,12.148 8.144,12.151 8.141,12.154 L8.113,12.19 L8.115,12.194 C8.047,12.279 8,12.382 8,12.5 C8,12.776 8.224,13 8.5,13 C8.528,13 8.551,12.989 8.577,12.984 L11,12.984 L11,16.5 C11,16.776 11.224,17 11.5,17 C11.624,17 11.734,16.95 11.821,16.876 L11.825,16.877 L11.832,16.868 C11.862,16.841 11.883,16.809 11.906,16.776 L15.84,11.863 C15.859,11.845 15.871,11.824 15.887,11.803 L15.914,11.77 L15.912,11.767 Z"/>
</svg>
