<svg xmlns="http://www.w3.org/2000/svg" width="50" height="64" viewBox="0 0 50 64">
  <g fill="none" fill-rule="evenodd">
    <path fill="#FFF" stroke="#091E42" stroke-opacity=".08" d="M4,0.5 L33.4482107,0.5 C34.3733699,0.5 35.2608971,0.866298128 35.9167529,1.51881089 L48.4685422,14.0066223 C49.1287916,14.6635063 49.5,15.5564545 49.5,16.4878114 L49.5,60 C49.5,61.9329966 47.9329966,63.5 46,63.5 L4,63.5 C2.06700338,63.5 0.5,61.9329966 0.5,60 L0.5,4 C0.5,2.06700338 2.06700338,0.5 4,0.5 Z"/>
    <path fill="#FF5630" d="M16.653617,32.1973404 L16.653617,30.3933511 L17.6678723,30.3933511 C18.3079255,30.3933511 18.6206915,30.6882447 18.6206915,31.2925532 C18.6206915,31.8231383 18.5190426,32.1973404 17.2177128,32.1973404 L16.653617,32.1973404 Z M23.9913298,34.745266 L24.7665426,34.745266 C25.632234,34.745266 26.5180319,34.4883511 26.5180319,32.5804787 C26.5180319,30.6569681 25.5819681,30.4101064 24.7665426,30.4101064 L23.9913298,30.4101064 L23.9913298,34.745266 Z M16.2068085,36.6553723 L14.9468085,36.6553723 C14.6999468,36.6553723 14.5,36.4543085 14.5,36.2074468 L14.5,28.9468085 C14.5,28.7010638 14.6999468,28.5 14.9468085,28.5 L17.8566489,28.5 C19.5869149,28.5 20.7966489,29.6482979 20.7966489,31.2925532 C20.7966489,32.960266 19.6126064,34.0806383 17.8510638,34.0806383 L16.653617,34.0806383 L16.653617,36.2074468 C16.653617,36.4543085 16.4536702,36.6553723 16.2068085,36.6553723 Z M24.8994681,36.6553723 L22.2845213,36.6553723 C22.0376596,36.6553723 21.8377128,36.4543085 21.8377128,36.2074468 L21.8377128,28.9468085 C21.8377128,28.7010638 22.0376596,28.5 22.2845213,28.5 L24.8994681,28.5 C27.3580319,28.5 28.7118617,29.9431915 28.7118617,32.5648404 C28.7118617,35.2021277 27.3580319,36.6553723 24.8994681,36.6553723 Z M31.6373404,36.6553723 L30.3762234,36.6553723 C30.1293617,36.6553723 29.9294149,36.4543085 29.9294149,36.2074468 L29.9294149,28.9468085 C29.9294149,28.7010638 30.1293617,28.5 30.3762234,28.5 L35.0531915,28.5 C35.2989362,28.5 35.5,28.7010638 35.5,28.9468085 L35.5,29.9733511 C35.5,30.2202128 35.2989362,30.4201596 35.0531915,30.4201596 L32.0841489,30.4201596 L32.0841489,31.7505319 L34.7582979,31.7505319 C35.0051596,31.7505319 35.2051064,31.9504787 35.2051064,32.1973404 L35.2051064,33.2082447 C35.2051064,33.4539894 35.0051596,33.6550532 34.7582979,33.6550532 L32.0841489,33.6550532 L32.0841489,36.2074468 C32.0841489,36.4543085 31.8842021,36.6553723 31.6373404,36.6553723 Z"/>
  </g>
</svg>
