<svg xmlns="http://www.w3.org/2000/svg" xmlns:xlink="http://www.w3.org/1999/xlink" width="50" height="64" viewBox="0 0 50 64">
  <defs>
    <path id="file-48-word-document-a" d="M16.0426943,25.0242753 L29.1676943,23.1616269 C29.4069219,23.1276767 29.6283762,23.2940868 29.6623265,23.5333143 C29.6652163,23.5536776 29.6666667,23.5742194 29.6666667,23.5947867 L29.6666667,40.4068597 C29.6666667,40.6484843 29.4707912,40.8443597 29.2291667,40.8443597 C29.2091268,40.8443597 29.1891107,40.8429828 29.1692596,40.8402387 L16.0442596,39.0259377 C15.8278417,38.9960217 15.6666667,38.8110345 15.6666667,38.5925587 L15.6666667,25.457435 C15.6666667,25.2395597 15.8269805,25.0548885 16.0426943,25.0242753 Z M22.6723633,31.2263997 L22.7635091,31.2263997 L24.3186849,36.6666667 L25.9308268,36.6666667 L28.1126302,28.4464518 L26.3352865,28.4464518 L25.0649414,34.2399089 L24.9737956,34.2399089 L23.4471029,28.4464518 L21.9944661,28.4464518 L20.4962565,34.2399089 L20.4051107,34.2399089 L19.1233724,28.4464518 L17.3346354,28.4464518 L19.5107422,36.6666667 L21.1342773,36.6666667 L22.6723633,31.2263997 Z M30.8333333,26.1666667 L33.8333333,26.1666667 C34.1094757,26.1666667 34.3333333,26.3905243 34.3333333,26.6666667 L34.3333333,37.3333333 C34.3333333,37.6094757 34.1094757,37.8333333 33.8333333,37.8333333 L30.8333333,37.8333333 L30.8333333,26.1666667 Z"/>
  </defs>
  <g fill="none" fill-rule="evenodd">
    <path fill="#FFF" stroke="#091E42" stroke-opacity=".08" d="M4,0.5 L33.4482107,0.5 C34.3733699,0.5 35.2608971,0.866298128 35.9167529,1.51881089 L48.4685422,14.0066223 C49.1287916,14.6635063 49.5,15.5564545 49.5,16.4878114 L49.5,60 C49.5,61.9329966 47.9329966,63.5 46,63.5 L4,63.5 C2.06700338,63.5 0.5,61.9329966 0.5,60 L0.5,4 C0.5,2.06700338 2.06700338,0.5 4,0.5 Z"/>
    <path stroke="#004E8C" stroke-width="2" d="M16.6666667,25.9457434 L16.6666667,38.1024657 L28.6666667,39.7612552 L28.6666667,24.2427507 L16.6666667,25.9457434 Z M22.7229987,34.7229814 L21.8907526,37.6666667 L18.7410217,37.6666667 L16.0354624,27.4464518 L19.9263144,27.4464518 L20.5228681,30.1428744 L21.220173,27.4464518 L24.2177214,27.4464518 L24.9344328,30.1662111 L25.5308009,27.4464518 L29.4126737,27.4464518 L26.7000318,37.6666667 L23.564492,37.6666667 L22.7229987,34.7229814 Z M31.8333333,27.1666667 L31.8333333,36.8333333 L33.3333333,36.8333333 L33.3333333,27.1666667 L31.8333333,27.1666667 Z"/>
  </g>
</svg>
