<svg xmlns="http://www.w3.org/2000/svg" width="50" height="64" viewBox="0 0 50 64">
  <g fill="none" fill-rule="evenodd">
    <path fill="#FFF" stroke="#091E42" stroke-opacity=".08" d="M4,0.5 L33.4482107,0.5 C34.3733699,0.5 35.2608971,0.866298128 35.9167529,1.51881089 L48.4685422,14.0066223 C49.1287916,14.6635063 49.5,15.5564545 49.5,16.4878114 L49.5,60 C49.5,61.9329966 47.9329966,63.5 46,63.5 L4,63.5 C2.06700338,63.5 0.5,61.9329966 0.5,60 L0.5,4 C0.5,2.06700338 2.06700338,0.5 4,0.5 Z"/>
    <path fill="#FF5630" d="M33.1666667,25.785146 L33.1666667,35.3833333 L33.1666667,35.7333333 C33.1666667,37.5374635 31.7041302,39 29.9,39 L29.4333333,39 C27.6292031,39 26.1666667,37.5374635 26.1666667,35.7333333 L26.1666667,35.2666667 C26.1666667,33.4625365 27.6292031,32 29.4333333,32 L29.9,32 C30.2243205,32 30.5376022,32.0472628 30.8333333,32.1352768 L30.8333333,27.615938 L23.8333333,28.3405737 L23.8333333,36.55 L23.8333333,36.9 C23.8333333,38.7041302 22.3707968,40.1666667 20.5666667,40.1666667 L20.1,40.1666667 C18.2958698,40.1666667 16.8333333,38.7041302 16.8333333,36.9 L16.8333333,36.4333333 C16.8333333,34.6292032 18.2958698,33.1666667 20.1,33.1666667 L20.5666667,33.1666667 C20.8909872,33.1666667 21.2042689,33.2139295 21.5,33.3019434 L21.5,27.5556758 L21.5,25.7630413 C21.5,25.3189487 21.8619534,24.9214713 22.3390379,24.8720839 L32.3276288,23.8380711 C32.7910166,23.7901015 33.1666667,24.1118647 33.1666667,24.5553151 L33.1666667,25.785146 Z"/>
  </g>
</svg>
