<svg xmlns="http://www.w3.org/2000/svg" width="50" height="64" viewBox="0 0 50 64">
  <g fill="none" fill-rule="evenodd">
    <path fill="#FFF" stroke="#091E42" stroke-opacity=".08" d="M4,0.5 L33.4482107,0.5 C34.3733699,0.5 35.2608971,0.866298128 35.9167529,1.51881089 L48.4685422,14.0066223 C49.1287916,14.6635063 49.5,15.5564545 49.5,16.4878114 L49.5,60 C49.5,61.9329966 47.9329966,63.5 46,63.5 L4,63.5 C2.06700338,63.5 0.5,61.9329966 0.5,60 L0.5,4 C0.5,2.06700338 2.06700338,0.5 4,0.5 Z"/>
    <path fill="#FF5630" d="M15.6666667,27.1613601 C15.6666667,26.6120061 16.1097676,26.1666667 16.6613601,26.1666667 L26.3386399,26.1666667 C26.8879939,26.1666667 27.3333333,26.6097676 27.3333333,27.1613601 L27.3333333,36.8386399 C27.3333333,37.3879939 26.8902324,37.8333333 26.3386399,37.8333333 L16.6613601,37.8333333 C16.1120061,37.8333333 15.6666667,37.3902324 15.6666667,36.8386399 L15.6666667,27.1613601 Z M33.3533333,36.5946012 L29.6666667,34.8109002 L29.6666667,29.1903083 L33.3533333,27.4053988 C33.7973333,27.1902912 34.3333333,27.4827408 34.3333333,27.9383338 L34.3333333,36.0616662 C34.3333333,36.5172592 33.7973333,36.8097088 33.3533333,36.5946012 Z"/>
  </g>
</svg>
