<svg xmlns="http://www.w3.org/2000/svg" width="50" height="64" viewBox="0 0 50 64">
  <g fill="none" fill-rule="evenodd">
    <path fill="#FFF" stroke="#091E42" stroke-opacity=".08" d="M4,0.5 L33.4482107,0.5 C34.3733699,0.5 35.2608971,0.866298128 35.9167529,1.51881089 L48.4685422,14.0066223 C49.1287916,14.6635063 49.5,15.5564545 49.5,16.4878114 L49.5,60 C49.5,61.9329966 47.9329966,63.5 46,63.5 L4,63.5 C2.06700338,63.5 0.5,61.9329966 0.5,60 L0.5,4 C0.5,2.06700338 2.06700338,0.5 4,0.5 Z"/>
    <path fill="#FFAB00" d="M22.6666667,37.8333333 L28.9250869,31.574913 C28.9363028,31.5636971 28.9477841,31.5527496 28.9595208,31.5420798 C29.3681784,31.1705728 30.0006267,31.2006894 30.3721337,31.609347 L34.3333334,35.9666661 L34.3333334,40.1666667 L22.6666667,40.1666667 L15.6666667,40.1666667 L19.6262266,36.2071067 C20.0167509,35.8165824 20.6499158,35.8165824 21.0404401,36.2071067 L22.6666667,37.8333333 Z M18.7777778,30.0555556 C17.0595586,30.0555556 15.6666667,28.6626637 15.6666667,26.9444444 C15.6666667,25.2262252 17.0595586,23.8333333 18.7777778,23.8333333 C20.495997,23.8333333 21.8888889,25.2262252 21.8888889,26.9444444 C21.8888889,28.6626637 20.495997,30.0555556 18.7777778,30.0555556 Z"/>
  </g>
</svg>
