<?xml version="1.0" encoding="UTF-8" standalone="no"?>
<svg width="24px" height="24px" viewBox="0 0 24 24" version="1.1" xmlns="http://www.w3.org/2000/svg" xmlns:xlink="http://www.w3.org/1999/xlink">
    <!-- Generator: Sketch 48.2 (47327) - http://www.bohemiancoding.com/sketch -->
    <title>objects/24/incident</title>
    <desc>Created with Sketch.</desc>
    <defs></defs>
    <g id="[2px]-Converted-to-outlines" stroke="none" stroke-width="1" fill="none" fill-rule="evenodd">
        <g id="objects/24/incident" fill="#42526E">
            <path d="M8.22452944,14 L15.7754706,14 L14.8694703,11 L9.13052974,11 L8.22452944,14 Z M6,17 C5.44771525,17 5,17.4477153 5,18 L5,20 L19,20 L19,18 C19,17.4477153 18.5522847,17 18,17 L6,17 Z M10.03653,8 L13.96347,8 L12.9572977,4.66830491 C12.8604893,4.34774733 12.6096616,4.09691963 12.289104,4.00011121 C11.7604031,3.84044348 11.20237,4.13960399 11.0427023,4.66830491 L10.03653,8 Z M3,0 L21,0 C22.6568542,-3.04359188e-16 24,1.34314575 24,3 L24,21 C24,22.6568542 22.6568542,24 21,24 L3,24 C1.34314575,24 2.02906125e-16,22.6568542 0,21 L0,3 C-2.02906125e-16,1.34314575 1.34314575,3.04359188e-16 3,0 Z" id="Combined-Shape"></path>
        </g>
    </g>
</svg>