<?xml version="1.0" encoding="UTF-8" standalone="no"?>
<svg width="24px" height="24px" viewBox="0 0 24 24" version="1.1" xmlns="http://www.w3.org/2000/svg" xmlns:xlink="http://www.w3.org/1999/xlink">
    <!-- Generator: Sketch 48.2 (47327) - http://www.bohemiancoding.com/sketch -->
    <title>objects/24/knowledge-base</title>
    <desc>Created with Sketch.</desc>
    <defs></defs>
    <g id="[2px]-Converted-to-outlines" stroke="none" stroke-width="1" fill="none" fill-rule="evenodd">
        <g id="objects/24/knowledge-base" fill="#42526E">
            <path d="M3,0 L21,0 C22.6568542,-3.04359188e-16 24,1.34314575 24,3 L24,21 C24,22.6568542 22.6568542,24 21,24 L3,24 C1.34314575,24 2.02906125e-16,22.6568542 0,21 L0,3 C-2.02906125e-16,1.34314575 1.34314575,3.04359188e-16 3,0 Z M11.9979,4 C8.6849,4 5.9999,6.685 5.9999,9.998 C5.9999,12.216 8.2879,14.482 8.2879,14.482 C8.6779,14.869 8.9979,15.594 8.9979,16.093 C8.9979,16.592 9.4479,17 9.9979,17 L13.9979,17 C14.5479,17 14.9979,16.592 14.9979,16.093 C14.9979,15.594 15.3179,14.869 15.7079,14.482 C15.7079,14.482 17.9959,12.216 17.9959,9.998 C17.9959,6.685 15.3109,4 11.9979,4 Z M14.9628,19 C14.9628,18.45 14.5128,18 13.9628,18 L9.9628,18 C9.4128,18 8.9628,18.45 8.9628,19 L8.9628,19.003 C8.9628,19.553 9.4128,20.003 9.9628,20.003 L13.9628,20.003 C14.5128,20.003 14.9628,19.553 14.9628,19.003 L14.9628,19 Z M11.9999,6 C14.2050026,6 15.9999,7.79389695 15.9999,10 C15.9999,11.0295148 14.8543272,12.5122561 14.3040521,13.0655328 C13.7967984,13.5667834 13.3915958,14.2821411 13.1734868,15.0045023 L10.8263132,15.0045023 C10.6092047,14.2821411 10.2040021,13.5687844 9.70075043,13.0695348 C9.14547279,12.5122561 7.9999,11.0295148 7.9999,10 C7.9999,7.79389695 9.79479745,6 11.9999,6 Z" id="Combined-Shape"></path>
        </g>
    </g>
</svg>