<?xml version="1.0" encoding="UTF-8" standalone="no"?>
<svg width="24px" height="24px" viewBox="0 0 24 24" version="1.1" xmlns="http://www.w3.org/2000/svg" xmlns:xlink="http://www.w3.org/1999/xlink">
    <!-- Generator: Sketch 48.2 (47327) - http://www.bohemiancoding.com/sketch -->
    <title>objects/24/mentions</title>
    <desc>Created with Sketch.</desc>
    <defs></defs>
    <g id="[2px]-Converted-to-outlines" stroke="none" stroke-width="1" fill="none" fill-rule="evenodd">
        <g id="objects/24/mentions" fill="#42526E">
            <path d="M3,0 L21,0 C22.6568542,-3.04359188e-16 24,1.34314575 24,3 L24,21 C24,22.6568542 22.6568542,24 21,24 L3,24 C1.34314575,24 2.02906125e-16,22.6568542 0,21 L0,3 C-2.02906125e-16,1.34314575 1.34314575,3.04359188e-16 3,0 Z M12,3 C6.95357143,3 3,6.95357143 3,12 C3,17.9091429 7.52828571,21 12,21 C13.1237143,21 14.0738571,20.883 14.9044286,20.6412857 C15.4148571,20.4921429 15.7092857,19.956 15.5601429,19.4442857 C15.411,18.9338571 14.88,18.642 14.3644286,18.7885714 C13.7125714,18.9788571 12.9385714,19.0714286 12,19.0714286 C8.59542857,19.0714286 4.92857143,16.8587143 4.92857143,12 C4.92857143,8.03485714 8.03485714,4.92857143 12,4.92857143 C16.1644286,4.92857143 19.0714286,7.43957143 19.0714286,11.0357143 C19.0714286,13.6662857 17.7291429,14.8928571 16.8227143,14.8928571 C16.8137143,14.8928571 15.8571429,14.7527143 15.8571429,13.9285714 L15.8571429,8.78571429 C15.8571429,8.25342857 15.4264286,7.82142857 14.8928571,7.82142857 C14.3605714,7.82142857 13.9285714,8.25342857 13.9285714,8.78571429 L13.9285714,9.02742857 C13.4837143,8.27528571 12.6222857,7.80342857 11.6207143,7.80342857 C9.561,7.80342857 8.14285714,9.48 8.14285714,11.9202857 C8.14285714,14.4711429 9.561,16.1785714 11.6824286,16.1785714 C12.7945714,16.1785714 13.6238571,15.681 14.0802857,14.7951429 C14.5097143,16.1014286 15.8404286,16.8214286 16.8214286,16.8214286 C18.876,16.8214286 21,14.6575714 21,11.0357143 C21,6.37885714 17.2161429,3 12,3 Z M12.0797143,14.4814286 C10.9174286,14.4814286 10.2141429,13.5377143 10.2141429,11.9807143 C10.2141429,10.4044286 10.9071429,9.471 12.1002857,9.471 C13.2934286,9.471 13.9285714,10.4532857 13.9285714,12 C13.9285714,13.5364286 13.2831429,14.4814286 12.0797143,14.4814286" id="Combined-Shape"></path>
        </g>
    </g>
</svg>