<?xml version="1.0" encoding="UTF-8" standalone="no"?>
<svg width="24px" height="24px" viewBox="0 0 24 24" version="1.1" xmlns="http://www.w3.org/2000/svg" xmlns:xlink="http://www.w3.org/1999/xlink">
    <!-- Generator: Sketch 48.2 (47327) - http://www.bohemiancoding.com/sketch -->
    <title>objects/24/subtask</title>
    <desc>Created with Sketch.</desc>
    <defs></defs>
    <g id="[2px]-Converted-to-outlines" stroke="none" stroke-width="1" fill="none" fill-rule="evenodd">
        <g id="objects/24/subtask" fill="#42526E">
            <path d="M13,11 L13,6 C13,5.44771525 12.5522847,5 12,5 L6,5 C5.44771525,5 5,5.44771525 5,6 L5,12 C5,12.5522847 5.44771525,13 6,13 L11,13 L11,18 C11,18.5522847 11.4477153,19 12,19 L18,19 C18.5522847,19 19,18.5522847 19,18 L19,12 C19,11.4477153 18.5522847,11 18,11 L13,11 Z M3,0 L21,0 C22.6568542,-3.04359188e-16 24,1.34314575 24,3 L24,21 C24,22.6568542 22.6568542,24 21,24 L3,24 C1.34314575,24 2.02906125e-16,22.6568542 0,21 L0,3 C-2.02906125e-16,1.34314575 1.34314575,3.04359188e-16 3,0 Z M7,7 L11,7 L11,11 L7,11 L7,7 Z M13,13 L17,13 L17,17 L13,17 L13,13 Z" id="Combined-Shape"></path>
        </g>
    </g>
</svg>