<svg xmlns="http://www.w3.org/2000/svg" width="24" height="24" viewBox="0 0 24 24">
  <path fill="#6554C0" fill-rule="evenodd" d="M6,4 L18,4 C19.1045695,4 20,4.8954305 20,6 L20,18 C20,19.1045695 19.1045695,20 18,20 L6,20 C4.8954305,20 4,19.1045695 4,18 L4,6 C4,4.8954305 4.8954305,4 6,4 Z M15.7510223,9.75 C15.7510223,7.679 14.0720223,6 12.0010223,6 C9.93002234,6 8.25102234,7.679 8.25102234,9.75 C8.25102234,10.302 8.69902234,10.75 9.25102234,10.75 C9.80302234,10.75 10.2510223,10.302 10.2510223,9.75 C10.2510223,8.784 11.0340223,8 12.0010223,8 C12.9670223,8 13.7510223,8.784 13.7510223,9.75 C13.7510223,10.371 13.4260223,10.916 12.9380223,11.226 L11.4580223,12.183 C11.1730223,12.367 11.0010223,12.683 11.0010223,13.023 L11.0010223,13.255 L11.0010223,13.479 L11.0010223,14 C11.0010223,14.552 11.4490223,15 12.0010223,15 C12.5530223,15 13.0010223,14.552 13.0010223,14 L13.0010223,13.546 L13.8740223,12.981 C14.9910223,12.331 15.7510223,11.135 15.7510223,9.75 Z M12.0010223,16 C11.4490223,16 11.0010223,16.448 11.0010223,17 C11.0010223,17.552 11.4490223,18 12.0010223,18 C12.5530223,18 13.0010223,17.552 13.0010223,17 C13.0010223,16.448 12.5530223,16 12.0010223,16 Z"/>
</svg>
