<?xml version="1.0" encoding="UTF-8" standalone="no"?>
<svg width="24px" height="24px" viewBox="0 0 24 24" version="1.1" xmlns="http://www.w3.org/2000/svg" xmlns:xlink="http://www.w3.org/1999/xlink">
    <!-- Generator: Sketch 48.2 (47327) - http://www.bohemiancoding.com/sketch -->
    <title>objects/16/access-request</title>
    <desc>Created with Sketch.</desc>
    <defs></defs>
    <g id="[2px]-Converted-to-outlines" stroke="none" stroke-width="1" fill="none" fill-rule="evenodd">
        <g id="objects/16/access-request" fill="#42526E">
            <path d="M6,4 L18,4 C19.1045695,4 20,4.8954305 20,6 L20,18 C20,19.1045695 19.1045695,20 18,20 L6,20 C4.8954305,20 4,19.1045695 4,18 L4,6 C4,4.8954305 4.8954305,4 6,4 Z M8,11 C7.44771525,11 7,11.4477153 7,12 L7,17 C7,17.5522847 7.44771525,18 8,18 L16,18 C16.5522847,18 17,17.5522847 17,17 L17,12 C17,11.4477153 16.5522847,11 16,11 L8,11 Z M9,13 L15,13 L15,16 L9,16 L9,13 Z M12,6 C13.6568542,6 15,7.34314575 15,9 L15,11 L9,11 L9,9 C9,7.34314575 10.3431458,6 12,6 Z M11,11 L13,11 L13,9 C13,8.44771525 12.5522847,8 12,8 C11.4477153,8 11,8.44771525 11,9 L11,11 Z" id="Combined-Shape"></path>
        </g>
    </g>
</svg>