<?xml version="1.0" encoding="UTF-8" standalone="no"?>
<svg width="24px" height="24px" viewBox="0 0 24 24" version="1.1" xmlns="http://www.w3.org/2000/svg" xmlns:xlink="http://www.w3.org/1999/xlink">
    <!-- Generator: Sketch 48.2 (47327) - http://www.bohemiancoding.com/sketch -->
    <title>objects/16/action</title>
    <desc>Created with Sketch.</desc>
    <defs></defs>
    <g id="[2px]-Converted-to-outlines" stroke="none" stroke-width="1" fill="none" fill-rule="evenodd">
        <g id="objects/16/action" fill="#42526E">
            <path d="M4,5.99406028 C4,4.8927712 4.89451376,4 5.99406028,4 L18.0059397,4 C19.1072288,4 20,4.89451376 20,5.99406028 L20,18.0059397 C20,19.1072288 19.1054862,20 18.0059397,20 L5.99406028,20 C4.8927712,20 4,19.1054862 4,18.0059397 L4,5.99406028 Z M8.66666667,7 C7.74619208,7 7,7.74619208 7,8.66666667 L7,15.3333333 C7,16.2538079 7.74619208,17 8.66666667,17 L15.3333333,17 C16.2538079,17 17,16.2538079 17,15.3333333 L17,8.66666667 C17,7.74619208 16.2538079,7 15.3333333,7 L8.66666667,7 Z M13.3289378,10.2772933 C13.7280777,9.89557903 14.3610851,9.90970525 14.7427994,10.3088451 C15.1245137,10.707985 15.1103875,11.3409924 14.7112476,11.7227067 L12.0380525,14.2791959 C11.6469334,14.6532396 11.0292194,14.64826 10.6441813,14.2679594 L9.29728369,12.9376338 C8.90434957,12.5495343 8.90043034,11.9163815 9.28852984,11.5234474 C9.67662934,11.1305132 10.3097822,11.126594 10.7027163,11.5146935 L11.3581387,12.1620517 L13.3289378,10.2772933 Z" id="Combined-Shape"></path>
        </g>
    </g>
</svg>