<?xml version="1.0" encoding="UTF-8" standalone="no"?>
<svg width="24px" height="24px" viewBox="0 0 24 24" version="1.1" xmlns="http://www.w3.org/2000/svg" xmlns:xlink="http://www.w3.org/1999/xlink">
    <!-- Generator: Sketch 48.2 (47327) - http://www.bohemiancoding.com/sketch -->
    <title>objects/16/config</title>
    <desc>Created with Sketch.</desc>
    <defs></defs>
    <g id="[2px]-Converted-to-outlines" stroke="none" stroke-width="1" fill="none" fill-rule="evenodd">
        <g id="objects/16/config" fill="#42526E">
            <path d="M6,4 L18,4 C19.1045695,4 20,4.8954305 20,6 L20,18 C20,19.1045695 19.1045695,20 18,20 L6,20 C4.8954305,20 4,19.1045695 4,18 L4,6 C4,4.8954305 4.8954305,4 6,4 Z M16.8114317,13.0834552 C16.3613721,12.9271126 16.037766,12.5034933 16.037766,11.9999784 C16.037766,11.4964635 16.3613721,11.0728442 16.8108569,10.9165016 C16.9470818,10.869369 17.031001,10.725097 16.9919153,10.5865729 C16.8775324,10.1819216 16.7148672,9.79853754 16.511392,9.44101895 C16.4435669,9.32146289 16.2946966,9.27720416 16.1676683,9.32893514 C15.9463746,9.41975177 15.6905936,9.4433181 15.425616,9.37549303 C15.0382084,9.27547979 14.7214998,8.95992078 14.6191874,8.57308796 C14.5490632,8.30696077 14.5726296,8.05003021 14.6628714,7.82758697 C14.7140276,7.70113345 14.6697689,7.55226316 14.5502128,7.48443809 C14.1955681,7.28383682 13.815058,7.12289598 13.415005,7.0096626 C13.2759062,6.97057696 13.132209,7.05392133 13.0850763,7.19014626 C12.9287338,7.64020584 12.5051145,7.9638119 12.0015995,7.9638119 C11.4986594,7.9638119 11.0744653,7.64020584 10.9186976,7.19072105 C10.8709901,7.05449612 10.7267181,6.97057696 10.588194,7.0096626 C10.1812436,7.12462034 9.79556038,7.28843513 9.43631742,7.49363471 C9.32078488,7.55973542 9.27192784,7.70458218 9.32250925,7.82816176 C9.40700319,8.03566049 9.43286868,8.27247345 9.37883854,8.51963261 C9.28974629,8.92543345 8.96843939,9.2651336 8.56666206,9.37261909 C8.30340882,9.4433181 8.05050177,9.42090134 7.83093248,9.33353345 C7.70447896,9.28295205 7.55618346,9.32778557 7.48893318,9.44619205 C7.28603276,9.80371064 7.12394233,10.1876695 7.01013416,10.5923208 C6.97104853,10.7296953 7.05324332,10.8722429 7.18716909,10.9210999 C7.63033121,11.0808912 7.94761459,11.5016366 7.94761459,11.9999784 C7.94761459,12.4983202 7.63033121,12.9190656 7.1865943,13.0788569 C7.05266853,13.1271391 6.97104853,13.2696867 7.00955937,13.4070612 C7.11129698,13.7674538 7.25212022,14.1117522 7.42513163,14.4359331 C7.49353149,14.5635362 7.65217318,14.6072201 7.7837998,14.5468673 C8.1257991,14.38995 8.55574107,14.3951231 8.9931553,14.683667 C9.06040558,14.7279257 9.12248277,14.7900029 9.1667415,14.8566784 C9.46965516,15.3159346 9.46103333,15.7648446 9.28054967,16.1137414 C9.21444896,16.2419193 9.25295981,16.4017105 9.37711418,16.4747087 C9.75302601,16.6954276 10.1599764,16.8695886 10.5893436,16.9902942 C10.7278677,17.0293798 10.8704153,16.9466103 10.9169732,16.8103853 C11.0715914,16.3586014 11.496935,16.0326962 12.0015995,16.0326962 C12.5062641,16.0326962 12.9316077,16.3586014 13.0862259,16.8103853 C13.1327838,16.9460355 13.2753314,17.0293798 13.4138555,16.9902942 C13.8374748,16.8713129 14.2392521,16.6994511 14.6117152,16.4827557 C14.7370191,16.4097576 14.7749552,16.2482419 14.7077049,16.1200641 C14.5249221,15.7705925 14.5140011,15.3193833 14.8174896,14.8584028 C14.8617483,14.7917273 14.9238255,14.7290753 14.9910758,14.6848166 C15.4348127,14.3910995 15.8687782,14.38995 16.2125018,14.5526152 C16.3441284,14.6146924 16.5044945,14.5715832 16.5734691,14.4434053 C16.7482049,14.1192245 16.8890282,13.7743512 16.9919153,13.4128091 C17.031001,13.274285 16.9476566,13.1305878 16.8114317,13.0834552 Z M9.5,12 C9.5,10.6190524 10.6190524,9.5 12,9.5 C13.3809476,9.5 14.5,10.6190524 14.5,12 C14.5,13.3804478 13.3809476,14.5 12,14.5 C10.6190524,14.5 9.5,13.3804478 9.5,12 Z" id="Combined-Shape"></path>
        </g>
    </g>
</svg>