<?xml version="1.0" encoding="UTF-8" standalone="no"?>
<svg width="24px" height="24px" viewBox="0 0 24 24" version="1.1" xmlns="http://www.w3.org/2000/svg" xmlns:xlink="http://www.w3.org/1999/xlink">
    <!-- Generator: Sketch 48.2 (47327) - http://www.bohemiancoding.com/sketch -->
    <title>objects/16/decision</title>
    <desc>Created with Sketch.</desc>
    <defs></defs>
    <g id="[2px]-Converted-to-outlines" stroke="none" stroke-width="1" fill="none" fill-rule="evenodd">
        <g id="objects/16/decision" fill="#42526E">
            <path d="M12.9878343,11 C12.9901683,10.7410699 12.8924272,10.481621 12.695,10.2847 L8.694,6.2917 C8.499,6.0977 8.244,6.0007 7.988,6.0007 C7.732,6.0007 7.475,6.0987 7.28,6.2937 C6.89,6.6847 6.89,7.3177 7.282,7.7077 L11,11.4182621 L11,17 C11,17.5522847 11.4477153,18 12,18 C12.5522847,18 13,17.5522847 13,17 L13,11 L12.9878343,11 Z M6,4 L18,4 C19.1045695,4 20,4.8954305 20,6 L20,18 C20,19.1045695 19.1045695,20 18,20 L6,20 C4.8954305,20 4,19.1045695 4,18 L4,6 C4,4.8954305 4.8954305,4 6,4 Z M15.3039661,6.2897 L13.8189661,7.7587 C13.4269661,8.1477 13.4229661,8.7807 13.8119661,9.1737 C14.2009661,9.5657 14.8339661,9.5687 15.2259661,9.1797 L16.7109661,7.7107 C17.1039661,7.3227 17.1059661,6.6887 16.7179661,6.2967 C16.5229661,6.0997 16.2649661,6.0007 16.0069661,5.9997 C15.7529661,5.9997 15.4989661,6.0957 15.3039661,6.2897 Z" id="Combined-Shape"></path>
        </g>
    </g>
</svg>