<?xml version="1.0" encoding="UTF-8" standalone="no"?>
<svg width="24px" height="24px" viewBox="0 0 24 24" version="1.1" xmlns="http://www.w3.org/2000/svg" xmlns:xlink="http://www.w3.org/1999/xlink">
    <!-- Generator: Sketch 48.2 (47327) - http://www.bohemiancoding.com/sketch -->
    <title>objects/16/issue</title>
    <desc>Created with Sketch.</desc>
    <defs></defs>
    <g id="[2px]-Converted-to-outlines" stroke="none" stroke-width="1" fill="none" fill-rule="evenodd">
        <g id="objects/16/issue" fill="#42526E">
            <path d="M6,4 L18,4 C19.1045695,4 20,4.8954305 20,6 L20,18 C20,19.1045695 19.1045695,20 18,20 L6,20 C4.8954305,20 4,19.1045695 4,18 L4,6 C4,4.8954305 4.8954305,4 6,4 Z M7,8 C6.44771525,8 6,8.44771525 6,9 L6,15 C6,15.5522847 6.44771525,16 7,16 L17,16 C17.5522847,16 18,15.5522847 18,15 L18,9 C18,8.44771525 17.5522847,8 17,8 L7,8 Z M8,10 L8,14 L16,14 L16,10 L8,10 Z" id="Combined-Shape"></path>
        </g>
    </g>
</svg>