<?xml version="1.0" encoding="UTF-8" standalone="no"?>
<svg width="24px" height="24px" viewBox="0 0 24 24" version="1.1" xmlns="http://www.w3.org/2000/svg" xmlns:xlink="http://www.w3.org/1999/xlink">
    <!-- Generator: Sketch 48.2 (47327) - http://www.bohemiancoding.com/sketch -->
    <title>objects/16/knowledge-base</title>
    <desc>Created with Sketch.</desc>
    <defs></defs>
    <g id="[2px]-Converted-to-outlines" stroke="none" stroke-width="1" fill="none" fill-rule="evenodd">
        <g id="objects/16/knowledge-base" fill="#42526E">
            <path d="M6,4 L18,4 C19.1045695,4 20,4.8954305 20,6 L20,18 C20,19.1045695 19.1045695,20 18,20 L6,20 C4.8954305,20 4,19.1045695 4,18 L4,6 C4,4.8954305 4.8954305,4 6,4 Z M11,16 C10.4477153,16 10,16.4477153 10,17 C10,17.5522847 10.4477153,18 11,18 L13,18 C13.5522847,18 14,17.5522847 14,17 C14,16.4477153 13.5522847,16 13,16 L11,16 Z M8,10.1524615 C8,11.688 9.52584195,13.2567692 9.52584195,13.2567692 C9.78592864,13.5246923 9.99933311,14.0266154 9.99933311,14.3720769 C9.99933311,14.7175385 10.2994331,15 10.6662221,15 L13.3337779,15 C13.7005669,15 14.0006669,14.7175385 14.0006669,14.3720769 C14.0006669,14.0266154 14.2140714,13.5246923 14.4741581,13.2567692 C14.4741581,13.2567692 16,11.688 16,10.1524615 C16,7.85884615 14.2094031,6 12,6 C9.79059687,6 8,7.85884615 8,10.1524615 Z M12.3005262,13 C12.4828157,12.5715073 12.7385352,12.1733335 13.040465,11.8623073 C13.1485675,11.7511634 13.3561045,11.5029783 13.5625181,11.186895 C13.8362527,10.7677221 13.9907842,10.3879623 13.9996838,10.1674094 C14,8.9470228 13.087748,8 12,8 C10.912252,8 10,8.9470228 10,10.1524615 C10.0092158,10.3879623 10.1637473,10.7677221 10.4374819,11.186895 C10.6438955,11.5029783 10.8514325,11.7511634 10.9608863,11.8636979 C11.2621107,12.1739982 11.5174624,12.5717548 11.6995745,13 L12.3005262,13 Z" id="Combined-Shape"></path>
        </g>
    </g>
</svg>