<svg xmlns="http://www.w3.org/2000/svg" width="24" height="24" viewBox="0 0 24 24">
  <path fill="#36B37E" fill-rule="evenodd" d="M13,9.41343351 L15.2936733,11.7071068 C15.6841976,12.0976311 16.3173625,12.0976311 16.7078868,11.7071068 C17.0984111,11.3165825 17.0984111,10.6834175 16.7078868,10.2928932 L12.7078868,6.29289322 C12.3173625,5.90236893 11.6841976,5.90236893 11.2936733,6.29289322 L7.29367327,10.2928932 C6.90314898,10.6834175 6.90314898,11.3165825 7.29367327,11.7071068 C7.68419756,12.0976311 8.31736254,12.0976311 8.70788683,11.7071068 L11,9.41499362 L11,17 C11,17.5522847 11.4477153,18 12,18 C12.5522847,18 13,17.5522847 13,17 L13,9.41343351 Z M6,4 L18,4 C19.1045695,4 20,4.8954305 20,6 L20,18 C20,19.1045695 19.1045695,20 18,20 L6,20 C4.8954305,20 4,19.1045695 4,18 L4,6 C4,4.8954305 4.8954305,4 6,4 Z"/>
</svg>
