<svg xmlns="http://www.w3.org/2000/svg" width="24" height="24" viewBox="0 0 24 24">
  <path fill="#2684FF" fill-rule="evenodd" d="M10.9724769,10.1277659 C10.7927217,8.92359826 9.75421983,8 8.5,8 C7.11928813,8 6,9.11928813 6,10.5 C6,11.8807119 7.11928813,13 8.5,13 C8.53427547,13 8.56838984,12.9993102 8.60232999,12.9979438 C8.32513248,13.3918351 7.98630247,13.8134578 7.58583959,14.2628116 C7.29951795,14.5840962 7.27552459,15.0613962 7.52818298,15.4097748 C7.55499462,15.4467441 7.58589571,15.4805671 7.62029877,15.5106007 C7.87265227,15.7309039 8.2558162,15.704922 8.47611616,15.4525657 C10.4147765,13.2318633 11.2468968,11.4569301 10.9724769,10.1277659 Z M17.9724769,10.1277659 C17.7927217,8.92359826 16.7542198,8 15.5,8 C14.1192881,8 13,9.11928813 13,10.5 C13,11.8807119 14.1192881,13 15.5,13 C15.5342755,13 15.5683898,12.9993102 15.60233,12.9979438 C15.3251325,13.3918351 14.9863025,13.8134578 14.5858396,14.2628116 C14.2995179,14.5840962 14.2755246,15.0613962 14.528183,15.4097748 C14.5549946,15.4467441 14.5858957,15.4805671 14.6202988,15.5106007 C14.8726523,15.7309039 15.2558162,15.704922 15.4761162,15.4525657 C17.4147765,13.2318633 18.2468968,11.4569301 17.9724769,10.1277659 Z M6,4 L18,4 C19.1045695,4 20,4.8954305 20,6 L20,18 C20,19.1045695 19.1045695,20 18,20 L6,20 C4.8954305,20 4,19.1045695 4,18 L4,6 C4,4.8954305 4.8954305,4 6,4 Z"/>
</svg>
