<svg xmlns="http://www.w3.org/2000/svg" width="24" height="24" viewBox="0 0 24 24">
  <path fill="#2684FF" fill-rule="evenodd" d="M4,5.99406028 C4,4.8927712 4.89451376,4 5.99406028,4 L18.0059397,4 C19.1072288,4 20,4.89451376 20,5.99406028 L20,18.0059397 C20,19.1072288 19.1054862,20 18.0059397,20 L5.99406028,20 C4.8927712,20 4,19.1054862 4,18.0059397 L4,5.99406028 Z M8.66666667,7 C7.74619208,7 7,7.74619208 7,8.66666667 L7,15.3333333 C7,16.2538079 7.74619208,17 8.66666667,17 L15.3333333,17 C16.2538079,17 17,16.2538079 17,15.3333333 L17,8.66666667 C17,7.74619208 16.2538079,7 15.3333333,7 L8.66666667,7 Z M9,9 L9,15 L15,15 L15,9 L9,9 Z"/>
</svg>
