<svg xmlns="http://www.w3.org/2000/svg" width="24" height="24" viewBox="0 0 24 24">
  <path fill="#FF5630" fill-rule="evenodd" d="M9.96803265,15.4461809 L15.4461809,9.96803265 C15.7980706,10.5635459 16,11.2581914 16,12 C16,14.209139 14.209139,16 12,16 C11.2581914,16 10.5635459,15.7980706 9.96803265,15.4461809 Z M9.17157242,14.8284267 C9.17157227,14.8284265 9.17157212,14.8284264 9.17157198,14.8284262 L9.17157242,14.8284267 Z M8.55381909,14.0319673 C8.20192939,13.4364541 8,12.7418086 8,12 C8,9.790861 9.790861,8 12,8 C12.7418086,8 13.4364541,8.20192939 14.0319673,8.55381909 L8.55381909,14.0319673 Z M14.8284276,9.17157333 L14.8284276,9.17157333 C14.8284279,9.17157363 14.8284277,9.17157348 14.8284276,9.17157333 Z M6,4 L18,4 C19.1045695,4 20,4.8954305 20,6 L20,18 C20,19.1045695 19.1045695,20 18,20 L6,20 C4.8954305,20 4,19.1045695 4,18 L4,6 C4,4.8954305 4.8954305,4 6,4 Z M12,18 C15.3137085,18 18,15.3137085 18,12 C18,8.6862915 15.3137085,6 12,6 C8.6862915,6 6,8.6862915 6,12 C6,15.3137085 8.6862915,18 12,18 Z"/>
</svg>
