<?xml version="1.0" encoding="UTF-8" standalone="no"?>
<svg width="24px" height="24px" viewBox="0 0 24 24" version="1.1" xmlns="http://www.w3.org/2000/svg" xmlns:xlink="http://www.w3.org/1999/xlink">
    <!-- Generator: Sketch 48.2 (47327) - http://www.bohemiancoding.com/sketch -->
    <title>objects/16/space</title>
    <desc>Created with Sketch.</desc>
    <defs></defs>
    <g id="[2px]-Converted-to-outlines" stroke="none" stroke-width="1" fill="none" fill-rule="evenodd">
        <g id="objects/16/space" fill="#42526E">
            <path d="M6,4 L18,4 C19.1045695,4 20,4.8954305 20,6 L20,18 C20,19.1045695 19.1045695,20 18,20 L6,20 C4.8954305,20 4,19.1045695 4,18 L4,6 C4,4.8954305 4.8954305,4 6,4 Z M17,10 C17,9.44771525 16.5522847,9 16,9 L14,9 C14,7.8954305 13.1045695,7 12,7 L8,7 C7.44771525,7 7,7.44771525 7,8 L7,16 C7,16.5522847 7.44771525,17 8,17 L16,17 C16.5522847,17 17,16.5522847 17,16 L17,10 Z M9,9 L12,9 L12,11 L15,11 L15,15 L9,15 L9,9 Z" id="Combined-Shape"></path>
        </g>
    </g>
</svg>