<?xml version="1.0" encoding="UTF-8" standalone="no"?>
<svg width="24px" height="24px" viewBox="0 0 24 24" version="1.1" xmlns="http://www.w3.org/2000/svg" xmlns:xlink="http://www.w3.org/1999/xlink">
    <!-- Generator: Sketch 48.2 (47327) - http://www.bohemiancoding.com/sketch -->
    <title>objects/16/support</title>
    <desc>Created with Sketch.</desc>
    <defs></defs>
    <g id="[2px]-Converted-to-outlines" stroke="none" stroke-width="1" fill="none" fill-rule="evenodd">
        <g id="objects/16/support" fill="#42526E">
            <path d="M4,5.99406028 C4,4.8927712 4.89451376,4 5.99406028,4 L18.0059397,4 C19.1072288,4 20,4.89451376 20,5.99406028 L20,18.0059397 C20,19.1072288 19.1054862,20 18.0059397,20 L5.99406028,20 C4.8927712,20 4,19.1054862 4,18.0059397 L4,5.99406028 Z M16.9832738,10.9712118 C17.0502756,10.1679437 16.9212721,9.41186508 16.5002605,8.72604615 C15.9627202,7.80429904 14.9309843,7.33595003 13.9221898,7.55574964 C13.3171015,7.68057142 12.7645287,8.00109769 12.3421465,8.47227218 C12.2221432,8.59915917 12.1141402,8.73862999 12.0011372,8.87180889 C11.9926506,8.86969139 11.984546,8.86615027 11.9771365,8.86132236 C11.9511358,8.82881413 11.9251351,8.79735454 11.9001344,8.76379765 C11.596477,8.35901241 11.2112876,8.02957497 10.7721034,7.79903709 C9.79007651,7.28939183 8.68704627,7.43515457 7.91102498,8.20591437 C7.25200691,8.86027371 7,9.69290403 7,10.6272537 C7.00770415,11.3992506 7.22748583,12.1525508 7.63301736,12.7969163 C8.18464987,13.7091736 8.86354085,14.5295923 9.64707259,15.2308394 C10.0990837,15.6565725 10.608599,16.0099389 11.1591141,16.2794922 C11.4781228,16.4273522 11.8041317,16.5353635 12.1591415,16.4892228 C12.617154,16.4284009 13.0191651,16.219719 13.4001755,15.9648964 C14.5142061,15.2193042 15.4152308,14.2430085 16.1702515,13.1136094 C16.6002633,12.4676393 16.9162719,11.7713339 16.9832738,10.9712118 Z" id="Combined-Shape"></path>
        </g>
    </g>
</svg>