<?xml version="1.0" encoding="UTF-8" standalone="no"?>
<svg width="24px" height="24px" viewBox="0 0 24 24" version="1.1" xmlns="http://www.w3.org/2000/svg" xmlns:xlink="http://www.w3.org/1999/xlink">
    <!-- Generator: Sketch 48.2 (47327) - http://www.bohemiancoding.com/sketch -->
    <title>objects/16/unwatch</title>
    <desc>Created with Sketch.</desc>
    <defs></defs>
    <g id="[2px]-Converted-to-outlines" stroke="none" stroke-width="1" fill="none" fill-rule="evenodd">
        <g id="objects/16/unwatch" fill="#42526E">
            <path d="M6,4 L18,4 C19.1045695,4 20,4.8954305 20,6 L20,18 C20,19.1045695 19.1045695,20 18,20 L6,20 C4.8954305,20 4,19.1045695 4,18 L4,6 C4,4.8954305 4.8954305,4 6,4 Z M6,12 C6,13.92875 8.74651058,17 12.0003002,17 C15.2540897,17 18,13.92875 18,12 C18,10.025 15.3117214,7 12.0003002,7 C8.68827855,7 6,10.025 6,12 Z M8,12 C8,11.6368895 8.40936651,10.8804486 9.11513795,10.2285795 C9.95235916,9.45529998 10.9916391,9 12.0003002,9 C13.0086418,9 14.0477505,9.45527851 14.8848865,10.2285328 C15.5906334,10.8804243 16,11.6368887 16,12 C16,12.3308006 15.5799569,13.0927031 14.8639081,13.7535386 C14.0140643,14.5378523 12.9751853,15 12.0003002,15 C11.0253648,15 9.98630463,14.537808 9.13629155,13.7534458 C8.42011536,13.0925835 8,12.330689 8,12 Z M12,13.5 C12.8284271,13.5 13.5,12.8284271 13.5,12 C13.5,11.1715729 12.8284271,10.5 12,10.5 C11.1715729,10.5 10.5,11.1715729 10.5,12 C10.5,12.8284271 11.1715729,13.5 12,13.5 Z" id="Combined-Shape"></path>
        </g>
    </g>
</svg>