<?xml version="1.0" encoding="UTF-8" standalone="no"?>
<svg width="24px" height="24px" viewBox="0 0 24 24" version="1.1" xmlns="http://www.w3.org/2000/svg" xmlns:xlink="http://www.w3.org/1999/xlink">
    <!-- Generator: Sketch 48.2 (47327) - http://www.bohemiancoding.com/sketch -->
    <title>objects/16/user</title>
    <desc>Created with Sketch.</desc>
    <defs></defs>
    <g id="[2px]-Converted-to-outlines" stroke="none" stroke-width="1" fill="none" fill-rule="evenodd">
        <g id="objects/16/user" fill="#42526E">
            <path d="M15.6988126,16.5153054 C15.884645,16.3337313 16,16.080337 16,15.8 L16,13 C16,12.4477153 15.5522847,12 15,12 L9,12 C8.44771525,12 8,12.4477153 8,13 L8,15.8 C8,16.080337 8.11535502,16.3337313 8.30118737,16.5153054 C8.90085515,17.3867383 10.3310651,18 12,18 C13.6689349,18 15.0991448,17.3867383 15.6988126,16.5153054 Z M6,4 L18,4 C19.1045695,4 20,4.8954305 20,6 L20,18 C20,19.1045695 19.1045695,20 18,20 L6,20 C4.8954305,20 4,19.1045695 4,18 L4,6 C4,4.8954305 4.8954305,4 6,4 Z M12,11 C13.3807119,11 14.5,9.88071187 14.5,8.5 C14.5,7.11928813 13.3807119,6 12,6 C10.6192881,6 9.5,7.11928813 9.5,8.5 C9.5,9.88071187 10.6192881,11 12,11 Z" id="Combined-Shape"></path>
        </g>
    </g>
</svg>