<?xml version="1.0" encoding="UTF-8" standalone="no"?>
<svg width="24px" height="24px" viewBox="0 0 24 24" version="1.1" xmlns="http://www.w3.org/2000/svg" xmlns:xlink="http://www.w3.org/1999/xlink">
    <!-- Generator: Sketch 48.2 (47327) - http://www.bohemiancoding.com/sketch -->
    <title>objects/16/video</title>
    <desc>Created with Sketch.</desc>
    <defs></defs>
    <g id="[2px]-Converted-to-outlines" stroke="none" stroke-width="1" fill="none" fill-rule="evenodd">
        <g id="objects/16/video" fill="#42526E">
            <path d="M6,4 L18,4 C19.1045695,4 20,4.8954305 20,6 L20,18 C20,19.1045695 19.1045695,20 18,20 L6,20 C4.8954305,20 4,19.1045695 4,18 L4,6 C4,4.8954305 4.8954305,4 6,4 Z M17.37,14.9536722 C17.6554286,15.0919557 18,14.9039523 18,14.6110711 L18,9.38892889 C18,9.09604766 17.6554286,8.90804433 17.37,9.04632777 L15,10.1937696 L15,13.8070073 L17.37,14.9536722 Z M6,9.99077797 L6,14.009222 C6,14.5490248 6.44902676,15 7.00292933,15 L11.9970707,15 C12.5621186,15 13,14.5564136 13,14.009222 L13,9.99077797 C13,9.45097518 12.5509732,9 11.9970707,9 L7.00292933,9 C6.43788135,9 6,9.44358641 6,9.99077797 Z" id="Combined-Shape"></path>
        </g>
    </g>
</svg>