<?xml version="1.0" encoding="UTF-8" standalone="no"?>
<svg width="24px" height="24px" viewBox="0 0 24 24" version="1.1" xmlns="http://www.w3.org/2000/svg" xmlns:xlink="http://www.w3.org/1999/xlink">
    <!-- Generator: Sketch 45.1 (43504) - http://www.bohemiancoding.com/sketch -->
    <title>jira/blocker</title>
    <desc>Created with Sketch.</desc>
    <defs></defs>
    <g id="JIRA" stroke="none" stroke-width="1" fill="none" fill-rule="evenodd">
        <g id="jira/blocker" fill-rule="nonzero" fill="#42526E">
            <path d="M12,17 C14.7614237,17 17,14.7614237 17,12 C17,9.23857625 14.7614237,7 12,7 C9.23857625,7 7,9.23857625 7,12 C7,14.7614237 9.23857625,17 12,17 Z M12,19 C8.13400675,19 5,15.8659932 5,12 C5,8.13400675 8.13400675,5 12,5 C15.8659932,5 19,8.13400675 19,12 C19,15.8659932 15.8659932,19 12,19 Z" id="Oval"></path>
            <polygon id="Line" points="8 17.4142136 17.4142136 8 16 6.58578644 6.58578644 16"></polygon>
        </g>
    </g>
</svg>