<svg xmlns="http://www.w3.org/2000/svg" width="50" height="64" viewBox="0 0 50 64">
  <g fill="none" fill-rule="evenodd">
    <path fill="#FFF" stroke="#091E42" stroke-opacity=".08" d="M4,0.5 L33.4482107,0.5 C34.3733699,0.5 35.2608971,0.866298128 35.9167529,1.51881089 L48.4685422,14.0066223 C49.1287916,14.6635063 49.5,15.5564545 49.5,16.4878114 L49.5,60 C49.5,61.9329966 47.9329966,63.5 46,63.5 L4,63.5 C2.06700338,63.5 0.5,61.9329966 0.5,60 L0.5,4 C0.5,2.06700338 2.06700338,0.5 4,0.5 Z"/>
    <path fill="#FFAB00" d="M26.8241622,37.4087928 L24.5720541,37.4087928 C24.4142703,37.4087928 24.2882703,37.2816577 24.2882703,37.125009 L24.2882703,27.7817117 C24.2882703,27.6239279 24.4142703,27.4979279 24.5720541,27.4979279 L26.8241622,27.4979279 C26.9808108,27.4979279 27.1079459,27.6239279 27.1079459,27.7817117 L27.1079459,37.125009 C27.1079459,37.2816577 26.9808108,37.4087928 26.8241622,37.4087928 Z M31.2466486,37.4087928 L28.9934054,37.4087928 C28.8367568,37.4087928 28.7096216,37.2816577 28.7096216,37.125009 L28.7096216,27.7817117 C28.7096216,27.6239279 28.8367568,27.4979279 28.9934054,27.4979279 L35.2162162,27.4979279 C35.3717297,27.4979279 35.5,27.6239279 35.5,27.7817117 L35.5,29.6160901 C35.5,29.7727387 35.3717297,29.8998739 35.2162162,29.8998739 L31.5304324,29.8998739 L31.5304324,31.5571712 L34.852973,31.5571712 C35.0096216,31.5571712 35.1367568,31.6843063 35.1367568,31.840955 L35.1367568,33.6129009 C35.1367568,33.7695495 35.0096216,33.8966847 34.852973,33.8966847 L31.5304324,33.8966847 L31.5304324,37.125009 C31.5304324,37.2816577 31.4021622,37.4087928 31.2466486,37.4087928 M18.9179459,37.5790631 C16.1516216,37.5790631 14.5,35.8616036 14.5,32.984036 L14.5,31.8613874 C14.5,29.0678198 16.1947568,27.3333333 18.9247568,27.3333333 C21.6252432,27.3333333 22.9340541,29.0451171 23.0339459,30.7421441 C23.0384865,30.8204685 23.0112432,30.8976577 22.9578919,30.9532793 C22.9034054,31.0111712 22.8284865,31.042955 22.7512973,31.042955 L20.5604865,31.042955 C20.4231351,31.042955 20.3062162,30.9453333 20.2812432,30.8102523 C20.1643243,30.1677658 19.6364865,29.7693333 18.9043243,29.7693333 C17.6114054,29.7693333 17.3401081,30.9180901 17.3401081,31.8818198 L17.3401081,32.9772252 C17.3401081,34.4143063 17.8861081,35.1430631 18.9656216,35.1430631 C19.9985946,35.1430631 20.3663784,34.5153333 20.3663784,33.9761441 L20.3663784,33.8694414 L19.0201081,33.8694414 C18.8634595,33.8694414 18.7363243,33.7434414 18.7363243,33.5856577 L18.7363243,31.983982 C18.7363243,31.8273333 18.8634595,31.7001982 19.0201081,31.7001982 L22.7717297,31.7001982 C22.9283784,31.7001982 23.0555135,31.8273333 23.0555135,31.983982 L23.0555135,33.7979279 C23.0555135,35.5426306 21.9714595,37.5790631 18.9179459,37.5790631"/>
  </g>
</svg>
